NotoSansOriyaUI-Thin.ufo
<glyph name="exclam" format="2">
  <advance width="322"/>
  <unicode hex="0021"/>
  <outline>
    <contour>
      <point x="167" y="267" type="line"/>
      <point x="191" y="267" type="line"/>
      <point x="193" y="807" type="line"/>
      <point x="165" y="807" type="line"/>
    </contour>
    <contour>
      <point x="152" y="116" type="curve" smooth="yes"/>
      <point x="152" y="99"/>
      <point x="157" y="85"/>
      <point x="177" y="85" type="curve" smooth="yes"/>
      <point x="201" y="85"/>
      <point x="204" y="99"/>
      <point x="204" y="116" type="curve" smooth="yes"/>
      <point x="204" y="132"/>
      <point x="201" y="147"/>
      <point x="177" y="147" type="curve" smooth="yes"/>
      <point x="157" y="147"/>
      <point x="152" y="132"/>
    </contour>
  </outline>
</glyph>
<glyph name="quotedbl" format="2">
  <advance width="400"/>
  <unicode hex="0022"/>
  <outline>
    <contour>
      <point x="124" y="564" type="line"/>
      <point x="147" y="564" type="line"/>
      <point x="150" y="822" type="line"/>
      <point x="121" y="822" type="line"/>
    </contour>
    <contour>
      <point x="270" y="564" type="line"/>
      <point x="293" y="564" type="line"/>
      <point x="296" y="822" type="line"/>
      <point x="267" y="822" type="line"/>
    </contour>
  </outline>
</glyph>
<glyph name="percent" format="2">
  <advance width="793"/>
  <unicode hex="0025"/>
  <outline>
    <contour>
      <point x="609" y="715" type="line"/>
      <point x="577" y="715" type="line"/>
      <point x="185" y="93" type="line"/>
      <point x="216" y="93" type="line"/>
    </contour>
    <contour>
      <point x="195" y="369" type="curve"/>
      <point x="195" y="369" type="line"/>
      <point x="281" y="369"/>
      <point x="333" y="432"/>
      <point x="333" y="548" type="curve"/>
      <point x="333" y="659"/>
      <point x="289" y="725"/>
      <point x="197" y="725" type="curve"/>
      <point x="112" y="725"/>
      <point x="59" y="661"/>
      <point x="59" y="548" type="curve"/>
      <point x="59" y="434"/>
      <point x="107" y="369"/>
    </contour>
    <contour>
      <point x="195" y="394" type="curve"/>
      <point x="195" y="394" type="line"/>
      <point x="125" y="394"/>
      <point x="86" y="446"/>
      <point x="86" y="548" type="curve"/>
      <point x="86" y="650"/>
      <point x="127" y="700"/>
      <point x="197" y="700" type="curve"/>
      <point x="273" y="700"/>
      <point x="306" y="646"/>
      <point x="306" y="548" type="curve"/>
      <point x="306" y="448"/>
      <point x="269" y="394"/>
    </contour>
    <contour>
      <point x="596" y="83" type="curve"/>
      <point x="596" y="83" type="line"/>
      <point x="682" y="83"/>
      <point x="734" y="146"/>
      <point x="734" y="262" type="curve"/>
      <point x="734" y="373"/>
      <point x="690" y="439"/>
      <point x="598" y="439" type="curve"/>
      <point x="513" y="439"/>
      <point x="460" y="375"/>
      <point x="460" y="262" type="curve"/>
      <point x="460" y="148"/>
      <point x="508" y="83"/>
    </contour>
    <contour>
      <point x="596" y="108" type="curve"/>
      <point x="596" y="108" type="line"/>
      <point x="526" y="108"/>
      <point x="487" y="160"/>
      <point x="487" y="262" type="curve"/>
      <point x="487" y="364"/>
      <point x="528" y="414"/>
      <point x="598" y="414" type="curve"/>
      <point x="674" y="414"/>
      <point x="707" y="360"/>
      <point x="707" y="262" type="curve"/>
      <point x="707" y="162"/>
      <point x="670" y="108"/>
    </contour>
  </outline>
</glyph>
<glyph name="quotesingle" format="2">
  <advance width="254"/>
  <unicode hex="0027"/>
  <outline>
    <contour>
      <point x="121" y="822" type="line"/>
      <point x="124" y="564" type="line"/>
      <point x="147" y="564" type="line"/>
      <point x="150" y="822" type="line"/>
    </contour>
  </outline>
</glyph>
<glyph name="parenleft" format="2">
  <advance width="323"/>
  <unicode hex="0028"/>
  <outline>
    <contour>
      <point x="226" y="-72" type="curve"/>
      <point x="256" y="-72" type="line"/>
      <point x="159" y="64"/>
      <point x="105" y="233"/>
      <point x="105" y="423" type="curve" smooth="yes"/>
      <point x="105" y="615"/>
      <point x="159" y="789"/>
      <point x="256" y="925" type="curve"/>
      <point x="226" y="925" type="line"/>
      <point x="137" y="802"/>
      <point x="78" y="624"/>
      <point x="78" y="422" type="curve" smooth="yes"/>
      <point x="78" y="222"/>
      <point x="137" y="56"/>
    </contour>
  </outline>
</glyph>
<glyph name="parenright" format="2">
  <advance width="323"/>
  <unicode hex="0029"/>
  <outline>
    <contour>
      <point x="67" y="-72" type="curve"/>
      <point x="97" y="-72" type="line"/>
      <point x="186" y="51"/>
      <point x="245" y="229"/>
      <point x="245" y="431" type="curve" smooth="yes"/>
      <point x="245" y="631"/>
      <point x="186" y="797"/>
      <point x="97" y="925" type="curve"/>
      <point x="67" y="925" type="line"/>
      <point x="164" y="789"/>
      <point x="218" y="620"/>
      <point x="218" y="430" type="curve" smooth="yes"/>
      <point x="218" y="238"/>
      <point x="164" y="64"/>
    </contour>
  </outline>
</glyph>
<glyph name="asterisk" format="2">
  <advance width="561"/>
  <unicode hex="002A"/>
  <outline>
    <contour>
      <point x="269" y="616" type="line"/>
      <point x="148" y="454" type="line"/>
      <point x="171" y="438" type="line"/>
      <point x="286" y="605" type="line"/>
      <point x="402" y="437" type="line"/>
      <point x="425" y="454" type="line"/>
      <point x="303" y="616" type="line"/>
      <point x="496" y="674" type="line"/>
      <point x="488" y="701" type="line"/>
      <point x="297" y="635" type="line"/>
      <point x="300" y="838" type="line"/>
      <point x="272" y="838" type="line"/>
      <point x="275" y="635" type="line"/>
      <point x="84" y="701" type="line"/>
      <point x="75" y="674" type="line"/>
    </contour>
  </outline>
</glyph>
<glyph name="comma" format="2">
  <advance width="208"/>
  <unicode hex="002C"/>
  <outline>
    <contour>
      <point x="47" y="-36" type="curve"/>
      <point x="69" y="-36" type="line"/>
      <point x="97" y="33"/>
      <point x="119" y="123"/>
      <point x="134" y="197" type="curve"/>
      <point x="131" y="209" type="line"/>
      <point x="103" y="209" type="line"/>
      <point x="92" y="133"/>
      <point x="76" y="61"/>
    </contour>
  </outline>
</glyph>
<glyph name="period" format="2">
  <advance width="208"/>
  <unicode hex="002E"/>
  <outline>
    <contour>
      <point x="78" y="116" type="curve" smooth="yes"/>
      <point x="78" y="99"/>
      <point x="83" y="85"/>
      <point x="103" y="85" type="curve" smooth="yes"/>
      <point x="127" y="85"/>
      <point x="130" y="99"/>
      <point x="130" y="116" type="curve" smooth="yes"/>
      <point x="130" y="132"/>
      <point x="127" y="147"/>
      <point x="103" y="147" type="curve" smooth="yes"/>
      <point x="83" y="147"/>
      <point x="78" y="132"/>
    </contour>
  </outline>
</glyph>
<glyph name="slash" format="2">
  <advance width="386"/>
  <unicode hex="002F"/>
  <outline>
    <contour>
      <point x="311" y="926" type="line"/>
      <point x="48" y="-73" type="line"/>
      <point x="75" y="-73" type="line"/>
      <point x="338" y="926" type="line"/>
    </contour>
  </outline>
</glyph>
<glyph name="zero" format="2">
  <advance width="551"/>
  <unicode hex="0030"/>
  <outline>
    <contour>
      <point x="275" y="83" type="curve" smooth="yes"/>
      <point x="427" y="83"/>
      <point x="487" y="214"/>
      <point x="487" y="451" type="curve" smooth="yes"/>
      <point x="487" y="688"/>
      <point x="416" y="817"/>
      <point x="275" y="817" type="curve" smooth="yes"/>
      <point x="125" y="817"/>
      <point x="65" y="687"/>
      <point x="65" y="451" type="curve" smooth="yes"/>
      <point x="65" y="213"/>
      <point x="136" y="83"/>
    </contour>
    <contour>
      <point x="275" y="109" type="curve" smooth="yes"/>
      <point x="145" y="109"/>
      <point x="92" y="231"/>
      <point x="92" y="451" type="curve" smooth="yes"/>
      <point x="92" y="672"/>
      <point x="142" y="791"/>
      <point x="275" y="791" type="curve" smooth="yes"/>
      <point x="407" y="791"/>
      <point x="460" y="670"/>
      <point x="460" y="451" type="curve" smooth="yes"/>
      <point x="460" y="229"/>
      <point x="410" y="109"/>
    </contour>
  </outline>
</glyph>
<glyph name="one" format="2">
  <advance width="551"/>
  <unicode hex="0031"/>
  <outline>
    <contour>
      <point x="297" y="656" type="curve"/>
      <point x="297" y="93" type="line"/>
      <point x="323" y="93" type="line"/>
      <point x="323" y="807" type="line"/>
      <point x="300" y="807" type="line"/>
      <point x="105" y="665" type="line"/>
      <point x="121" y="644" type="line"/>
      <point x="244" y="735" type="line" smooth="yes"/>
      <point x="269" y="754"/>
      <point x="282" y="764"/>
      <point x="298" y="778" type="curve"/>
      <point x="297" y="751"/>
      <point x="297" y="713"/>
    </contour>
  </outline>
</glyph>
<glyph name="two" format="2">
  <advance width="551"/>
  <unicode hex="0032"/>
  <outline>
    <contour>
      <point x="52" y="117" type="line"/>
      <point x="52" y="93" type="line"/>
      <point x="484" y="93" type="line"/>
      <point x="484" y="119" type="line"/>
      <point x="88" y="119" type="line"/>
      <point x="88" y="120" type="line"/>
      <point x="296" y="340" type="line" smooth="yes"/>
      <point x="393" y="442"/>
      <point x="451" y="512"/>
      <point x="451" y="632" type="curve" smooth="yes"/>
      <point x="451" y="745"/>
      <point x="378" y="817"/>
      <point x="263" y="817" type="curve" smooth="yes"/>
      <point x="201" y="817"/>
      <point x="134" y="798"/>
      <point x="73" y="748" type="curve"/>
      <point x="88" y="727" type="line"/>
      <point x="141" y="770"/>
      <point x="204" y="791"/>
      <point x="261" y="791" type="curve" smooth="yes"/>
      <point x="363" y="791"/>
      <point x="424" y="732"/>
      <point x="424" y="632" type="curve" smooth="yes"/>
      <point x="424" y="521"/>
      <point x="373" y="456"/>
      <point x="276" y="354" type="curve" smooth="yes"/>
    </contour>
  </outline>
</glyph>
<glyph name="three" format="2">
  <advance width="551"/>
  <unicode hex="0033"/>
  <outline>
    <contour>
      <point x="229" y="83" type="curve"/>
      <point x="229" y="83" type="line"/>
      <point x="389" y="83"/>
      <point x="466" y="163"/>
      <point x="466" y="287" type="curve"/>
      <point x="466" y="385"/>
      <point x="401" y="453"/>
      <point x="291" y="464" type="curve"/>
      <point x="291" y="465" type="line"/>
      <point x="376" y="483"/>
      <point x="443" y="538"/>
      <point x="443" y="643" type="curve"/>
      <point x="443" y="735"/>
      <point x="383" y="817"/>
      <point x="254" y="817" type="curve"/>
      <point x="169" y="817"/>
      <point x="109" y="785"/>
      <point x="50" y="750" type="curve"/>
      <point x="65" y="727" type="line"/>
      <point x="129" y="768"/>
      <point x="181" y="791"/>
      <point x="255" y="791" type="curve"/>
      <point x="343" y="791"/>
      <point x="416" y="746"/>
      <point x="416" y="641" type="curve"/>
      <point x="416" y="543"/>
      <point x="347" y="477"/>
      <point x="207" y="477" type="curve"/>
      <point x="150" y="477" type="line"/>
      <point x="150" y="451" type="line"/>
      <point x="208" y="451" type="line" smooth="yes"/>
      <point x="335" y="451"/>
      <point x="439" y="409"/>
      <point x="439" y="286" type="curve"/>
      <point x="439" y="170"/>
      <point x="367" y="109"/>
      <point x="227" y="109" type="curve"/>
      <point x="149" y="109"/>
      <point x="96" y="121"/>
      <point x="42" y="149" type="curve"/>
      <point x="42" y="120" type="line"/>
      <point x="95" y="94"/>
      <point x="159" y="83"/>
    </contour>
  </outline>
</glyph>
<glyph name="four" format="2">
  <advance width="551"/>
  <unicode hex="0034"/>
  <outline>
    <contour>
      <point x="25" y="286" type="line"/>
      <point x="377" y="286" type="line"/>
      <point x="377" y="93" type="line"/>
      <point x="404" y="93" type="line"/>
      <point x="404" y="286" type="line"/>
      <point x="527" y="286" type="line"/>
      <point x="527" y="312" type="line"/>
      <point x="404" y="312" type="line"/>
      <point x="404" y="814" type="line"/>
      <point x="375" y="814" type="line"/>
      <point x="25" y="307" type="line"/>
    </contour>
    <contour>
      <point x="378" y="541" type="curve"/>
      <point x="378" y="312" type="line"/>
      <point x="60" y="312" type="line"/>
      <point x="333" y="707" type="line" smooth="yes"/>
      <point x="353" y="736"/>
      <point x="367" y="758"/>
      <point x="380" y="783" type="curve"/>
      <point x="382" y="782" type="line"/>
      <point x="378" y="720"/>
      <point x="378" y="670"/>
    </contour>
  </outline>
</glyph>
<glyph name="five" format="2">
  <advance width="551"/>
  <unicode hex="0035"/>
  <outline>
    <contour>
      <point x="254" y="83" type="curve"/>
      <point x="254" y="83" type="line"/>
      <point x="406" y="83"/>
      <point x="481" y="167"/>
      <point x="481" y="313" type="curve"/>
      <point x="481" y="444"/>
      <point x="393" y="519"/>
      <point x="259" y="519" type="curve"/>
      <point x="203" y="519"/>
      <point x="153" y="510"/>
      <point x="117" y="500" type="curve"/>
      <point x="140" y="781" type="line"/>
      <point x="426" y="781" type="line"/>
      <point x="426" y="807" type="line"/>
      <point x="116" y="807" type="line"/>
      <point x="89" y="486" type="line"/>
      <point x="111" y="472" type="line"/>
      <point x="163" y="486"/>
      <point x="203" y="493"/>
      <point x="257" y="493" type="curve"/>
      <point x="375" y="493"/>
      <point x="454" y="436"/>
      <point x="454" y="308" type="curve"/>
      <point x="454" y="174"/>
      <point x="378" y="109"/>
      <point x="257" y="109" type="curve"/>
      <point x="182" y="109"/>
      <point x="123" y="126"/>
      <point x="72" y="159" type="curve"/>
      <point x="72" y="128" type="line"/>
      <point x="118" y="100"/>
      <point x="187" y="83"/>
    </contour>
  </outline>
</glyph>
<glyph name="six" format="2">
  <advance width="551"/>
  <unicode hex="0036"/>
  <outline>
    <contour>
      <point x="291" y="83" type="curve"/>
      <point x="291" y="83" type="line"/>
      <point x="414" y="83"/>
      <point x="492" y="171"/>
      <point x="492" y="314" type="curve"/>
      <point x="492" y="433"/>
      <point x="421" y="520"/>
      <point x="297" y="520" type="curve"/>
      <point x="205" y="520"/>
      <point x="140" y="472"/>
      <point x="105" y="412" type="curve"/>
      <point x="103" y="412" type="line"/>
      <point x="108" y="622"/>
      <point x="169" y="791"/>
      <point x="367" y="791" type="curve"/>
      <point x="395" y="791"/>
      <point x="426" y="789"/>
      <point x="448" y="781" type="curve"/>
      <point x="448" y="809" type="line"/>
      <point x="429" y="814"/>
      <point x="395" y="817"/>
      <point x="372" y="817" type="curve"/>
      <point x="134" y="817"/>
      <point x="77" y="605"/>
      <point x="77" y="393" type="curve"/>
      <point x="77" y="181"/>
      <point x="162" y="83"/>
    </contour>
    <contour>
      <point x="292" y="109" type="curve"/>
      <point x="292" y="109" type="line"/>
      <point x="166" y="109"/>
      <point x="106" y="220"/>
      <point x="106" y="350" type="curve"/>
      <point x="106" y="406"/>
      <point x="172" y="494"/>
      <point x="295" y="494" type="curve"/>
      <point x="405" y="494"/>
      <point x="465" y="418"/>
      <point x="465" y="314" type="curve"/>
      <point x="465" y="179"/>
      <point x="397" y="109"/>
    </contour>
  </outline>
</glyph>
<glyph name="seven" format="2">
  <advance width="551"/>
  <unicode hex="0037"/>
  <outline>
    <contour>
      <point x="56" y="781" type="line"/>
      <point x="461" y="781" type="line"/>
      <point x="168" y="93" type="line"/>
      <point x="198" y="93" type="line"/>
      <point x="491" y="785" type="line"/>
      <point x="491" y="807" type="line"/>
      <point x="56" y="807" type="line"/>
    </contour>
  </outline>
</glyph>
<glyph name="eight" format="2">
  <advance width="551"/>
  <unicode hex="0038"/>
  <outline>
    <contour>
      <point x="272" y="83" type="curve" smooth="yes"/>
      <point x="401" y="83"/>
      <point x="486" y="149"/>
      <point x="486" y="258" type="curve" smooth="yes"/>
      <point x="486" y="361"/>
      <point x="398" y="425"/>
      <point x="303" y="470" type="curve"/>
      <point x="392" y="511"/>
      <point x="466" y="554"/>
      <point x="466" y="652" type="curve" smooth="yes"/>
      <point x="466" y="761"/>
      <point x="385" y="817"/>
      <point x="279" y="817" type="curve" smooth="yes"/>
      <point x="179" y="817"/>
      <point x="92" y="757"/>
      <point x="92" y="653" type="curve" smooth="yes"/>
      <point x="92" y="564"/>
      <point x="157" y="516"/>
      <point x="245" y="470" type="curve"/>
      <point x="140" y="427"/>
      <point x="66" y="363"/>
      <point x="66" y="262" type="curve" smooth="yes"/>
      <point x="66" y="156"/>
      <point x="139" y="83"/>
    </contour>
    <contour>
      <point x="273" y="109" type="curve" smooth="yes"/>
      <point x="157" y="109"/>
      <point x="93" y="169"/>
      <point x="93" y="263" type="curve" smooth="yes"/>
      <point x="93" y="350"/>
      <point x="153" y="409"/>
      <point x="270" y="458" type="curve"/>
      <point x="397" y="404"/>
      <point x="459" y="337"/>
      <point x="459" y="255" type="curve" smooth="yes"/>
      <point x="459" y="167"/>
      <point x="392" y="109"/>
    </contour>
    <contour>
      <point x="273" y="482" type="curve"/>
      <point x="169" y="535"/>
      <point x="119" y="573"/>
      <point x="119" y="653" type="curve" smooth="yes"/>
      <point x="119" y="743"/>
      <point x="196" y="791"/>
      <point x="278" y="791" type="curve" smooth="yes"/>
      <point x="368" y="791"/>
      <point x="439" y="746"/>
      <point x="439" y="650" type="curve" smooth="yes"/>
      <point x="439" y="560"/>
      <point x="366" y="524"/>
    </contour>
  </outline>
</glyph>
<glyph name="nine" format="2">
  <advance width="551"/>
  <unicode hex="0039"/>
  <outline>
    <contour>
      <point x="183" y="83" type="curve" smooth="yes"/>
      <point x="421" y="83"/>
      <point x="474" y="292"/>
      <point x="474" y="507" type="curve" smooth="yes"/>
      <point x="474" y="719"/>
      <point x="389" y="817"/>
      <point x="260" y="817" type="curve"/>
      <point x="135" y="817"/>
      <point x="59" y="728"/>
      <point x="59" y="586" type="curve" smooth="yes"/>
      <point x="59" y="468"/>
      <point x="130" y="380"/>
      <point x="254" y="380" type="curve" smooth="yes"/>
      <point x="346" y="380"/>
      <point x="411" y="428"/>
      <point x="446" y="488" type="curve"/>
      <point x="448" y="488" type="line"/>
      <point x="443" y="275"/>
      <point x="386" y="109"/>
      <point x="188" y="109" type="curve" smooth="yes"/>
      <point x="160" y="109"/>
      <point x="129" y="111"/>
      <point x="107" y="119" type="curve"/>
      <point x="107" y="91" type="line"/>
      <point x="126" y="86"/>
      <point x="160" y="83"/>
    </contour>
    <contour>
      <point x="256" y="406" type="curve" smooth="yes"/>
      <point x="146" y="406"/>
      <point x="86" y="482"/>
      <point x="86" y="586" type="curve" smooth="yes"/>
      <point x="86" y="722"/>
      <point x="154" y="791"/>
      <point x="259" y="791" type="curve"/>
      <point x="385" y="791"/>
      <point x="445" y="680"/>
      <point x="445" y="550" type="curve" smooth="yes"/>
      <point x="445" y="494"/>
      <point x="379" y="406"/>
    </contour>
  </outline>
</glyph>
<glyph name="question" format="2">
  <advance width="480"/>
  <unicode hex="003F"/>
  <outline>
    <contour>
      <point x="177" y="267" type="line"/>
      <point x="203" y="267" type="line"/>
      <point x="203" y="279" type="line" smooth="yes"/>
      <point x="203" y="370"/>
      <point x="223" y="407"/>
      <point x="275" y="443" type="curve" smooth="yes"/>
      <point x="354" y="498"/>
      <point x="407" y="547"/>
      <point x="407" y="647" type="curve" smooth="yes"/>
      <point x="407" y="761"/>
      <point x="333" y="817"/>
      <point x="225" y="817" type="curve" smooth="yes"/>
      <point x="163" y="817"/>
      <point x="121" y="801"/>
      <point x="71" y="778" type="curve"/>
      <point x="81" y="752" type="line"/>
      <point x="130" y="778"/>
      <point x="172" y="791"/>
      <point x="226" y="791" type="curve" smooth="yes"/>
      <point x="314" y="791"/>
      <point x="380" y="747"/>
      <point x="380" y="647" type="curve" smooth="yes"/>
      <point x="380" y="556"/>
      <point x="334" y="515"/>
      <point x="262" y="464" type="curve" smooth="yes"/>
      <point x="193" y="415"/>
      <point x="177" y="378"/>
      <point x="177" y="279" type="curve" smooth="yes"/>
    </contour>
    <contour>
      <point x="166" y="116" type="curve" smooth="yes"/>
      <point x="166" y="99"/>
      <point x="171" y="85"/>
      <point x="191" y="85" type="curve" smooth="yes"/>
      <point x="215" y="85"/>
      <point x="218" y="99"/>
      <point x="218" y="116" type="curve" smooth="yes"/>
      <point x="218" y="132"/>
      <point x="215" y="147"/>
      <point x="191" y="147" type="curve" smooth="yes"/>
      <point x="171" y="147"/>
      <point x="166" y="132"/>
    </contour>
  </outline>
</glyph>
<glyph name="bracketleft" format="2">
  <advance width="321"/>
  <unicode hex="005B"/>
  <outline>
    <contour>
      <point x="112" y="925" type="line"/>
      <point x="112" y="-73" type="line"/>
      <point x="261" y="-73" type="line"/>
      <point x="261" y="-47" type="line"/>
      <point x="138" y="-47" type="line"/>
      <point x="138" y="899" type="line"/>
      <point x="261" y="899" type="line"/>
      <point x="261" y="925" type="line"/>
    </contour>
  </outline>
</glyph>
<glyph name="backslash" format="2">
  <advance width="384"/>
  <unicode hex="005C"/>
  <outline>
    <contour>
      <point x="48" y="926" type="line"/>
      <point x="309" y="-73" type="line"/>
      <point x="336" y="-73" type="line"/>
      <point x="75" y="926" type="line"/>
    </contour>
  </outline>
</glyph>
<glyph name="bracketright" format="2">
  <advance width="321"/>
  <unicode hex="005D"/>
  <outline>
    <contour>
      <point x="60" y="-47" type="line"/>
      <point x="60" y="-73" type="line"/>
      <point x="209" y="-73" type="line"/>
      <point x="209" y="925" type="line"/>
      <point x="60" y="925" type="line"/>
      <point x="60" y="899" type="line"/>
      <point x="183" y="899" type="line"/>
      <point x="183" y="-47" type="line"/>
    </contour>
  </outline>
</glyph>
<glyph name="multiply" format="2">
  <advance width="551"/>
  <unicode hex="00D7"/>
  <outline>
    <contour>
      <point x="108" y="229" type="line"/>
      <point x="275" y="396" type="line"/>
      <point x="442" y="229" type="line"/>
      <point x="459" y="246" type="line"/>
      <point x="292" y="413" type="line"/>
      <point x="459" y="580" type="line"/>
      <point x="442" y="597" type="line"/>
      <point x="275" y="430" type="line"/>
      <point x="108" y="597" type="line"/>
      <point x="91" y="580" type="line"/>
      <point x="258" y="413" type="line"/>
      <point x="91" y="246" type="line"/>
    </contour>
  </outline>
</glyph>
<glyph name="candraBindu-oriya" format="2">
  <unicode hex="0B01"/>
  <note>
candrabinduorya
</note>
  <anchor x="400" y="751" name="_topright"/>
  <outline>
    <contour>
      <point x="399" y="797" type="curve" smooth="yes"/>
      <point x="497" y="797"/>
      <point x="562" y="859"/>
      <point x="573" y="963" type="curve"/>
      <point x="547" y="966" type="line"/>
      <point x="536" y="874"/>
      <point x="481" y="820"/>
      <point x="398" y="820" type="curve" smooth="yes"/>
      <point x="317" y="820"/>
      <point x="263" y="874"/>
      <point x="254" y="966" type="curve"/>
      <point x="228" y="963" type="line"/>
      <point x="238" y="859"/>
      <point x="302" y="797"/>
    </contour>
    <contour>
      <point x="399" y="909" type="curve" smooth="yes"/>
      <point x="412" y="909"/>
      <point x="422" y="919"/>
      <point x="422" y="932" type="curve" smooth="yes"/>
      <point x="422" y="946"/>
      <point x="411" y="956"/>
      <point x="399" y="956" type="curve" smooth="yes"/>
      <point x="386" y="956"/>
      <point x="375" y="946"/>
      <point x="375" y="932" type="curve" smooth="yes"/>
      <point x="375" y="919"/>
      <point x="385" y="909"/>
    </contour>
  </outline>
</glyph>
<glyph name="anusvara-oriya" format="2">
  <advance width="283"/>
  <unicode hex="0B02"/>
  <note>
anusvaraorya
</note>
  <outline>
    <contour>
      <point x="142" y="521" type="curve" smooth="yes"/>
      <point x="213" y="521"/>
      <point x="263" y="568"/>
      <point x="263" y="638" type="curve" smooth="yes"/>
      <point x="263" y="709"/>
      <point x="211" y="759"/>
      <point x="141" y="759" type="curve" smooth="yes"/>
      <point x="70" y="759"/>
      <point x="20" y="709"/>
      <point x="20" y="641" type="curve" smooth="yes"/>
      <point x="20" y="568"/>
      <point x="71" y="521"/>
    </contour>
    <contour>
      <point x="141" y="735" type="curve" smooth="yes"/>
      <point x="196" y="735"/>
      <point x="237" y="695"/>
      <point x="237" y="639" type="curve" smooth="yes"/>
      <point x="237" y="585"/>
      <point x="196" y="546"/>
      <point x="141" y="546" type="curve" smooth="yes"/>
      <point x="88" y="546"/>
      <point x="46" y="583"/>
      <point x="46" y="640" type="curve" smooth="yes"/>
      <point x="46" y="693"/>
      <point x="84" y="735"/>
    </contour>
  </outline>
</glyph>
<glyph name="lVocalic-oriya" format="2">
  <advance width="574"/>
  <unicode hex="0B0C"/>
  <note>
lvocalicorya
</note>
  <guideline x="432" y="423" angle="90"/>
  <anchor x="268" y="751" name="topright"/>
  <outline>
    <contour>
      <point x="68" y="274" type="curve" smooth="yes"/>
      <point x="68" y="370"/>
      <point x="142" y="395"/>
      <point x="230" y="423" type="curve" smooth="yes"/>
      <point x="286" y="441" type="line" smooth="yes"/>
      <point x="343" y="459"/>
      <point x="432" y="489"/>
      <point x="432" y="606" type="curve" smooth="yes"/>
      <point x="432" y="704"/>
      <point x="370" y="759"/>
      <point x="268" y="759" type="curve" smooth="yes"/>
      <point x="162" y="759"/>
      <point x="100" y="699"/>
      <point x="100" y="599" type="curve" smooth="yes"/>
      <point x="100" y="565"/>
      <point x="108" y="537"/>
      <point x="121" y="509" type="curve"/>
      <point x="196" y="541" type="line"/>
      <point x="167" y="486" type="line"/>
      <point x="135" y="529"/>
      <point x="126" y="567"/>
      <point x="126" y="601" type="curve" smooth="yes"/>
      <point x="126" y="684"/>
      <point x="178" y="736"/>
      <point x="269" y="736" type="curve" smooth="yes"/>
      <point x="354" y="736"/>
      <point x="406" y="690"/>
      <point x="406" y="603" type="curve" smooth="yes"/>
      <point x="406" y="502"/>
      <point x="335" y="481"/>
      <point x="274" y="462" type="curve" smooth="yes"/>
      <point x="229" y="448" type="line" smooth="yes"/>
      <point x="147" y="422"/>
      <point x="42" y="396"/>
      <point x="42" y="272" type="curve" smooth="yes"/>
      <point x="42" y="163"/>
      <point x="123" y="85"/>
      <point x="294" y="85" type="curve" smooth="yes"/>
      <point x="447" y="85"/>
      <point x="536" y="147"/>
      <point x="536" y="250" type="curve" smooth="yes"/>
      <point x="536" y="328"/>
      <point x="486" y="375"/>
      <point x="404" y="375" type="curve" smooth="yes"/>
      <point x="317" y="375"/>
      <point x="268" y="322"/>
      <point x="268" y="244" type="curve" smooth="yes"/>
      <point x="268" y="198"/>
      <point x="287" y="142"/>
      <point x="345" y="92" type="curve"/>
      <point x="375" y="94" type="line"/>
      <point x="317" y="144"/>
      <point x="294" y="197"/>
      <point x="294" y="244" type="curve" smooth="yes"/>
      <point x="294" y="305"/>
      <point x="333" y="351"/>
      <point x="404" y="351" type="curve" smooth="yes"/>
      <point x="470" y="351"/>
      <point x="510" y="312"/>
      <point x="510" y="249" type="curve" smooth="yes"/>
      <point x="510" y="159"/>
      <point x="427" y="109"/>
      <point x="297" y="109" type="curve" smooth="yes"/>
      <point x="149" y="109"/>
      <point x="68" y="174"/>
    </contour>
  </outline>
</glyph>
<glyph name="e-oriya" format="2">
  <advance width="654"/>
  <unicode hex="0B0F"/>
  <note>
eorya
</note>
  <anchor x="571" y="751" name="topright"/>
  <outline>
    <contour>
      <point x="313" y="510" type="curve"/>
      <point x="327" y="494" type="line"/>
      <point x="327" y="609"/>
      <point x="424" y="727"/>
      <point x="573" y="727" type="curve"/>
      <point x="558" y="736" type="line"/>
      <point x="558" y="105" type="line"/>
      <point x="577" y="108" type="line"/>
      <point x="370" y="255"/>
      <point x="176" y="426"/>
      <point x="2" y="604" type="curve"/>
      <point x="46" y="609" type="line"/>
      <point x="-28" y="539" type="line"/>
      <point x="-17" y="586" type="line"/>
      <point x="150" y="414"/>
      <point x="343" y="244"/>
      <point x="556" y="93" type="curve"/>
      <point x="584" y="93" type="line"/>
      <point x="584" y="751" type="line"/>
      <point x="567" y="751" type="line" smooth="yes"/>
      <point x="387" y="751"/>
      <point x="301" y="598"/>
      <point x="301" y="508" type="curve" smooth="yes"/>
      <point x="301" y="470"/>
      <point x="318" y="444"/>
      <point x="344" y="444" type="curve" smooth="yes"/>
      <point x="365" y="444"/>
      <point x="379" y="458"/>
      <point x="379" y="480" type="curve" smooth="yes"/>
      <point x="379" y="499"/>
      <point x="366" y="519"/>
      <point x="339" y="519" type="curve" smooth="yes"/>
      <point x="329" y="519"/>
      <point x="320" y="516"/>
    </contour>
  </outline>
</glyph>
<glyph name="ka-oriya" format="2">
  <advance width="717"/>
  <unicode hex="0B15"/>
  <note>
kaorya
</note>
  <anchor x="517" y="93" name="bottom"/>
  <anchor x="543" y="93" name="bottom_ra"/>
  <anchor x="543" y="103" name="bottom_ta"/>
  <anchor x="350" y="751" name="top"/>
  <anchor x="614" y="751" name="topright"/>
  <outline>
    <contour>
      <point x="140" y="311" type="curve"/>
      <point x="147" y="337" type="line"/>
      <point x="91" y="392"/>
      <point x="64" y="446"/>
      <point x="64" y="510" type="curve" smooth="yes"/>
      <point x="64" y="644"/>
      <point x="184" y="735"/>
      <point x="349" y="735" type="curve" smooth="yes"/>
      <point x="503" y="735"/>
      <point x="653" y="655"/>
      <point x="653" y="496" type="curve" smooth="yes"/>
      <point x="653" y="432"/>
      <point x="629" y="379"/>
      <point x="590" y="337" type="curve"/>
      <point x="586" y="350" type="line"/>
      <point x="624" y="320" type="line"/>
      <point x="610" y="321" type="line"/>
      <point x="653" y="367"/>
      <point x="679" y="426"/>
      <point x="679" y="496" type="curve" smooth="yes"/>
      <point x="679" y="671"/>
      <point x="517" y="759"/>
      <point x="350" y="759" type="curve" smooth="yes"/>
      <point x="168" y="759"/>
      <point x="38" y="655"/>
      <point x="38" y="510" type="curve" smooth="yes"/>
      <point x="38" y="436"/>
      <point x="71" y="372"/>
    </contour>
    <contour>
      <point x="239" y="177" type="curve" smooth="yes"/>
      <point x="308" y="177"/>
      <point x="353" y="233"/>
      <point x="353" y="309" type="curve" smooth="yes"/>
      <point x="353" y="383"/>
      <point x="309" y="439"/>
      <point x="240" y="439" type="curve" smooth="yes"/>
      <point x="170" y="439"/>
      <point x="122" y="383"/>
      <point x="122" y="309" type="curve" smooth="yes"/>
      <point x="122" y="233"/>
      <point x="169" y="177"/>
    </contour>
    <contour>
      <point x="239" y="201" type="curve" smooth="yes"/>
      <point x="184" y="201"/>
      <point x="148" y="247"/>
      <point x="148" y="308" type="curve" smooth="yes"/>
      <point x="148" y="368"/>
      <point x="184" y="415"/>
      <point x="240" y="415" type="curve" smooth="yes"/>
      <point x="293" y="415"/>
      <point x="330" y="368"/>
      <point x="330" y="309" type="curve" smooth="yes"/>
      <point x="330" y="248"/>
      <point x="294" y="201"/>
    </contour>
    <contour>
      <point x="330" y="93" type="line"/>
      <point x="356" y="93" type="line"/>
      <point x="356" y="312" type="line" smooth="yes"/>
      <point x="356" y="377"/>
      <point x="385" y="416"/>
      <point x="437" y="416" type="curve" smooth="yes"/>
      <point x="487" y="416"/>
      <point x="517" y="378"/>
      <point x="517" y="312" type="curve" smooth="yes"/>
      <point x="517" y="93" type="line"/>
      <point x="543" y="93" type="line"/>
      <point x="543" y="313" type="line" smooth="yes"/>
      <point x="543" y="394"/>
      <point x="505" y="440"/>
      <point x="438" y="440" type="curve" smooth="yes"/>
      <point x="371" y="440"/>
      <point x="334" y="394"/>
      <point x="334" y="313" type="curve"/>
      <point x="330" y="254" type="line"/>
    </contour>
  </outline>
</glyph>
<glyph name="ttha-oriya" format="2">
  <advance width="729"/>
  <unicode hex="0B20"/>
  <note>
tthaorya
</note>
  <guideline x="691" y="742" angle="90"/>
  <anchor x="366" y="93" name="bottom"/>
  <anchor x="609" y="93" name="bottom_ra"/>
  <anchor x="368" y="751" name="top"/>
  <anchor x="621" y="751" name="topright"/>
  <outline>
    <contour>
      <point x="366" y="86" type="curve" smooth="yes"/>
      <point x="561" y="86"/>
      <point x="691" y="220"/>
      <point x="691" y="420" type="curve" smooth="yes"/>
      <point x="691" y="623"/>
      <point x="562" y="759"/>
      <point x="368" y="759" type="curve" smooth="yes"/>
      <point x="170" y="759"/>
      <point x="38" y="623"/>
      <point x="38" y="420" type="curve" smooth="yes"/>
      <point x="38" y="220"/>
      <point x="169" y="86"/>
    </contour>
    <contour>
      <point x="366" y="110" type="curve" smooth="yes"/>
      <point x="185" y="110"/>
      <point x="64" y="234"/>
      <point x="64" y="420" type="curve" smooth="yes"/>
      <point x="64" y="609"/>
      <point x="186" y="735"/>
      <point x="370" y="735" type="curve" smooth="yes"/>
      <point x="547" y="735"/>
      <point x="665" y="611"/>
      <point x="665" y="425" type="curve" smooth="yes"/>
      <point x="665" y="236"/>
      <point x="545" y="110"/>
    </contour>
  </outline>
</glyph>
<glyph name="nna-oriya" format="2">
  <advance width="708"/>
  <unicode hex="0B23"/>
  <note>
nnaorya
</note>
  <anchor x="612" y="93" name="bottom"/>
  <anchor x="638" y="93" name="bottom_ra"/>
  <anchor x="359" y="751" name="top"/>
  <anchor x="625" y="751" name="topright"/>
  <outline>
    <contour>
      <point x="38" y="324" type="curve" smooth="yes"/>
      <point x="38" y="159"/>
      <point x="171" y="85"/>
      <point x="291" y="85" type="curve" smooth="yes"/>
      <point x="389" y="85"/>
      <point x="478" y="135"/>
      <point x="478" y="225" type="curve" smooth="yes"/>
      <point x="478" y="317"/>
      <point x="397" y="372"/>
      <point x="260" y="372" type="curve" smooth="yes"/>
      <point x="193" y="372"/>
      <point x="121" y="358"/>
      <point x="60" y="331" type="curve"/>
      <point x="61" y="306" type="line"/>
      <point x="119" y="332"/>
      <point x="194" y="348"/>
      <point x="263" y="348" type="curve" smooth="yes"/>
      <point x="382" y="348"/>
      <point x="452" y="303"/>
      <point x="452" y="226" type="curve" smooth="yes"/>
      <point x="452" y="151"/>
      <point x="376" y="109"/>
      <point x="291" y="109" type="curve" smooth="yes"/>
      <point x="185" y="109"/>
      <point x="64" y="176"/>
      <point x="64" y="325" type="curve" smooth="yes"/>
      <point x="64" y="434"/>
      <point x="138" y="529"/>
      <point x="281" y="529" type="curve" smooth="yes"/>
      <point x="329" y="529"/>
      <point x="388" y="517"/>
      <point x="432" y="494" type="curve"/>
      <point x="389" y="459" type="line"/>
      <point x="430" y="565" type="line"/>
      <point x="443" y="516" type="line"/>
      <point x="392" y="542"/>
      <point x="334" y="553"/>
      <point x="286" y="553" type="curve" smooth="yes"/>
      <point x="123" y="553"/>
      <point x="38" y="445"/>
    </contour>
    <contour>
      <point x="612" y="93" type="line"/>
      <point x="638" y="93" type="line"/>
      <point x="638" y="751" type="line"/>
      <point x="612" y="751" type="line"/>
      <point x="612" y="586" type="line"/>
      <point x="612" y="574" type="line"/>
    </contour>
    <contour>
      <point x="336" y="735" type="curve" smooth="yes"/>
      <point x="461" y="735"/>
      <point x="614" y="649"/>
      <point x="614" y="471" type="curve"/>
      <point x="638" y="471" type="line"/>
      <point x="638" y="667"/>
      <point x="473" y="759"/>
      <point x="335" y="759" type="curve" smooth="yes"/>
      <point x="221" y="759"/>
      <point x="168" y="700"/>
      <point x="168" y="628" type="curve" smooth="yes"/>
      <point x="168" y="597"/>
      <point x="178" y="563"/>
      <point x="195" y="534" type="curve"/>
      <point x="216" y="543" type="line"/>
      <point x="202" y="569"/>
      <point x="194" y="599"/>
      <point x="194" y="625" type="curve" smooth="yes"/>
      <point x="194" y="689"/>
      <point x="242" y="735"/>
    </contour>
  </outline>
</glyph>
<glyph name="da-oriya" format="2">
  <advance width="717"/>
  <unicode hex="0B26"/>
  <note>
daorya
</note>
  <guideline x="276" y="46" angle="0"/>
  <guideline x="347" y="506" angle="90"/>
  <anchor x="459" y="93" name="bottom"/>
  <anchor x="565" y="93" name="bottom_ra"/>
  <anchor x="350" y="751" name="top"/>
  <anchor x="614" y="751" name="topright"/>
  <outline>
    <contour>
      <point x="318" y="169" type="curve" smooth="yes"/>
      <point x="376" y="169"/>
      <point x="429" y="187"/>
      <point x="469" y="234" type="curve"/>
      <point x="464" y="261" type="line"/>
      <point x="428" y="213"/>
      <point x="375" y="193"/>
      <point x="318" y="193" type="curve" smooth="yes"/>
      <point x="233" y="193"/>
      <point x="193" y="245"/>
      <point x="193" y="304" type="curve" smooth="yes"/>
      <point x="193" y="358"/>
      <point x="227" y="420"/>
      <point x="289" y="453" type="curve"/>
      <point x="277" y="473" type="line"/>
      <point x="202" y="432"/>
      <point x="167" y="366"/>
      <point x="167" y="306" type="curve" smooth="yes"/>
      <point x="167" y="233"/>
      <point x="218" y="169"/>
    </contour>
    <contour>
      <point x="459" y="93" type="line"/>
      <point x="485" y="93" type="line"/>
      <point x="485" y="413" type="line"/>
      <point x="459" y="413" type="line"/>
      <point x="459" y="243" type="line"/>
      <point x="459" y="234" type="line"/>
    </contour>
    <contour>
      <point x="175" y="291" type="curve"/>
      <point x="181" y="316" type="line"/>
      <point x="104" y="360"/>
      <point x="64" y="431"/>
      <point x="64" y="510" type="curve" smooth="yes"/>
      <point x="64" y="644"/>
      <point x="184" y="735"/>
      <point x="349" y="735" type="curve" smooth="yes"/>
      <point x="503" y="735"/>
      <point x="653" y="655"/>
      <point x="653" y="496" type="curve" smooth="yes"/>
      <point x="653" y="432"/>
      <point x="629" y="379"/>
      <point x="590" y="337" type="curve"/>
      <point x="586" y="350" type="line"/>
      <point x="624" y="320" type="line"/>
      <point x="610" y="321" type="line"/>
      <point x="653" y="367"/>
      <point x="679" y="426"/>
      <point x="679" y="496" type="curve" smooth="yes"/>
      <point x="679" y="671"/>
      <point x="517" y="759"/>
      <point x="350" y="759" type="curve" smooth="yes"/>
      <point x="168" y="759"/>
      <point x="38" y="655"/>
      <point x="38" y="510" type="curve" smooth="yes"/>
      <point x="38" y="419"/>
      <point x="84" y="338"/>
    </contour>
  </outline>
</glyph>
<glyph name="nukta-oriya" format="2">
  <unicode hex="0B3C"/>
  <note>
nuktaorya
</note>
  <anchor x="300" y="-12" name="_nukta"/>
  <outline>
    <contour>
      <point x="300" y="-38" type="curve" smooth="yes"/>
      <point x="315" y="-38"/>
      <point x="325" y="-27"/>
      <point x="325" y="-12" type="curve" smooth="yes"/>
      <point x="325" y="1"/>
      <point x="314" y="13"/>
      <point x="300" y="13" type="curve" smooth="yes"/>
      <point x="287" y="13"/>
      <point x="276" y="1"/>
      <point x="276" y="-12" type="curve" smooth="yes"/>
      <point x="276" y="-27"/>
      <point x="287" y="-38"/>
    </contour>
  </outline>
</glyph>
<glyph name="aaMatra-oriya" format="2">
  <advance width="166"/>
  <unicode hex="0B3E"/>
  <note>
aavowelsignorya
</note>
  <anchor x="83" y="751" name="topright"/>
  <outline>
    <contour>
      <point x="70" y="751" type="line"/>
      <point x="70" y="93" type="line"/>
      <point x="96" y="93" type="line"/>
      <point x="96" y="751" type="line"/>
    </contour>
  </outline>
</glyph>
<glyph name="eMatra-oriya" format="2">
  <advance width="491"/>
  <unicode hex="0B47"/>
  <note>
evowelsignorya
</note>
  <outline>
    <contour>
      <point x="52" y="423" type="curve"/>
      <point x="51" y="396" type="line"/>
      <point x="112" y="413"/>
      <point x="171" y="424"/>
      <point x="218" y="424" type="curve" smooth="yes"/>
      <point x="335" y="424"/>
      <point x="410" y="356"/>
      <point x="410" y="255" type="curve" smooth="yes"/>
      <point x="410" y="167"/>
      <point x="354" y="110"/>
      <point x="263" y="110" type="curve" smooth="yes"/>
      <point x="132" y="110"/>
      <point x="66" y="228"/>
      <point x="66" y="398" type="curve" smooth="yes"/>
      <point x="66" y="593"/>
      <point x="153" y="735"/>
      <point x="326" y="735" type="curve" smooth="yes"/>
      <point x="383" y="735"/>
      <point x="439" y="720"/>
      <point x="474" y="693" type="curve"/>
      <point x="435" y="672" type="line"/>
      <point x="461" y="730" type="line"/>
      <point x="421" y="750"/>
      <point x="374" y="759"/>
      <point x="327" y="759" type="curve" smooth="yes"/>
      <point x="146" y="759"/>
      <point x="40" y="626"/>
      <point x="40" y="402" type="curve" smooth="yes"/>
      <point x="40" y="201"/>
      <point x="125" y="85"/>
      <point x="264" y="85" type="curve" smooth="yes"/>
      <point x="368" y="85"/>
      <point x="436" y="151"/>
      <point x="436" y="256" type="curve" smooth="yes"/>
      <point x="436" y="373"/>
      <point x="352" y="449"/>
      <point x="220" y="449" type="curve" smooth="yes"/>
      <point x="174" y="449"/>
      <point x="114" y="440"/>
    </contour>
  </outline>
</glyph>
<glyph name="halant-oriya" format="2">
  <unicode hex="0B4D"/>
  <note>
viramaorya
</note>
  <anchor x="14" y="93" name="_bottom"/>
  <outline>
    <contour>
      <point x="20" y="39" type="line"/>
      <point x="124" y="-98" type="line"/>
      <point x="144" y="-84" type="line"/>
      <point x="41" y="53" type="line"/>
    </contour>
  </outline>
</glyph>
<glyph name="aiLength-oriya" format="2">
  <advance width="600"/>
  <unicode hex="0B56"/>
  <note>
ailengthmarkorya
</note>
  <guideline x="1243" y="527" angle="90"/>
  <anchor x="519" y="751" name="_topright"/>
  <outline>
    <contour>
      <point x="493" y="802" type="line"/>
      <point x="541" y="785" type="line"/>
      <point x="530" y="779" type="line"/>
      <point x="542" y="806"/>
      <point x="548" y="833"/>
      <point x="548" y="858" type="curve" smooth="yes"/>
      <point x="548" y="921"/>
      <point x="509" y="969"/>
      <point x="428" y="969" type="curve" smooth="yes"/>
      <point x="336" y="969"/>
      <point x="232" y="909"/>
      <point x="153" y="909" type="curve" smooth="yes"/>
      <point x="102" y="909"/>
      <point x="55" y="934"/>
      <point x="35" y="1005" type="curve"/>
      <point x="91" y="990" type="line"/>
      <point x="-7" y="930" type="line"/>
      <point x="16" y="980" type="line"/>
      <point x="37" y="908"/>
      <point x="97" y="885"/>
      <point x="154" y="885" type="curve" smooth="yes"/>
      <point x="247" y="885"/>
      <point x="347" y="945"/>
      <point x="428" y="945" type="curve" smooth="yes"/>
      <point x="492" y="945"/>
      <point x="523" y="907"/>
      <point x="523" y="857" type="curve" smooth="yes"/>
      <point x="523" y="835"/>
      <point x="517" y="812"/>
      <point x="507" y="788" type="curve"/>
    </contour>
  </outline>
</glyph>
<glyph name="auLength-oriya" format="2">
  <advance width="166"/>
  <unicode hex="0B57"/>
  <note>
aulengthmarkorya
</note>
  <outline>
    <contour>
      <point x="70" y="786" type="line"/>
      <point x="70" y="93" type="line"/>
      <point x="96" y="93" type="line"/>
      <point x="96" y="786" type="line"/>
    </contour>
    <contour>
      <point x="70" y="786" type="curve"/>
      <point x="96" y="774" type="line"/>
      <point x="142" y="796"/>
      <point x="167" y="830"/>
      <point x="167" y="874" type="curve" smooth="yes"/>
      <point x="167" y="933"/>
      <point x="118" y="969"/>
      <point x="49" y="969" type="curve" smooth="yes"/>
      <point x="-42" y="969"/>
      <point x="-149" y="909"/>
      <point x="-224" y="909" type="curve" smooth="yes"/>
      <point x="-277" y="909"/>
      <point x="-324" y="934"/>
      <point x="-344" y="1005" type="curve"/>
      <point x="-288" y="990" type="line"/>
      <point x="-386" y="930" type="line"/>
      <point x="-363" y="980" type="line"/>
      <point x="-342" y="908"/>
      <point x="-282" y="885"/>
      <point x="-225" y="885" type="curve" smooth="yes"/>
      <point x="-133" y="885"/>
      <point x="-30" y="945"/>
      <point x="46" y="945" type="curve" smooth="yes"/>
      <point x="104" y="945"/>
      <point x="141" y="919"/>
      <point x="141" y="871" type="curve" smooth="yes"/>
      <point x="141" y="832"/>
      <point x="116" y="803"/>
    </contour>
  </outline>
</glyph>
<glyph name="rrVocalic-oriya" format="2">
  <advance width="765"/>
  <unicode hex="0B60"/>
  <note>
rrvocalicorya
</note>
  <guideline x="403" y="-205" angle="0"/>
  <outline>
    <contour>
      <point x="153" y="297" type="curve"/>
      <point x="163" y="321" type="line"/>
      <point x="99" y="365"/>
      <point x="64" y="426"/>
      <point x="64" y="498" type="curve" smooth="yes"/>
      <point x="64" y="657"/>
      <point x="208" y="735"/>
      <point x="349" y="735" type="curve" smooth="yes"/>
      <point x="483" y="735"/>
      <point x="615" y="664"/>
      <point x="615" y="525" type="curve" smooth="yes"/>
      <point x="615" y="487"/>
      <point x="604" y="445"/>
      <point x="581" y="402" type="curve"/>
      <point x="610" y="407" type="line"/>
      <point x="631" y="446"/>
      <point x="641" y="487"/>
      <point x="641" y="524" type="curve" smooth="yes"/>
      <point x="641" y="680"/>
      <point x="495" y="759"/>
      <point x="347" y="759" type="curve" smooth="yes"/>
      <point x="194" y="759"/>
      <point x="38" y="674"/>
      <point x="38" y="501" type="curve" smooth="yes"/>
      <point x="38" y="421"/>
      <point x="79" y="349"/>
    </contour>
    <contour>
      <point x="309" y="85" type="curve" smooth="yes"/>
      <point x="414" y="85"/>
      <point x="484" y="162"/>
      <point x="484" y="263" type="curve" smooth="yes"/>
      <point x="484" y="364"/>
      <point x="414" y="440"/>
      <point x="309" y="440" type="curve" smooth="yes"/>
      <point x="204" y="440"/>
      <point x="133" y="364"/>
      <point x="133" y="263" type="curve" smooth="yes"/>
      <point x="133" y="162"/>
      <point x="204" y="85"/>
    </contour>
    <contour>
      <point x="309" y="109" type="curve" smooth="yes"/>
      <point x="215" y="109"/>
      <point x="159" y="174"/>
      <point x="159" y="264" type="curve" smooth="yes"/>
      <point x="159" y="353"/>
      <point x="215" y="416"/>
      <point x="309" y="416" type="curve" smooth="yes"/>
      <point x="403" y="416"/>
      <point x="458" y="353"/>
      <point x="458" y="263" type="curve" smooth="yes"/>
      <point x="458" y="173"/>
      <point x="403" y="109"/>
    </contour>
    <contour>
      <point x="553" y="201" type="line"/>
      <point x="574" y="205" type="line"/>
      <point x="688" y="205"/>
      <point x="727" y="264"/>
      <point x="727" y="318" type="curve" smooth="yes"/>
      <point x="727" y="370"/>
      <point x="688" y="418"/>
      <point x="611" y="423" type="curve"/>
      <point x="581" y="402" type="line"/>
      <point x="596" y="401" type="line" smooth="yes"/>
      <point x="665" y="396"/>
      <point x="701" y="359"/>
      <point x="701" y="318" type="curve" smooth="yes"/>
      <point x="701" y="272"/>
      <point x="665" y="225"/>
      <point x="558" y="225" type="curve"/>
    </contour>
    <contour>
      <point x="638" y="-152" type="line"/>
      <point x="599" y="-155" type="line"/>
      <point x="696" y="-80" type="line"/>
      <point x="663" y="-141" type="line"/>
      <point x="526" y="35" type="line"/>
      <point x="527" y="13" type="line"/>
      <point x="616" y="13"/>
      <point x="699" y="43"/>
      <point x="699" y="120" type="curve" smooth="yes"/>
      <point x="699" y="183"/>
      <point x="643" y="216"/>
      <point x="583" y="222" type="curve"/>
      <point x="553" y="201" type="line"/>
      <point x="612" y="201"/>
      <point x="673" y="177"/>
      <point x="673" y="120" type="curve" smooth="yes"/>
      <point x="673" y="60"/>
      <point x="609" y="36"/>
      <point x="522" y="37" type="curve"/>
      <point x="508" y="20" type="line"/>
    </contour>
  </outline>
</glyph>
<glyph name="llVocalic-oriya" format="2">
  <advance width="574"/>
  <unicode hex="0B61"/>
  <note>
llvocalicorya
</note>
  <outline>
    <contour>
      <point x="408" y="-25" type="curve"/>
      <point x="428" y="-9" type="line"/>
      <point x="359" y="75"/>
      <point x="294" y="170"/>
      <point x="294" y="244" type="curve" smooth="yes"/>
      <point x="294" y="305"/>
      <point x="333" y="351"/>
      <point x="404" y="351" type="curve" smooth="yes"/>
      <point x="470" y="351"/>
      <point x="510" y="312"/>
      <point x="510" y="249" type="curve" smooth="yes"/>
      <point x="510" y="159"/>
      <point x="427" y="109"/>
      <point x="297" y="109" type="curve" smooth="yes"/>
      <point x="149" y="109"/>
      <point x="68" y="174"/>
      <point x="68" y="275" type="curve" smooth="yes"/>
      <point x="68" y="372"/>
      <point x="142" y="395"/>
      <point x="230" y="423" type="curve" smooth="yes"/>
      <point x="286" y="441" type="line" smooth="yes"/>
      <point x="361" y="465"/>
      <point x="432" y="501"/>
      <point x="432" y="606" type="curve" smooth="yes"/>
      <point x="432" y="695"/>
      <point x="379" y="759"/>
      <point x="268" y="759" type="curve" smooth="yes"/>
      <point x="163" y="759"/>
      <point x="100" y="699"/>
      <point x="100" y="599" type="curve" smooth="yes"/>
      <point x="100" y="565"/>
      <point x="108" y="537"/>
      <point x="121" y="509" type="curve"/>
      <point x="196" y="541" type="line"/>
      <point x="167" y="486" type="line"/>
      <point x="135" y="529"/>
      <point x="126" y="567"/>
      <point x="126" y="601" type="curve" smooth="yes"/>
      <point x="126" y="684"/>
      <point x="179" y="736"/>
      <point x="270" y="736" type="curve" smooth="yes"/>
      <point x="363" y="736"/>
      <point x="406" y="682"/>
      <point x="406" y="603" type="curve" smooth="yes"/>
      <point x="406" y="512"/>
      <point x="350" y="486"/>
      <point x="274" y="462" type="curve" smooth="yes"/>
      <point x="229" y="448" type="line" smooth="yes"/>
      <point x="143" y="421"/>
      <point x="42" y="394"/>
      <point x="42" y="272" type="curve" smooth="yes"/>
      <point x="42" y="163"/>
      <point x="123" y="85"/>
      <point x="294" y="85" type="curve" smooth="yes"/>
      <point x="447" y="85"/>
      <point x="536" y="147"/>
      <point x="536" y="250" type="curve" smooth="yes"/>
      <point x="536" y="328"/>
      <point x="486" y="375"/>
      <point x="404" y="375" type="curve" smooth="yes"/>
      <point x="317" y="375"/>
      <point x="268" y="322"/>
      <point x="268" y="247" type="curve" smooth="yes"/>
      <point x="268" y="158"/>
      <point x="337" y="63"/>
    </contour>
  </outline>
</glyph>
<glyph name="endash" format="2">
  <advance width="500"/>
  <unicode hex="2013"/>
  <outline>
    <contour>
      <point x="460" y="403" type="line"/>
      <point x="40" y="403" type="line"/>
      <point x="40" y="377" type="line"/>
      <point x="460" y="377" type="line"/>
    </contour>
  </outline>
</glyph>
<glyph name="emdash" format="2">
  <advance width="1000"/>
  <unicode hex="2014"/>
  <outline>
    <contour>
      <point x="40" y="403" type="line"/>
      <point x="40" y="377" type="line"/>
      <point x="960" y="377" type="line"/>
      <point x="960" y="403" type="line"/>
    </contour>
  </outline>
</glyph>
<glyph name="quoteleft" format="2">
  <advance width="251"/>
  <unicode hex="2018"/>
  <outline>
    <contour>
      <point x="89" y="577" type="line"/>
      <point x="117" y="577" type="line"/>
      <point x="128" y="653"/>
      <point x="144" y="725"/>
      <point x="173" y="822" type="curve"/>
      <point x="151" y="822" type="line"/>
      <point x="123" y="753"/>
      <point x="101" y="663"/>
      <point x="86" y="589" type="curve"/>
    </contour>
  </outline>
</glyph>
<glyph name="quoteright" format="2">
  <advance width="251"/>
  <unicode hex="2019"/>
  <outline>
    <contour>
      <point x="169" y="810" type="curve"/>
      <point x="166" y="822" type="line"/>
      <point x="138" y="822" type="line"/>
      <point x="127" y="746"/>
      <point x="111" y="674"/>
      <point x="82" y="577" type="curve"/>
      <point x="104" y="577" type="line"/>
      <point x="132" y="646"/>
      <point x="154" y="736"/>
    </contour>
  </outline>
</glyph>
<glyph name="quotedblleft" format="2">
  <advance width="389"/>
  <unicode hex="201C"/>
  <outline>
    <contour>
      <point x="86" y="589" type="curve"/>
      <point x="89" y="577" type="line"/>
      <point x="117" y="577" type="line"/>
      <point x="128" y="653"/>
      <point x="144" y="725"/>
      <point x="173" y="822" type="curve"/>
      <point x="151" y="822" type="line"/>
      <point x="123" y="753"/>
      <point x="101" y="663"/>
    </contour>
    <contour>
      <point x="224" y="589" type="curve"/>
      <point x="227" y="577" type="line"/>
      <point x="255" y="577" type="line"/>
      <point x="266" y="653"/>
      <point x="282" y="725"/>
      <point x="311" y="822" type="curve"/>
      <point x="289" y="822" type="line"/>
      <point x="261" y="753"/>
      <point x="239" y="663"/>
    </contour>
  </outline>
</glyph>
<glyph name="quotedblright" format="2">
  <advance width="389"/>
  <unicode hex="201D"/>
  <outline>
    <contour>
      <point x="307" y="810" type="curve"/>
      <point x="304" y="822" type="line"/>
      <point x="276" y="822" type="line"/>
      <point x="265" y="746"/>
      <point x="249" y="674"/>
      <point x="220" y="577" type="curve"/>
      <point x="242" y="577" type="line"/>
      <point x="270" y="646"/>
      <point x="292" y="736"/>
    </contour>
    <contour>
      <point x="169" y="810" type="curve"/>
      <point x="166" y="822" type="line"/>
      <point x="138" y="822" type="line"/>
      <point x="127" y="746"/>
      <point x="111" y="674"/>
      <point x="82" y="577" type="curve"/>
      <point x="104" y="577" type="line"/>
      <point x="132" y="646"/>
      <point x="154" y="736"/>
    </contour>
  </outline>
</glyph>
<glyph name="ellipsis" format="2">
  <advance width="665"/>
  <unicode hex="2026"/>
  <outline>
    <contour>
      <point x="331" y="85" type="curve" smooth="yes"/>
      <point x="355" y="85"/>
      <point x="358" y="99"/>
      <point x="358" y="116" type="curve" smooth="yes"/>
      <point x="358" y="132"/>
      <point x="355" y="147"/>
      <point x="331" y="147" type="curve" smooth="yes"/>
      <point x="311" y="147"/>
      <point x="306" y="132"/>
      <point x="306" y="116" type="curve" smooth="yes"/>
      <point x="306" y="99"/>
      <point x="311" y="85"/>
    </contour>
    <contour>
      <point x="106" y="85" type="curve" smooth="yes"/>
      <point x="130" y="85"/>
      <point x="133" y="99"/>
      <point x="133" y="116" type="curve" smooth="yes"/>
      <point x="133" y="132"/>
      <point x="130" y="147"/>
      <point x="106" y="147" type="curve" smooth="yes"/>
      <point x="86" y="147"/>
      <point x="81" y="132"/>
      <point x="81" y="116" type="curve" smooth="yes"/>
      <point x="81" y="99"/>
      <point x="86" y="85"/>
    </contour>
    <contour>
      <point x="557" y="85" type="curve" smooth="yes"/>
      <point x="581" y="85"/>
      <point x="584" y="99"/>
      <point x="584" y="116" type="curve" smooth="yes"/>
      <point x="584" y="132"/>
      <point x="581" y="147"/>
      <point x="557" y="147" type="curve" smooth="yes"/>
      <point x="537" y="147"/>
      <point x="532" y="132"/>
      <point x="532" y="116" type="curve" smooth="yes"/>
      <point x="532" y="99"/>
      <point x="537" y="85"/>
    </contour>
  </outline>
</glyph>
<glyph name="minus" format="2">
  <advance width="551"/>
  <unicode hex="2212"/>
  <outline>
    <contour>
      <point x="58" y="428" type="line"/>
      <point x="58" y="402" type="line"/>
      <point x="494" y="402" type="line"/>
      <point x="494" y="428" type="line"/>
    </contour>
  </outline>
</glyph>
<glyph name="dottedCircle" format="2">
  <advance width="800"/>
  <unicode hex="25CC"/>
  <note>
uni25CC
</note>
  <outline>
    <contour>
      <point x="429" y="602" type="curve" smooth="yes"/>
      <point x="429" y="621"/>
      <point x="419" y="630"/>
      <point x="399" y="630" type="curve" smooth="yes"/>
      <point x="380" y="630"/>
      <point x="371" y="621"/>
      <point x="371" y="602" type="curve" smooth="yes"/>
      <point x="371" y="582"/>
      <point x="379" y="573"/>
      <point x="399" y="573" type="curve" smooth="yes"/>
      <point x="419" y="573"/>
      <point x="429" y="583"/>
    </contour>
    <contour>
      <point x="299" y="553" type="curve" smooth="yes"/>
      <point x="299" y="572"/>
      <point x="290" y="581"/>
      <point x="270" y="581" type="curve" smooth="yes"/>
      <point x="250" y="581"/>
      <point x="242" y="572"/>
      <point x="242" y="553" type="curve" smooth="yes"/>
      <point x="242" y="534"/>
      <point x="251" y="524"/>
      <point x="270" y="524" type="curve" smooth="yes"/>
      <point x="289" y="524"/>
      <point x="299" y="534"/>
    </contour>
    <contour>
      <point x="559" y="553" type="curve" smooth="yes"/>
      <point x="559" y="572"/>
      <point x="549" y="581"/>
      <point x="529" y="581" type="curve" smooth="yes"/>
      <point x="510" y="581"/>
      <point x="500" y="572"/>
      <point x="500" y="553" type="curve" smooth="yes"/>
      <point x="500" y="534"/>
      <point x="510" y="524"/>
      <point x="529" y="524" type="curve" smooth="yes"/>
      <point x="549" y="524"/>
      <point x="559" y="534"/>
    </contour>
    <contour>
      <point x="604" y="428" type="curve" smooth="yes"/>
      <point x="604" y="447"/>
      <point x="594" y="456"/>
      <point x="575" y="456" type="curve" smooth="yes"/>
      <point x="555" y="456"/>
      <point x="545" y="447"/>
      <point x="545" y="428" type="curve" smooth="yes"/>
      <point x="545" y="409"/>
      <point x="555" y="399"/>
      <point x="575" y="399" type="curve" smooth="yes"/>
      <point x="594" y="399"/>
      <point x="604" y="409"/>
    </contour>
    <contour>
      <point x="254" y="428" type="curve" smooth="yes"/>
      <point x="254" y="447"/>
      <point x="245" y="456"/>
      <point x="226" y="456" type="curve" smooth="yes"/>
      <point x="206" y="456"/>
      <point x="196" y="447"/>
      <point x="196" y="428" type="curve" smooth="yes"/>
      <point x="196" y="408"/>
      <point x="206" y="399"/>
      <point x="226" y="399" type="curve" smooth="yes"/>
      <point x="246" y="399"/>
      <point x="254" y="408"/>
    </contour>
    <contour>
      <point x="299" y="303" type="curve" smooth="yes"/>
      <point x="299" y="324"/>
      <point x="290" y="332"/>
      <point x="270" y="332" type="curve" smooth="yes"/>
      <point x="250" y="332"/>
      <point x="242" y="324"/>
      <point x="242" y="303" type="curve" smooth="yes"/>
      <point x="242" y="283"/>
      <point x="250" y="274"/>
      <point x="270" y="274" type="curve" smooth="yes"/>
      <point x="290" y="274"/>
      <point x="299" y="283"/>
    </contour>
    <contour>
      <point x="559" y="303" type="curve" smooth="yes"/>
      <point x="559" y="322"/>
      <point x="549" y="332"/>
      <point x="529" y="332" type="curve" smooth="yes"/>
      <point x="510" y="332"/>
      <point x="500" y="322"/>
      <point x="500" y="303" type="curve" smooth="yes"/>
      <point x="500" y="284"/>
      <point x="510" y="274"/>
      <point x="529" y="274" type="curve" smooth="yes"/>
      <point x="549" y="274"/>
      <point x="559" y="284"/>
    </contour>
    <contour>
      <point x="429" y="253" type="curve" smooth="yes"/>
      <point x="429" y="272"/>
      <point x="419" y="282"/>
      <point x="399" y="282" type="curve" smooth="yes"/>
      <point x="379" y="282"/>
      <point x="371" y="273"/>
      <point x="371" y="253" type="curve" smooth="yes"/>
      <point x="371" y="234"/>
      <point x="380" y="224"/>
      <point x="399" y="224" type="curve" smooth="yes"/>
      <point x="419" y="224"/>
      <point x="429" y="234"/>
    </contour>
  </outline>
</glyph>
<glyph name="_part_ta-oriya.below" format="2">
  <advance width="544"/>
  <note>
tasubscriptorya
</note>
  <outline>
    <contour>
      <point x="32" y="-89" type="line"/>
      <point x="-7" y="6" type="line"/>
      <point x="65" y="-59"/>
      <point x="167" y="-91"/>
      <point x="262" y="-91" type="curve" smooth="yes"/>
      <point x="399" y="-91"/>
      <point x="520" y="-25"/>
      <point x="520" y="101" type="curve" smooth="yes"/>
      <point x="520" y="177"/>
      <point x="478" y="209"/>
      <point x="434" y="209" type="curve" smooth="yes"/>
      <point x="387" y="209"/>
      <point x="345" y="173"/>
      <point x="345" y="114" type="curve" smooth="yes"/>
      <point x="345" y="49"/>
      <point x="391" y="18"/>
      <point x="431" y="18" type="curve" smooth="yes"/>
      <point x="473" y="18"/>
      <point x="516" y="51"/>
      <point x="516" y="117" type="curve"/>
      <point x="491" y="75" type="line"/>
      <point x="480" y="-20"/>
      <point x="379" y="-67"/>
      <point x="266" y="-67" type="curve" smooth="yes"/>
      <point x="178" y="-67"/>
      <point x="83" y="-38"/>
      <point x="18" y="20" type="curve"/>
      <point x="89" y="9" type="line"/>
    </contour>
    <contour>
      <point x="494" y="113" type="curve" smooth="yes"/>
      <point x="494" y="68"/>
      <point x="468" y="42"/>
      <point x="435" y="42" type="curve" smooth="yes"/>
      <point x="401" y="42"/>
      <point x="371" y="69"/>
      <point x="371" y="115" type="curve" smooth="yes"/>
      <point x="371" y="161"/>
      <point x="402" y="185"/>
      <point x="433" y="185" type="curve" smooth="yes"/>
      <point x="464" y="185"/>
      <point x="494" y="161"/>
    </contour>
  </outline>
</glyph>
<glyph name="aiLength-oriya.stem" format="2">
  <advance width="600"/>
  <note>
ailengthmarkorya
</note>
  <anchor x="466" y="751" name="_topright"/>
  <outline>
    <contour>
      <point x="453" y="751" type="curve"/>
      <point x="490" y="734" type="line"/>
      <point x="471" y="735" type="line"/>
      <point x="526" y="768"/>
      <point x="556" y="822"/>
      <point x="556" y="869" type="curve" smooth="yes"/>
      <point x="556" y="923"/>
      <point x="519" y="969"/>
      <point x="437" y="969" type="curve" smooth="yes"/>
      <point x="345" y="969"/>
      <point x="241" y="909"/>
      <point x="162" y="909" type="curve" smooth="yes"/>
      <point x="111" y="909"/>
      <point x="64" y="934"/>
      <point x="44" y="1005" type="curve"/>
      <point x="100" y="990" type="line"/>
      <point x="2" y="930" type="line"/>
      <point x="25" y="980" type="line"/>
      <point x="46" y="908"/>
      <point x="106" y="885"/>
      <point x="163" y="885" type="curve" smooth="yes"/>
      <point x="256" y="885"/>
      <point x="355" y="945"/>
      <point x="437" y="945" type="curve" smooth="yes"/>
      <point x="500" y="945"/>
      <point x="531" y="909"/>
      <point x="531" y="866" type="curve" smooth="yes"/>
      <point x="531" y="825"/>
      <point x="503" y="778"/>
    </contour>
  </outline>
</glyph>
<glyph name="aiLength-oriya.umbrella" format="2">
  <advance width="600"/>
  <note>
ailengthmarkorya
</note>
  <guideline x="1243" y="527" angle="90"/>
  <anchor x="511" y="751" name="_topright"/>
  <outline>
    <contour>
      <point x="433" y="708" type="line"/>
      <point x="481" y="681" type="line"/>
      <point x="441" y="668" type="line"/>
      <point x="511" y="723"/>
      <point x="548" y="797"/>
      <point x="548" y="858" type="curve" smooth="yes"/>
      <point x="548" y="921"/>
      <point x="509" y="969"/>
      <point x="428" y="969" type="curve" smooth="yes"/>
      <point x="336" y="969"/>
      <point x="232" y="909"/>
      <point x="153" y="909" type="curve" smooth="yes"/>
      <point x="102" y="909"/>
      <point x="55" y="934"/>
      <point x="35" y="1005" type="curve"/>
      <point x="91" y="990" type="line"/>
      <point x="-7" y="930" type="line"/>
      <point x="16" y="980" type="line"/>
      <point x="37" y="908"/>
      <point x="97" y="885"/>
      <point x="154" y="885" type="curve" smooth="yes"/>
      <point x="247" y="885"/>
      <point x="347" y="945"/>
      <point x="428" y="945" type="curve" smooth="yes"/>
      <point x="492" y="945"/>
      <point x="523" y="907"/>
      <point x="523" y="857" type="curve" smooth="yes"/>
      <point x="523" y="801"/>
      <point x="484" y="730"/>
      <point x="414" y="679" type="curve"/>
    </contour>
  </outline>
</glyph>
<glyph name="ba-oriya.below" format="2">
  <note>
basubscriptorya
</note>
  <guideline x="196" y="155" angle="90"/>
  <anchor x="241" y="203" name="_bottom"/>
  <outline>
    <contour>
      <point x="99" y="-49" type="curve"/>
      <point x="102" y="-18" type="line"/>
      <point x="69" y="3"/>
      <point x="53" y="29"/>
      <point x="53" y="72" type="curve" smooth="yes"/>
      <point x="53" y="149"/>
      <point x="119" y="186"/>
      <point x="195" y="186" type="curve" smooth="yes"/>
      <point x="274" y="186"/>
      <point x="339" y="146"/>
      <point x="339" y="69" type="curve" smooth="yes"/>
      <point x="339" y="31"/>
      <point x="322" y="-1"/>
      <point x="300" y="-24" type="curve"/>
      <point x="301" y="-7" type="line"/>
      <point x="354" y="-49" type="line"/>
      <point x="323" y="-37" type="line"/>
      <point x="347" y="-10"/>
      <point x="364" y="25"/>
      <point x="364" y="68" type="curve" smooth="yes"/>
      <point x="364" y="160"/>
      <point x="286" y="209"/>
      <point x="194" y="209" type="curve" smooth="yes"/>
      <point x="107" y="209"/>
      <point x="28" y="165"/>
      <point x="28" y="74" type="curve" smooth="yes"/>
      <point x="28" y="15"/>
      <point x="56" y="-19"/>
    </contour>
    <contour>
      <point x="182" y="-123" type="curve" smooth="yes"/>
      <point x="240" y="-123"/>
      <point x="279" y="-87"/>
      <point x="279" y="-34" type="curve" smooth="yes"/>
      <point x="279" y="19"/>
      <point x="241" y="55"/>
      <point x="183" y="55" type="curve" smooth="yes"/>
      <point x="125" y="55"/>
      <point x="86" y="19"/>
      <point x="86" y="-34" type="curve" smooth="yes"/>
      <point x="86" y="-87"/>
      <point x="124" y="-123"/>
    </contour>
    <contour>
      <point x="183" y="-100" type="curve" smooth="yes"/>
      <point x="140" y="-100"/>
      <point x="111" y="-74"/>
      <point x="111" y="-34" type="curve" smooth="yes"/>
      <point x="111" y="6"/>
      <point x="140" y="32"/>
      <point x="183" y="32" type="curve" smooth="yes"/>
      <point x="226" y="32"/>
      <point x="253" y="6"/>
      <point x="253" y="-34" type="curve" smooth="yes"/>
      <point x="253" y="-74"/>
      <point x="226" y="-100"/>
    </contour>
    <contour>
      <point x="253" y="-151" type="line"/>
      <point x="279" y="-151" type="line"/>
      <point x="279" y="-34" type="line"/>
      <point x="253" y="-35" type="line"/>
    </contour>
  </outline>
</glyph>
<glyph name="ba_ja-oriya" format="2">
  <advance width="633"/>
  <guideline x="113" y="142" angle="90"/>
  <guideline x="434" y="177" angle="90"/>
  <guideline x="510" y="177" angle="90"/>
  <anchor x="315" y="751" name="top"/>
  <anchor x="530" y="751" name="topright"/>
  <outline>
    <contour>
      <point x="276" y="-155" type="curve" smooth="yes"/>
      <point x="322" y="-155"/>
      <point x="372" y="-140"/>
      <point x="402" y="-123" type="curve"/>
      <point x="379" y="-147" type="line"/>
      <point x="359" y="-103"/>
      <point x="343" y="-48"/>
      <point x="343" y="1" type="curve" smooth="yes"/>
      <point x="343" y="68"/>
      <point x="372" y="106"/>
      <point x="421" y="106" type="curve" smooth="yes"/>
      <point x="463" y="106"/>
      <point x="484" y="77"/>
      <point x="484" y="30" type="curve" smooth="yes"/>
      <point x="484" y="-151" type="line"/>
      <point x="510" y="-151" type="line"/>
      <point x="510" y="33" type="line" smooth="yes"/>
      <point x="510" y="91"/>
      <point x="479" y="129"/>
      <point x="420" y="129" type="curve" smooth="yes"/>
      <point x="354" y="129"/>
      <point x="318" y="82"/>
      <point x="318" y="0" type="curve" smooth="yes"/>
      <point x="318" y="-43"/>
      <point x="328" y="-86"/>
      <point x="348" y="-138" type="curve"/>
      <point x="359" y="-115" type="line"/>
      <point x="339" y="-125"/>
      <point x="304" y="-132"/>
      <point x="279" y="-132" type="curve" smooth="yes"/>
      <point x="213" y="-132"/>
      <point x="171" y="-95"/>
      <point x="171" y="-33" type="curve" smooth="yes"/>
      <point x="171" y="34"/>
      <point x="219" y="97"/>
      <point x="272" y="138" type="curve"/>
      <point x="249" y="101" type="line"/>
      <point x="215" y="133" type="line"/>
      <point x="256" y="155" type="line"/>
      <point x="195" y="107"/>
      <point x="146" y="45"/>
      <point x="146" y="-32" type="curve" smooth="yes"/>
      <point x="146" y="-113"/>
      <point x="200" y="-155"/>
    </contour>
    <contour>
      <point x="408" y="114" type="line"/>
      <point x="434" y="114" type="line"/>
      <point x="434" y="377" type="line"/>
      <point x="408" y="375" type="line"/>
    </contour>
    <contour>
      <point x="286" y="233" type="curve" smooth="yes"/>
      <point x="375" y="233"/>
      <point x="434" y="291"/>
      <point x="434" y="377" type="curve" smooth="yes"/>
      <point x="434" y="463"/>
      <point x="375" y="521"/>
      <point x="287" y="521" type="curve" smooth="yes"/>
      <point x="195" y="521"/>
      <point x="134" y="463"/>
      <point x="134" y="375" type="curve" smooth="yes"/>
      <point x="134" y="290"/>
      <point x="195" y="233"/>
    </contour>
    <contour>
      <point x="287" y="257" type="curve" smooth="yes"/>
      <point x="211" y="257"/>
      <point x="160" y="304"/>
      <point x="160" y="375" type="curve" smooth="yes"/>
      <point x="160" y="448"/>
      <point x="211" y="497"/>
      <point x="287" y="497" type="curve" smooth="yes"/>
      <point x="360" y="497"/>
      <point x="408" y="448"/>
      <point x="408" y="375" type="curve" smooth="yes"/>
      <point x="408" y="304"/>
      <point x="360" y="257"/>
    </contour>
    <contour>
      <point x="153" y="363" type="curve"/>
      <point x="150" y="395" type="line"/>
      <point x="99" y="416"/>
      <point x="64" y="478"/>
      <point x="64" y="542" type="curve" smooth="yes"/>
      <point x="64" y="634"/>
      <point x="136" y="735"/>
      <point x="315" y="735" type="curve" smooth="yes"/>
      <point x="467" y="735"/>
      <point x="569" y="653"/>
      <point x="569" y="530" type="curve" smooth="yes"/>
      <point x="569" y="459"/>
      <point x="535" y="417"/>
      <point x="482" y="373" type="curve"/>
      <point x="487" y="437" type="line"/>
      <point x="570" y="360" type="line"/>
      <point x="501" y="356" type="line"/>
      <point x="559" y="402"/>
      <point x="595" y="453"/>
      <point x="595" y="530" type="curve" smooth="yes"/>
      <point x="595" y="667"/>
      <point x="483" y="758"/>
      <point x="315" y="758" type="curve" smooth="yes"/>
      <point x="120" y="758"/>
      <point x="38" y="649"/>
      <point x="38" y="541" type="curve" smooth="yes"/>
      <point x="38" y="467"/>
      <point x="81" y="392"/>
    </contour>
  </outline>
</glyph>
<glyph name="bha-oriya.base" format="2">
  <advance width="709"/>
  <anchor x="469" y="203" name="bottom"/>
  <anchor x="355" y="751" name="top"/>
  <anchor x="606" y="751" name="topright"/>
  <outline>
    <contour>
      <point x="318" y="184" type="curve" smooth="yes"/>
      <point x="411" y="184"/>
      <point x="502" y="229"/>
      <point x="502" y="345" type="curve" smooth="yes"/>
      <point x="502" y="463" type="line"/>
      <point x="476" y="463" type="line"/>
      <point x="476" y="342" type="line" smooth="yes"/>
      <point x="476" y="242"/>
      <point x="397" y="208"/>
      <point x="322" y="208" type="curve" smooth="yes"/>
      <point x="209" y="208"/>
      <point x="154" y="265"/>
      <point x="154" y="344" type="curve" smooth="yes"/>
      <point x="154" y="392"/>
      <point x="174" y="450"/>
      <point x="214" y="507" type="curve"/>
      <point x="193" y="519" type="line"/>
      <point x="150" y="459"/>
      <point x="128" y="399"/>
      <point x="128" y="345" type="curve" smooth="yes"/>
      <point x="128" y="253"/>
      <point x="192" y="184"/>
    </contour>
    <contour>
      <point x="495" y="342" type="curve"/>
      <point x="490" y="365" type="line"/>
      <point x="472" y="342"/>
      <point x="429" y="327"/>
      <point x="393" y="327" type="curve" smooth="yes"/>
      <point x="345" y="327"/>
      <point x="321" y="352"/>
      <point x="321" y="388" type="curve" smooth="yes"/>
      <point x="321" y="413"/>
      <point x="332" y="443"/>
      <point x="353" y="474" type="curve"/>
      <point x="332" y="486" type="line"/>
      <point x="307" y="452"/>
      <point x="295" y="417"/>
      <point x="295" y="387" type="curve" smooth="yes"/>
      <point x="295" y="338"/>
      <point x="326" y="303"/>
      <point x="389" y="303" type="curve" smooth="yes"/>
      <point x="425" y="303"/>
      <point x="471" y="315"/>
    </contour>
    <contour>
      <point x="38" y="546" type="curve" smooth="yes"/>
      <point x="38" y="483"/>
      <point x="69" y="418"/>
      <point x="136" y="372" type="curve"/>
      <point x="143" y="396" type="line"/>
      <point x="88" y="436"/>
      <point x="64" y="491"/>
      <point x="64" y="546" type="curve" smooth="yes"/>
      <point x="64" y="659"/>
      <point x="171" y="734"/>
      <point x="331" y="734" type="curve" smooth="yes"/>
      <point x="519" y="734"/>
      <point x="645" y="644"/>
      <point x="645" y="494" type="curve" smooth="yes"/>
      <point x="645" y="435"/>
      <point x="616" y="380"/>
      <point x="550" y="321" type="curve"/>
      <point x="696" y="146" type="line"/>
      <point x="639" y="161" type="line"/>
      <point x="726" y="232" type="line"/>
      <point x="723" y="153" type="line"/>
      <point x="576" y="327" type="line"/>
      <point x="570" y="307" type="line"/>
      <point x="639" y="371"/>
      <point x="671" y="434"/>
      <point x="671" y="499" type="curve" smooth="yes"/>
      <point x="671" y="661"/>
      <point x="536" y="759"/>
      <point x="333" y="759" type="curve" smooth="yes"/>
      <point x="156" y="759"/>
      <point x="38" y="674"/>
    </contour>
  </outline>
</glyph>
<glyph name="bha-oriya.below" format="2">
  <note>
bhasubscriptorya
</note>
  <guideline x="222" y="157" angle="90"/>
  <anchor x="267" y="203" name="_bottom"/>
  <outline>
    <contour>
      <point x="28" y="12" type="curve" smooth="yes"/>
      <point x="28" y="-74"/>
      <point x="78" y="-155"/>
      <point x="178" y="-155" type="curve" smooth="yes"/>
      <point x="249" y="-155"/>
      <point x="292" y="-115"/>
      <point x="292" y="-46" type="curve" smooth="yes"/>
      <point x="292" y="63" type="line"/>
      <point x="266" y="63" type="line"/>
      <point x="266" y="-51" type="line" smooth="yes"/>
      <point x="266" y="-101"/>
      <point x="233" y="-131"/>
      <point x="179" y="-131" type="curve" smooth="yes"/>
      <point x="97" y="-131"/>
      <point x="54" y="-62"/>
      <point x="54" y="14" type="curve" smooth="yes"/>
      <point x="54" y="96"/>
      <point x="109" y="185"/>
      <point x="232" y="185" type="curve" smooth="yes"/>
      <point x="330" y="185"/>
      <point x="389" y="134"/>
      <point x="389" y="45" type="curve" smooth="yes"/>
      <point x="389" y="-3"/>
      <point x="370" y="-38"/>
      <point x="339" y="-69" type="curve"/>
      <point x="417" y="-176" type="line"/>
      <point x="384" y="-190" type="line"/>
      <point x="444" y="-145" type="line"/>
      <point x="437" y="-167" type="line"/>
      <point x="361" y="-65" type="line"/>
      <point x="357" y="-84" type="line"/>
      <point x="390" y="-53"/>
      <point x="415" y="-6"/>
      <point x="415" y="50" type="curve" smooth="yes"/>
      <point x="415" y="146"/>
      <point x="341" y="209"/>
      <point x="230" y="209" type="curve" smooth="yes"/>
      <point x="90" y="209"/>
      <point x="28" y="108"/>
    </contour>
    <contour>
      <point x="283" y="-36" type="curve"/>
      <point x="277" y="-10" type="line"/>
      <point x="264" y="-35"/>
      <point x="239" y="-47"/>
      <point x="215" y="-47" type="curve" smooth="yes"/>
      <point x="180" y="-47"/>
      <point x="162" y="-30"/>
      <point x="162" y="1" type="curve" smooth="yes"/>
      <point x="162" y="19"/>
      <point x="169" y="42"/>
      <point x="182" y="68" type="curve"/>
      <point x="160" y="78" type="line"/>
      <point x="144" y="50"/>
      <point x="136" y="23"/>
      <point x="136" y="1" type="curve" smooth="yes"/>
      <point x="136" y="-42"/>
      <point x="164" y="-71"/>
      <point x="214" y="-71" type="curve" smooth="yes"/>
      <point x="240" y="-71"/>
      <point x="267" y="-60"/>
    </contour>
  </outline>
</glyph>
<glyph name="bha_alt-oriya.below" format="2">
  <advance width="362"/>
  <guideline x="334" y="-190" angle="0"/>
  <anchor x="152" y="205" name="_bottom"/>
  <outline>
    <contour>
      <point x="32" y="-45" type="line"/>
      <point x="309" y="-123" type="line"/>
      <point x="316" y="-100" type="line"/>
      <point x="121" y="-46" type="line"/>
      <point x="74" y="-39" type="line"/>
      <point x="39" y="-22" type="line"/>
    </contour>
    <contour>
      <point x="38" y="178" type="curve"/>
      <point x="50" y="157" type="line"/>
      <point x="81" y="176"/>
      <point x="118" y="185"/>
      <point x="151" y="185" type="curve" smooth="yes"/>
      <point x="214" y="185"/>
      <point x="268" y="152"/>
      <point x="268" y="84" type="curve" smooth="yes"/>
      <point x="268" y="26"/>
      <point x="218" y="-33"/>
      <point x="111" y="-33" type="curve" smooth="yes"/>
      <point x="87" y="-33"/>
      <point x="61" y="-29"/>
      <point x="39" y="-22" type="curve"/>
      <point x="111" y="-57" type="line"/>
      <point x="235" y="-57"/>
      <point x="294" y="14"/>
      <point x="294" y="84" type="curve" smooth="yes"/>
      <point x="294" y="165"/>
      <point x="229" y="209"/>
      <point x="152" y="209" type="curve" smooth="yes"/>
      <point x="116" y="209"/>
      <point x="74" y="199"/>
    </contour>
  </outline>
</glyph>
<glyph name="ca-oriya.base" format="2">
  <advance width="629"/>
  <anchor x="426" y="203" name="bottom"/>
  <anchor x="310" y="751" name="top"/>
  <anchor x="526" y="751" name="topright"/>
  <outline>
    <contour>
      <point x="143" y="365" type="curve"/>
      <point x="152" y="392" type="line"/>
      <point x="103" y="419"/>
      <point x="64" y="476"/>
      <point x="64" y="544" type="curve" smooth="yes"/>
      <point x="64" y="655"/>
      <point x="163" y="735"/>
      <point x="312" y="735" type="curve" smooth="yes"/>
      <point x="463" y="735"/>
      <point x="565" y="653"/>
      <point x="565" y="535" type="curve" smooth="yes"/>
      <point x="565" y="476"/>
      <point x="539" y="427"/>
      <point x="500" y="392" type="curve"/>
      <point x="487" y="428" type="line"/>
      <point x="579" y="346" type="line"/>
      <point x="523" y="379" type="line"/>
      <point x="562" y="415"/>
      <point x="591" y="467"/>
      <point x="591" y="534" type="curve" smooth="yes"/>
      <point x="591" y="665"/>
      <point x="479" y="759"/>
      <point x="310" y="759" type="curve" smooth="yes"/>
      <point x="149" y="759"/>
      <point x="38" y="674"/>
      <point x="38" y="544" type="curve" smooth="yes"/>
      <point x="38" y="464"/>
      <point x="81" y="399"/>
    </contour>
    <contour>
      <point x="281" y="183" type="curve" smooth="yes"/>
      <point x="376" y="183"/>
      <point x="439" y="244"/>
      <point x="439" y="335" type="curve" smooth="yes"/>
      <point x="439" y="426"/>
      <point x="375" y="486"/>
      <point x="280" y="486" type="curve" smooth="yes"/>
      <point x="186" y="486"/>
      <point x="123" y="426"/>
      <point x="123" y="335" type="curve" smooth="yes"/>
      <point x="123" y="244"/>
      <point x="186" y="183"/>
    </contour>
    <contour>
      <point x="280" y="207" type="curve" smooth="yes"/>
      <point x="201" y="207"/>
      <point x="149" y="258"/>
      <point x="149" y="335" type="curve" smooth="yes"/>
      <point x="149" y="411"/>
      <point x="202" y="462"/>
      <point x="281" y="462" type="curve" smooth="yes"/>
      <point x="360" y="462"/>
      <point x="413" y="411"/>
      <point x="413" y="335" type="curve" smooth="yes"/>
      <point x="413" y="258"/>
      <point x="360" y="207"/>
    </contour>
  </outline>
</glyph>
<glyph name="ca-oriya.below" format="2">
  <note>
casubscriptorya
</note>
  <guideline x="195" y="155" angle="90"/>
  <anchor x="240" y="203" name="_bottom"/>
  <outline>
    <contour>
      <point x="89" y="-42" type="curve"/>
      <point x="102" y="-18" type="line"/>
      <point x="66" y="4"/>
      <point x="53" y="35"/>
      <point x="53" y="72" type="curve" smooth="yes"/>
      <point x="53" y="147"/>
      <point x="118" y="186"/>
      <point x="197" y="186" type="curve" smooth="yes"/>
      <point x="274" y="186"/>
      <point x="339" y="146"/>
      <point x="339" y="69" type="curve" smooth="yes"/>
      <point x="339" y="31"/>
      <point x="322" y="-1"/>
      <point x="300" y="-24" type="curve"/>
      <point x="301" y="-7" type="line"/>
      <point x="354" y="-49" type="line"/>
      <point x="323" y="-37" type="line"/>
      <point x="347" y="-10"/>
      <point x="364" y="25"/>
      <point x="364" y="68" type="curve" smooth="yes"/>
      <point x="364" y="160"/>
      <point x="286" y="209"/>
      <point x="196" y="209" type="curve" smooth="yes"/>
      <point x="107" y="209"/>
      <point x="28" y="164"/>
      <point x="28" y="72" type="curve" smooth="yes"/>
      <point x="28" y="18"/>
      <point x="51" y="-12"/>
    </contour>
    <contour>
      <point x="182" y="-155" type="curve" smooth="yes"/>
      <point x="244" y="-155"/>
      <point x="283" y="-114"/>
      <point x="283" y="-59" type="curve" smooth="yes"/>
      <point x="283" y="-5"/>
      <point x="244" y="36"/>
      <point x="182" y="36" type="curve" smooth="yes"/>
      <point x="121" y="36"/>
      <point x="82" y="-5"/>
      <point x="82" y="-59" type="curve" smooth="yes"/>
      <point x="82" y="-114"/>
      <point x="121" y="-155"/>
    </contour>
    <contour>
      <point x="182" y="-132" type="curve" smooth="yes"/>
      <point x="137" y="-132"/>
      <point x="107" y="-102"/>
      <point x="107" y="-59" type="curve" smooth="yes"/>
      <point x="107" y="-16"/>
      <point x="137" y="13"/>
      <point x="182" y="13" type="curve" smooth="yes"/>
      <point x="227" y="13"/>
      <point x="258" y="-16"/>
      <point x="258" y="-59" type="curve" smooth="yes"/>
      <point x="258" y="-102"/>
      <point x="227" y="-132"/>
    </contour>
  </outline>
</glyph>
<glyph name="ca_cha-oriya" format="2">
  <advance width="717"/>
  <note>
cachaorya
</note>
  <guideline x="477" y="424" angle="0"/>
  <guideline x="340" y="89" angle="90"/>
  <guideline x="282" y="393" angle="0"/>
  <guideline x="125" y="210" angle="90"/>
  <guideline x="555" y="210" angle="90"/>
  <anchor x="350" y="751" name="top"/>
  <anchor x="614" y="751" name="topright"/>
  <outline>
    <contour>
      <point x="140" y="376" type="curve"/>
      <point x="147" y="400" type="line"/>
      <point x="91" y="447"/>
      <point x="64" y="491"/>
      <point x="64" y="546" type="curve" smooth="yes"/>
      <point x="64" y="659"/>
      <point x="184" y="735"/>
      <point x="349" y="735" type="curve" smooth="yes"/>
      <point x="503" y="735"/>
      <point x="653" y="667"/>
      <point x="653" y="534" type="curve" smooth="yes"/>
      <point x="653" y="482"/>
      <point x="630" y="439"/>
      <point x="597" y="405" type="curve"/>
      <point x="615" y="389" type="line"/>
      <point x="655" y="428"/>
      <point x="679" y="477"/>
      <point x="679" y="534" type="curve" smooth="yes"/>
      <point x="679" y="684"/>
      <point x="517" y="759"/>
      <point x="350" y="759" type="curve" smooth="yes"/>
      <point x="168" y="759"/>
      <point x="38" y="670"/>
      <point x="38" y="546" type="curve" smooth="yes"/>
      <point x="38" y="483"/>
      <point x="71" y="428"/>
    </contour>
    <contour>
      <point x="242" y="182" type="curve" smooth="yes"/>
      <point x="314" y="182"/>
      <point x="350" y="236"/>
      <point x="350" y="334" type="curve" smooth="yes"/>
      <point x="350" y="430"/>
      <point x="315" y="485"/>
      <point x="240" y="485" type="curve" smooth="yes"/>
      <point x="170" y="485"/>
      <point x="125" y="431"/>
      <point x="125" y="334" type="curve" smooth="yes"/>
      <point x="125" y="237"/>
      <point x="169" y="182"/>
    </contour>
    <contour>
      <point x="242" y="206" type="curve" smooth="yes"/>
      <point x="186" y="206"/>
      <point x="151" y="252"/>
      <point x="151" y="335" type="curve" smooth="yes"/>
      <point x="151" y="415"/>
      <point x="186" y="461"/>
      <point x="242" y="461" type="curve" smooth="yes"/>
      <point x="298" y="461"/>
      <point x="327" y="415"/>
      <point x="327" y="335" type="curve" smooth="yes"/>
      <point x="327" y="251"/>
      <point x="297" y="206"/>
    </contour>
    <contour>
      <point x="441" y="182" type="curve" smooth="yes"/>
      <point x="514" y="182"/>
      <point x="555" y="237"/>
      <point x="555" y="334" type="curve" smooth="yes"/>
      <point x="555" y="430"/>
      <point x="514" y="485"/>
      <point x="441" y="485" type="curve" smooth="yes"/>
      <point x="370" y="485"/>
      <point x="330" y="432"/>
      <point x="330" y="334" type="curve" smooth="yes"/>
      <point x="330" y="236"/>
      <point x="369" y="182"/>
    </contour>
    <contour>
      <point x="441" y="206" type="curve" smooth="yes"/>
      <point x="387" y="206"/>
      <point x="353" y="250"/>
      <point x="353" y="335" type="curve" smooth="yes"/>
      <point x="353" y="415"/>
      <point x="385" y="461"/>
      <point x="441" y="461" type="curve" smooth="yes"/>
      <point x="499" y="461"/>
      <point x="529" y="414"/>
      <point x="529" y="335" type="curve" smooth="yes"/>
      <point x="529" y="252"/>
      <point x="497" y="206"/>
    </contour>
    <contour>
      <point x="487" y="-75" type="curve" smooth="yes"/>
      <point x="551" y="-75"/>
      <point x="597" y="-30"/>
      <point x="597" y="37" type="curve" smooth="yes"/>
      <point x="597" y="104"/>
      <point x="551" y="150"/>
      <point x="489" y="150" type="curve" smooth="yes"/>
      <point x="357" y="150"/>
      <point x="316" y="-51"/>
      <point x="204" y="-51" type="curve" smooth="yes"/>
      <point x="156" y="-51"/>
      <point x="118" y="-14"/>
      <point x="118" y="39" type="curve" smooth="yes"/>
      <point x="118" y="94"/>
      <point x="158" y="126"/>
      <point x="202" y="126" type="curve" smooth="yes"/>
      <point x="312" y="126"/>
      <point x="351" y="-75"/>
    </contour>
    <contour>
      <point x="203" y="-75" type="curve" smooth="yes"/>
      <point x="338" y="-75"/>
      <point x="374" y="126"/>
      <point x="487" y="126" type="curve" smooth="yes"/>
      <point x="532" y="126"/>
      <point x="572" y="93"/>
      <point x="572" y="39" type="curve" smooth="yes"/>
      <point x="572" y="-14"/>
      <point x="534" y="-51"/>
      <point x="487" y="-51" type="curve" smooth="yes"/>
      <point x="376" y="-51"/>
      <point x="326" y="150"/>
      <point x="200" y="150" type="curve" smooth="yes"/>
      <point x="140" y="150"/>
      <point x="93" y="106"/>
      <point x="93" y="37" type="curve" smooth="yes"/>
      <point x="93" y="-32"/>
      <point x="140" y="-75"/>
    </contour>
  </outline>
</glyph>
<glyph name="ca_ra-oriya" format="2">
  <advance width="677"/>
  <anchor x="303" y="93" name="bottom"/>
  <anchor x="334" y="751" name="top"/>
  <anchor x="574" y="751" name="topright"/>
  <outline>
    <contour>
      <point x="142" y="307" type="curve"/>
      <point x="152" y="331" type="line"/>
      <point x="92" y="380"/>
      <point x="64" y="439"/>
      <point x="64" y="511" type="curve" smooth="yes"/>
      <point x="64" y="659"/>
      <point x="197" y="735"/>
      <point x="333" y="735" type="curve" smooth="yes"/>
      <point x="472" y="735"/>
      <point x="613" y="656"/>
      <point x="613" y="496" type="curve" smooth="yes"/>
      <point x="613" y="430"/>
      <point x="587" y="375"/>
      <point x="547" y="333" type="curve"/>
      <point x="532" y="360" type="line"/>
      <point x="625" y="289" type="line"/>
      <point x="569" y="320" type="line"/>
      <point x="612" y="366"/>
      <point x="639" y="425"/>
      <point x="639" y="496" type="curve" smooth="yes"/>
      <point x="639" y="672"/>
      <point x="485" y="759"/>
      <point x="334" y="759" type="curve" smooth="yes"/>
      <point x="185" y="759"/>
      <point x="38" y="675"/>
      <point x="38" y="514" type="curve" smooth="yes"/>
      <point x="38" y="430"/>
      <point x="71" y="358"/>
    </contour>
    <contour>
      <point x="303" y="85" type="curve" smooth="yes"/>
      <point x="403" y="85"/>
      <point x="477" y="162"/>
      <point x="477" y="263" type="curve" smooth="yes"/>
      <point x="477" y="364"/>
      <point x="403" y="440"/>
      <point x="303" y="440" type="curve" smooth="yes"/>
      <point x="201" y="440"/>
      <point x="130" y="364"/>
      <point x="130" y="263" type="curve" smooth="yes"/>
      <point x="130" y="162"/>
      <point x="201" y="85"/>
    </contour>
    <contour>
      <point x="303" y="109" type="curve" smooth="yes"/>
      <point x="216" y="109"/>
      <point x="156" y="171"/>
      <point x="156" y="264" type="curve" smooth="yes"/>
      <point x="156" y="353"/>
      <point x="213" y="416"/>
      <point x="303" y="416" type="curve" smooth="yes"/>
      <point x="391" y="416"/>
      <point x="451" y="353"/>
      <point x="451" y="263" type="curve" smooth="yes"/>
      <point x="451" y="171"/>
      <point x="389" y="109"/>
    </contour>
    <contour>
      <point x="588" y="-47" type="line"/>
      <point x="588" y="103" type="line"/>
      <point x="562" y="103" type="line"/>
      <point x="562" y="-23" type="line"/>
      <point x="108" y="-23" type="line"/>
      <point x="108" y="-47" type="line"/>
    </contour>
  </outline>
</glyph>
<glyph name="da_bha-oriya" format="2">
  <advance width="810"/>
  <note>
dabhaorya
</note>
  <anchor x="348" y="93" name="bottom"/>
  <anchor x="656" y="93" name="bottom_ra"/>
  <anchor x="371" y="751" name="top"/>
  <anchor x="691" y="751" name="topright"/>
  <outline>
    <contour>
      <point x="796" y="44" type="line"/>
      <point x="732" y="61" type="line"/>
      <point x="821" y="128" type="line"/>
      <point x="813" y="67" type="line"/>
      <point x="673" y="248" type="line"/>
      <point x="665" y="229" type="line"/>
      <point x="720" y="282"/>
      <point x="766" y="368"/>
      <point x="766" y="460" type="curve" smooth="yes"/>
      <point x="766" y="654"/>
      <point x="563" y="759"/>
      <point x="371" y="759" type="curve" smooth="yes"/>
      <point x="200" y="759"/>
      <point x="38" y="675"/>
      <point x="38" y="507" type="curve" smooth="yes"/>
      <point x="38" y="421"/>
      <point x="81" y="351"/>
      <point x="156" y="300" type="curve"/>
      <point x="156" y="330" type="line"/>
      <point x="98" y="375"/>
      <point x="64" y="434"/>
      <point x="64" y="507" type="curve" smooth="yes"/>
      <point x="64" y="659"/>
      <point x="213" y="735"/>
      <point x="371" y="735" type="curve" smooth="yes"/>
      <point x="550" y="735"/>
      <point x="740" y="638"/>
      <point x="740" y="457" type="curve" smooth="yes"/>
      <point x="740" y="367"/>
      <point x="693" y="288"/>
      <point x="645" y="245" type="curve"/>
    </contour>
    <contour>
      <point x="361" y="85" type="curve" smooth="yes"/>
      <point x="495" y="85"/>
      <point x="593" y="148"/>
      <point x="593" y="281" type="curve" smooth="yes"/>
      <point x="593" y="413" type="line"/>
      <point x="567" y="413" type="line"/>
      <point x="567" y="275" type="line" smooth="yes"/>
      <point x="567" y="161"/>
      <point x="482" y="109"/>
      <point x="361" y="109" type="curve" smooth="yes"/>
      <point x="226" y="109"/>
      <point x="162" y="178"/>
      <point x="162" y="275" type="curve" smooth="yes"/>
      <point x="162" y="332"/>
      <point x="185" y="399"/>
      <point x="228" y="468" type="curve"/>
      <point x="206" y="479" type="line"/>
      <point x="160" y="408"/>
      <point x="136" y="339"/>
      <point x="136" y="276" type="curve" smooth="yes"/>
      <point x="136" y="167"/>
      <point x="208" y="85"/>
    </contour>
    <contour>
      <point x="358" y="228" type="curve" smooth="yes"/>
      <point x="425" y="228"/>
      <point x="445" y="274"/>
      <point x="445" y="345" type="curve"/>
      <point x="421" y="337" type="line"/>
      <point x="421" y="282"/>
      <point x="408" y="252"/>
      <point x="361" y="252" type="curve" smooth="yes"/>
      <point x="312" y="252"/>
      <point x="292" y="283"/>
      <point x="292" y="325" type="curve" smooth="yes"/>
      <point x="292" y="357"/>
      <point x="303" y="394"/>
      <point x="322" y="428" type="curve"/>
      <point x="300" y="439" type="line"/>
      <point x="278" y="400"/>
      <point x="266" y="359"/>
      <point x="266" y="324" type="curve" smooth="yes"/>
      <point x="266" y="269"/>
      <point x="295" y="228"/>
    </contour>
    <contour>
      <point x="504" y="228" type="curve" smooth="yes"/>
      <point x="553" y="228"/>
      <point x="578" y="257"/>
      <point x="590" y="277" type="curve"/>
      <point x="579" y="301" type="line"/>
      <point x="565" y="270"/>
      <point x="538" y="252"/>
      <point x="504" y="252" type="curve" smooth="yes"/>
      <point x="466" y="252"/>
      <point x="447" y="274"/>
      <point x="447" y="314" type="curve" smooth="yes"/>
      <point x="447" y="413" type="line"/>
      <point x="421" y="413" type="line"/>
      <point x="421" y="313" type="line" smooth="yes"/>
      <point x="421" y="262"/>
      <point x="450" y="228"/>
    </contour>
  </outline>
</glyph>
<glyph name="da_ra_uMatra-oriya" format="2">
  <advance width="667"/>
  <guideline x="104" y="-61" angle="90"/>
  <anchor x="333" y="751" name="top"/>
  <anchor x="564" y="751" name="topright"/>
  <outline>
    <contour>
      <point x="300" y="251" type="curve" smooth="yes"/>
      <point x="340" y="251"/>
      <point x="396" y="261"/>
      <point x="436" y="307" type="curve"/>
      <point x="430" y="337" type="line"/>
      <point x="399" y="287"/>
      <point x="338" y="275"/>
      <point x="300" y="275" type="curve" smooth="yes"/>
      <point x="223" y="275"/>
      <point x="182" y="321"/>
      <point x="182" y="370" type="curve" smooth="yes"/>
      <point x="182" y="410"/>
      <point x="208" y="463"/>
      <point x="268" y="493" type="curve"/>
      <point x="257" y="513" type="line"/>
      <point x="191" y="479"/>
      <point x="156" y="425"/>
      <point x="156" y="373" type="curve" smooth="yes"/>
      <point x="156" y="309"/>
      <point x="206" y="251"/>
    </contour>
    <contour>
      <point x="171" y="357" type="curve"/>
      <point x="178" y="381" type="line"/>
      <point x="91" y="424"/>
      <point x="64" y="482"/>
      <point x="64" y="541" type="curve" smooth="yes"/>
      <point x="64" y="674"/>
      <point x="200" y="735"/>
      <point x="333" y="735" type="curve" smooth="yes"/>
      <point x="468" y="735"/>
      <point x="603" y="673"/>
      <point x="603" y="544" type="curve" smooth="yes"/>
      <point x="603" y="492"/>
      <point x="581" y="447"/>
      <point x="544" y="412" type="curve"/>
      <point x="541" y="426" type="line"/>
      <point x="576" y="394" type="line"/>
      <point x="561" y="397" type="line"/>
      <point x="603" y="435"/>
      <point x="629" y="485"/>
      <point x="629" y="546" type="curve" smooth="yes"/>
      <point x="629" y="690"/>
      <point x="481" y="759"/>
      <point x="333" y="759" type="curve" smooth="yes"/>
      <point x="187" y="759"/>
      <point x="38" y="692"/>
      <point x="38" y="542" type="curve" smooth="yes"/>
      <point x="38" y="472"/>
      <point x="71" y="400"/>
    </contour>
    <contour>
      <point x="423" y="463" type="line"/>
      <point x="423" y="117" type="line"/>
      <point x="59" y="117" type="line"/>
      <point x="59" y="93" type="line"/>
      <point x="449" y="93" type="line"/>
      <point x="449" y="463" type="line"/>
    </contour>
    <contour>
      <point x="196" y="-110" type="curve" smooth="yes"/>
      <point x="275" y="-110"/>
      <point x="362" y="-50"/>
      <point x="362" y="95" type="curve" smooth="yes"/>
      <point x="362" y="101" type="line"/>
      <point x="336" y="101" type="line"/>
      <point x="336" y="95" type="line" smooth="yes"/>
      <point x="336" y="-34"/>
      <point x="260" y="-85"/>
      <point x="196" y="-85" type="curve" smooth="yes"/>
      <point x="153" y="-85"/>
      <point x="125" y="-65"/>
      <point x="125" y="-34" type="curve" smooth="yes"/>
      <point x="125" y="-5"/>
      <point x="151" y="14"/>
      <point x="190" y="14" type="curve" smooth="yes"/>
      <point x="290" y="14"/>
      <point x="332" y="-110"/>
      <point x="456" y="-110" type="curve" smooth="yes"/>
      <point x="478" y="-110"/>
      <point x="501" y="-106"/>
      <point x="523" y="-98" type="curve"/>
      <point x="519" y="-113" type="line"/>
      <point x="501" y="-58" type="line"/>
      <point x="514" y="-76" type="line"/>
      <point x="497" y="-82"/>
      <point x="478" y="-86"/>
      <point x="458" y="-86" type="curve" smooth="yes"/>
      <point x="347" y="-86"/>
      <point x="300" y="39"/>
      <point x="189" y="39" type="curve" smooth="yes"/>
      <point x="135" y="39"/>
      <point x="99" y="10"/>
      <point x="99" y="-34" type="curve" smooth="yes"/>
      <point x="99" y="-80"/>
      <point x="138" y="-110"/>
    </contour>
  </outline>
</glyph>
<glyph name="da_va-oriya" format="2">
  <advance width="717"/>
  <anchor x="459" y="93" name="bottom"/>
  <anchor x="565" y="93" name="bottom_ra"/>
  <anchor x="277" y="106" name="curve"/>
  <anchor x="350" y="751" name="top"/>
  <anchor x="614" y="751" name="topright"/>
  <anchor x="459" y="109" name="vertical"/>
  <outline>
    <contour>
      <point x="318" y="169" type="curve" smooth="yes"/>
      <point x="376" y="169"/>
      <point x="429" y="187"/>
      <point x="469" y="234" type="curve"/>
      <point x="464" y="261" type="line"/>
      <point x="428" y="213"/>
      <point x="375" y="193"/>
      <point x="318" y="193" type="curve" smooth="yes"/>
      <point x="233" y="193"/>
      <point x="193" y="245"/>
      <point x="193" y="304" type="curve" smooth="yes"/>
      <point x="193" y="358"/>
      <point x="227" y="420"/>
      <point x="289" y="453" type="curve"/>
      <point x="277" y="473" type="line"/>
      <point x="202" y="432"/>
      <point x="167" y="366"/>
      <point x="167" y="306" type="curve" smooth="yes"/>
      <point x="167" y="233"/>
      <point x="218" y="169"/>
    </contour>
    <contour>
      <point x="459" y="93" type="line"/>
      <point x="485" y="93" type="line"/>
      <point x="485" y="413" type="line"/>
      <point x="459" y="413" type="line"/>
      <point x="459" y="243" type="line"/>
      <point x="459" y="234" type="line"/>
    </contour>
    <contour>
      <point x="175" y="291" type="curve"/>
      <point x="181" y="316" type="line"/>
      <point x="104" y="360"/>
      <point x="64" y="431"/>
      <point x="64" y="510" type="curve" smooth="yes"/>
      <point x="64" y="644"/>
      <point x="184" y="735"/>
      <point x="349" y="735" type="curve" smooth="yes"/>
      <point x="503" y="735"/>
      <point x="653" y="655"/>
      <point x="653" y="496" type="curve" smooth="yes"/>
      <point x="653" y="432"/>
      <point x="629" y="379"/>
      <point x="590" y="337" type="curve"/>
      <point x="586" y="350" type="line"/>
      <point x="624" y="320" type="line"/>
      <point x="610" y="321" type="line"/>
      <point x="653" y="367"/>
      <point x="679" y="426"/>
      <point x="679" y="496" type="curve" smooth="yes"/>
      <point x="679" y="671"/>
      <point x="517" y="759"/>
      <point x="350" y="759" type="curve" smooth="yes"/>
      <point x="168" y="759"/>
      <point x="38" y="655"/>
      <point x="38" y="510" type="curve" smooth="yes"/>
      <point x="38" y="419"/>
      <point x="84" y="338"/>
    </contour>
    <contour>
      <point x="366" y="-75" type="curve" smooth="yes"/>
      <point x="405" y="-75"/>
      <point x="446" y="-62"/>
      <point x="476" y="-32" type="curve"/>
      <point x="471" y="-5" type="line"/>
      <point x="445" y="-38"/>
      <point x="402" y="-51"/>
      <point x="367" y="-51" type="curve" smooth="yes"/>
      <point x="309" y="-51"/>
      <point x="281" y="-16"/>
      <point x="281" y="31" type="curve" smooth="yes"/>
      <point x="281" y="55"/>
      <point x="289" y="84"/>
      <point x="304" y="110" type="curve"/>
      <point x="308" y="92" type="line"/>
      <point x="267" y="111" type="line"/>
      <point x="284" y="121" type="line"/>
      <point x="264" y="91"/>
      <point x="255" y="57"/>
      <point x="255" y="28" type="curve" smooth="yes"/>
      <point x="255" y="-28"/>
      <point x="293" y="-75"/>
    </contour>
    <contour>
      <point x="459" y="-151" type="line"/>
      <point x="485" y="-151" type="line"/>
      <point x="485" y="109" type="line"/>
      <point x="459" y="109" type="line"/>
      <point x="459" y="-29" type="line"/>
      <point x="459" y="-38" type="line"/>
    </contour>
  </outline>
</glyph>
<glyph name="dda_ra-oriya.REV_BRACKET.141" format="2">
  <advance width="703"/>
  <anchor x="348" y="751" name="top"/>
  <anchor x="600" y="751" name="topright"/>
  <outline>
    <contour>
      <point x="165" y="303" type="curve"/>
      <point x="174" y="329" type="line"/>
      <point x="105" y="365"/>
      <point x="64" y="440"/>
      <point x="64" y="515" type="curve" smooth="yes"/>
      <point x="64" y="624"/>
      <point x="148" y="735"/>
      <point x="349" y="735" type="curve" smooth="yes"/>
      <point x="493" y="735"/>
      <point x="639" y="656"/>
      <point x="639" y="496" type="curve" smooth="yes"/>
      <point x="639" y="430"/>
      <point x="614" y="375"/>
      <point x="568" y="330" type="curve"/>
      <point x="565" y="344" type="line"/>
      <point x="602" y="311" type="line"/>
      <point x="588" y="314" type="line"/>
      <point x="636" y="359"/>
      <point x="665" y="422"/>
      <point x="665" y="495" type="curve" smooth="yes"/>
      <point x="665" y="671"/>
      <point x="506" y="759"/>
      <point x="348" y="759" type="curve" smooth="yes"/>
      <point x="129" y="759"/>
      <point x="38" y="638"/>
      <point x="38" y="517" type="curve" smooth="yes"/>
      <point x="38" y="431"/>
      <point x="84" y="344"/>
    </contour>
    <contour>
      <point x="154" y="250" type="curve" smooth="yes"/>
      <point x="154" y="148"/>
      <point x="231" y="85"/>
      <point x="334" y="85" type="curve" smooth="yes"/>
      <point x="430" y="85"/>
      <point x="517" y="139"/>
      <point x="517" y="234" type="curve" smooth="yes"/>
      <point x="517" y="291"/>
      <point x="485" y="349"/>
      <point x="418" y="383" type="curve"/>
      <point x="399" y="367" type="line"/>
      <point x="459" y="337"/>
      <point x="491" y="289"/>
      <point x="491" y="235" type="curve" smooth="yes"/>
      <point x="491" y="152"/>
      <point x="414" y="109"/>
      <point x="336" y="109" type="curve" smooth="yes"/>
      <point x="245" y="109"/>
      <point x="180" y="167"/>
      <point x="180" y="250" type="curve" smooth="yes"/>
      <point x="180" y="306"/>
      <point x="209" y="380"/>
      <point x="291" y="450" type="curve"/>
      <point x="275" y="466" type="line"/>
      <point x="190" y="395"/>
      <point x="154" y="320"/>
    </contour>
    <contour>
      <point x="352" y="285" type="line"/>
      <point x="489" y="438" type="line"/>
      <point x="472" y="453" type="line"/>
      <point x="335" y="300" type="line"/>
    </contour>
    <contour>
      <point x="578" y="-47" type="line"/>
      <point x="578" y="103" type="line"/>
      <point x="552" y="103" type="line"/>
      <point x="552" y="-23" type="line"/>
      <point x="98" y="-23" type="line"/>
      <point x="98" y="-47" type="line"/>
    </contour>
  </outline>
</glyph>
<glyph name="dha_va-oriya" format="2">
  <advance width="599"/>
  <anchor x="284" y="751" name="top"/>
  <anchor x="516" y="751" name="topright"/>
  <outline>
    <contour>
      <point x="266" y="183" type="curve" smooth="yes"/>
      <point x="371" y="183"/>
      <point x="460" y="221"/>
      <point x="525" y="308" type="curve"/>
      <point x="514" y="335" type="line"/>
      <point x="450" y="244"/>
      <point x="367" y="207"/>
      <point x="268" y="207" type="curve" smooth="yes"/>
      <point x="132" y="207"/>
      <point x="64" y="288"/>
      <point x="64" y="376" type="curve" smooth="yes"/>
      <point x="64" y="460"/>
      <point x="131" y="533"/>
      <point x="263" y="560" type="curve"/>
      <point x="248" y="581" type="line"/>
      <point x="108" y="550"/>
      <point x="38" y="469"/>
      <point x="38" y="376" type="curve" smooth="yes"/>
      <point x="38" y="277"/>
      <point x="114" y="183"/>
    </contour>
    <contour>
      <point x="365" y="409" type="line"/>
      <point x="383" y="425" type="line"/>
      <point x="104" y="758" type="line"/>
      <point x="85" y="744" type="line"/>
    </contour>
    <contour>
      <point x="410" y="-75" type="curve" smooth="yes"/>
      <point x="449" y="-75"/>
      <point x="490" y="-62"/>
      <point x="520" y="-32" type="curve"/>
      <point x="515" y="-5" type="line"/>
      <point x="489" y="-38"/>
      <point x="446" y="-51"/>
      <point x="411" y="-51" type="curve" smooth="yes"/>
      <point x="353" y="-51"/>
      <point x="325" y="-16"/>
      <point x="325" y="31" type="curve" smooth="yes"/>
      <point x="325" y="56"/>
      <point x="334" y="87"/>
      <point x="350" y="113" type="curve"/>
      <point x="354" y="96" type="line"/>
      <point x="314" y="116" type="line"/>
      <point x="331" y="125" type="line"/>
      <point x="309" y="94"/>
      <point x="299" y="58"/>
      <point x="299" y="28" type="curve" smooth="yes"/>
      <point x="299" y="-28"/>
      <point x="337" y="-75"/>
    </contour>
    <contour>
      <point x="503" y="-151" type="line"/>
      <point x="529" y="-151" type="line"/>
      <point x="529" y="751" type="line"/>
      <point x="503" y="751" type="line"/>
      <point x="503" y="305" type="line"/>
      <point x="503" y="289" type="line"/>
      <point x="503" y="169" type="line"/>
      <point x="503" y="-25" type="line"/>
      <point x="503" y="-34" type="line"/>
    </contour>
  </outline>
</glyph>
<glyph name="ha-oriya.base" format="2">
  <advance width="621"/>
  <note>
hasquishorya
</note>
  <guideline x="789" y="141" angle="0"/>
  <guideline x="399" y="72" angle="90"/>
  <anchor x="386" y="203" name="bottom"/>
  <anchor x="299" y="751" name="top"/>
  <anchor x="518" y="751" name="topright"/>
  <outline>
    <contour>
      <point x="490" y="178" type="line"/>
      <point x="497" y="202" type="line"/>
      <point x="138" y="296" type="line"/>
      <point x="138" y="281" type="line"/>
      <point x="244" y="357" type="line"/>
      <point x="222" y="366" type="line"/>
      <point x="119" y="293" type="line"/>
      <point x="121" y="275" type="line"/>
    </contour>
    <contour>
      <point x="279" y="338" type="curve" smooth="yes"/>
      <point x="323" y="338"/>
      <point x="374" y="356"/>
      <point x="399" y="386" type="curve"/>
      <point x="397" y="425" type="line"/>
      <point x="381" y="387"/>
      <point x="327" y="362"/>
      <point x="279" y="362" type="curve" smooth="yes"/>
      <point x="214" y="362"/>
      <point x="180" y="401"/>
      <point x="180" y="447" type="curve" smooth="yes"/>
      <point x="180" y="488"/>
      <point x="207" y="535"/>
      <point x="262" y="565" type="curve"/>
      <point x="249" y="584" type="line"/>
      <point x="185" y="551"/>
      <point x="154" y="496"/>
      <point x="154" y="447" type="curve" smooth="yes"/>
      <point x="154" y="389"/>
      <point x="197" y="338"/>
    </contour>
    <contour>
      <point x="386" y="288" type="line"/>
      <point x="412" y="288" type="line"/>
      <point x="412" y="536" type="line"/>
      <point x="386" y="536" type="line"/>
      <point x="386" y="398" type="line"/>
      <point x="386" y="387" type="line"/>
    </contour>
    <contour>
      <point x="493" y="372" type="line"/>
      <point x="550" y="414"/>
      <point x="583" y="478"/>
      <point x="583" y="547" type="curve" smooth="yes"/>
      <point x="583" y="690"/>
      <point x="439" y="759"/>
      <point x="299" y="759" type="curve" smooth="yes"/>
      <point x="163" y="759"/>
      <point x="38" y="693"/>
      <point x="38" y="573" type="curve" smooth="yes"/>
      <point x="38" y="498"/>
      <point x="87" y="444"/>
      <point x="171" y="420" type="curve"/>
      <point x="178" y="442" type="line"/>
      <point x="99" y="465"/>
      <point x="64" y="517"/>
      <point x="64" y="574" type="curve" smooth="yes"/>
      <point x="64" y="679"/>
      <point x="182" y="735"/>
      <point x="297" y="735" type="curve" smooth="yes"/>
      <point x="417" y="735"/>
      <point x="557" y="675"/>
      <point x="557" y="544" type="curve" smooth="yes"/>
      <point x="557" y="480"/>
      <point x="524" y="426"/>
      <point x="472" y="388" type="curve"/>
      <point x="462" y="447" type="line"/>
      <point x="555" y="375" type="line"/>
    </contour>
  </outline>
</glyph>
<glyph name="ha-oriya.below" format="2">
  <note>
hasubscriptorya
</note>
  <guideline x="200" y="157" angle="90"/>
  <anchor x="245" y="203" name="_bottom"/>
  <outline>
    <contour>
      <point x="102" y="-3" type="curve"/>
      <point x="102" y="21" type="line"/>
      <point x="72" y="31"/>
      <point x="53" y="60"/>
      <point x="53" y="90" type="curve" smooth="yes"/>
      <point x="53" y="139"/>
      <point x="95" y="186"/>
      <point x="191" y="186" type="curve" smooth="yes"/>
      <point x="284" y="186"/>
      <point x="347" y="143"/>
      <point x="347" y="73" type="curve" smooth="yes"/>
      <point x="347" y="40"/>
      <point x="328" y="8"/>
      <point x="300" y="-14" type="curve"/>
      <point x="297" y="16" type="line"/>
      <point x="346" y="-25" type="line"/>
      <point x="323" y="-25" type="line"/>
      <point x="353" y="1"/>
      <point x="372" y="36"/>
      <point x="372" y="76" type="curve" smooth="yes"/>
      <point x="372" y="154"/>
      <point x="300" y="209"/>
      <point x="190" y="209" type="curve" smooth="yes"/>
      <point x="78" y="209"/>
      <point x="28" y="151"/>
      <point x="28" y="95" type="curve" smooth="yes"/>
      <point x="28" y="53"/>
      <point x="55" y="13"/>
    </contour>
    <contour>
      <point x="312" y="-155" type="line"/>
      <point x="317" y="-135" type="line"/>
      <point x="84" y="-73" type="line"/>
      <point x="87" y="-95" type="line"/>
      <point x="164" y="-39" type="line"/>
      <point x="144" y="-29" type="line"/>
      <point x="74" y="-79" type="line"/>
      <point x="77" y="-93" type="line"/>
    </contour>
    <contour>
      <point x="97" y="11" type="curve" smooth="yes"/>
      <point x="97" y="-37"/>
      <point x="139" y="-59"/>
      <point x="181" y="-59" type="curve" smooth="yes"/>
      <point x="213" y="-59"/>
      <point x="246" y="-46"/>
      <point x="262" y="-20" type="curve"/>
      <point x="256" y="3" type="line"/>
      <point x="242" y="-23"/>
      <point x="210" y="-36"/>
      <point x="181" y="-36" type="curve" smooth="yes"/>
      <point x="150" y="-36"/>
      <point x="122" y="-21"/>
      <point x="122" y="10" type="curve" smooth="yes"/>
      <point x="122" y="35"/>
      <point x="136" y="63"/>
      <point x="171" y="81" type="curve"/>
      <point x="161" y="101" type="line"/>
      <point x="116" y="81"/>
      <point x="97" y="44"/>
    </contour>
    <contour>
      <point x="239" y="-85" type="line"/>
      <point x="264" y="-85" type="line"/>
      <point x="264" y="71" type="line"/>
      <point x="239" y="71" type="line"/>
      <point x="238" y="-25" type="line"/>
      <point x="238" y="-31" type="line"/>
    </contour>
  </outline>
</glyph>
<glyph name="ha_ka-oriya" format="2">
  <advance width="621"/>
  <note>
hakaorya
</note>
  <guideline x="488" y="91" angle="90"/>
  <guideline x="412" y="372" angle="90"/>
  <anchor x="299" y="751" name="top"/>
  <anchor x="518" y="751" name="topright"/>
  <outline>
    <contour>
      <point x="276" y="338" type="curve" smooth="yes"/>
      <point x="323" y="338"/>
      <point x="374" y="356"/>
      <point x="399" y="386" type="curve"/>
      <point x="397" y="425" type="line"/>
      <point x="381" y="387"/>
      <point x="327" y="362"/>
      <point x="279" y="362" type="curve" smooth="yes"/>
      <point x="214" y="362"/>
      <point x="180" y="401"/>
      <point x="180" y="447" type="curve" smooth="yes"/>
      <point x="180" y="488"/>
      <point x="207" y="535"/>
      <point x="262" y="565" type="curve"/>
      <point x="249" y="584" type="line"/>
      <point x="185" y="551"/>
      <point x="154" y="496"/>
      <point x="154" y="447" type="curve" smooth="yes"/>
      <point x="154" y="389"/>
      <point x="198" y="338"/>
    </contour>
    <contour>
      <point x="386" y="288" type="line"/>
      <point x="412" y="288" type="line"/>
      <point x="412" y="536" type="line"/>
      <point x="386" y="536" type="line"/>
      <point x="386" y="398" type="line"/>
      <point x="386" y="387" type="line"/>
    </contour>
    <contour>
      <point x="493" y="372" type="line"/>
      <point x="550" y="414"/>
      <point x="583" y="478"/>
      <point x="583" y="547" type="curve" smooth="yes"/>
      <point x="583" y="690"/>
      <point x="439" y="759"/>
      <point x="299" y="759" type="curve" smooth="yes"/>
      <point x="163" y="759"/>
      <point x="38" y="693"/>
      <point x="38" y="573" type="curve" smooth="yes"/>
      <point x="38" y="498"/>
      <point x="87" y="444"/>
      <point x="171" y="420" type="curve"/>
      <point x="178" y="442" type="line"/>
      <point x="99" y="465"/>
      <point x="64" y="517"/>
      <point x="64" y="574" type="curve" smooth="yes"/>
      <point x="64" y="679"/>
      <point x="182" y="735"/>
      <point x="297" y="735" type="curve" smooth="yes"/>
      <point x="417" y="735"/>
      <point x="557" y="675"/>
      <point x="557" y="544" type="curve" smooth="yes"/>
      <point x="557" y="480"/>
      <point x="524" y="426"/>
      <point x="472" y="388" type="curve"/>
      <point x="462" y="447" type="line"/>
      <point x="555" y="375" type="line"/>
    </contour>
    <contour>
      <point x="224" y="-9" type="curve" smooth="yes"/>
      <point x="285" y="-9"/>
      <point x="324" y="33"/>
      <point x="324" y="99" type="curve" smooth="yes"/>
      <point x="324" y="165"/>
      <point x="285" y="209"/>
      <point x="225" y="209" type="curve" smooth="yes"/>
      <point x="165" y="209"/>
      <point x="123" y="165"/>
      <point x="123" y="100" type="curve" smooth="yes"/>
      <point x="123" y="35"/>
      <point x="165" y="-9"/>
    </contour>
    <contour>
      <point x="225" y="14" type="curve" smooth="yes"/>
      <point x="180" y="14"/>
      <point x="148" y="49"/>
      <point x="148" y="100" type="curve" smooth="yes"/>
      <point x="148" y="151"/>
      <point x="180" y="186"/>
      <point x="225" y="186" type="curve" smooth="yes"/>
      <point x="269" y="186"/>
      <point x="299" y="151"/>
      <point x="299" y="99" type="curve" smooth="yes"/>
      <point x="299" y="46"/>
      <point x="268" y="14"/>
    </contour>
    <contour>
      <point x="418" y="208" type="curve" smooth="yes"/>
      <point x="153" y="291" type="line"/>
      <point x="244" y="357" type="line"/>
      <point x="222" y="366" type="line"/>
      <point x="119" y="293" type="line"/>
      <point x="121" y="276" type="line"/>
      <point x="371" y="198" type="line"/>
      <point x="364" y="204" type="line"/>
      <point x="325" y="192"/>
      <point x="303" y="155"/>
      <point x="301" y="100" type="curve" smooth="yes"/>
      <point x="299" y="53" type="line"/>
      <point x="299" y="-71" type="line"/>
      <point x="325" y="-71" type="line"/>
      <point x="325" y="99" type="line" smooth="yes"/>
      <point x="325" y="153"/>
      <point x="352" y="186"/>
      <point x="393" y="186" type="curve" smooth="yes"/>
      <point x="436" y="186"/>
      <point x="462" y="153"/>
      <point x="462" y="99" type="curve" smooth="yes"/>
      <point x="462" y="-71" type="line"/>
      <point x="488" y="-71" type="line"/>
      <point x="488" y="100" type="line" smooth="yes"/>
      <point x="488" y="157"/>
      <point x="471" y="191"/>
    </contour>
  </outline>
</glyph>
<glyph name="ha_na-oriya" format="2">
  <advance width="621"/>
  <note>
hanaorya
</note>
  <guideline x="488" y="380" angle="90"/>
  <guideline x="412" y="372" angle="90"/>
  <anchor x="299" y="751" name="top"/>
  <anchor x="518" y="751" name="topright"/>
  <outline>
    <contour>
      <point x="481" y="183" type="line"/>
      <point x="488" y="205" type="line"/>
      <point x="138" y="296" type="line"/>
      <point x="138" y="281" type="line"/>
      <point x="244" y="357" type="line"/>
      <point x="222" y="366" type="line"/>
      <point x="119" y="293" type="line"/>
      <point x="121" y="277" type="line"/>
    </contour>
    <contour>
      <point x="279" y="338" type="curve" smooth="yes"/>
      <point x="323" y="338"/>
      <point x="374" y="356"/>
      <point x="399" y="386" type="curve"/>
      <point x="397" y="425" type="line"/>
      <point x="381" y="387"/>
      <point x="327" y="362"/>
      <point x="279" y="362" type="curve" smooth="yes"/>
      <point x="214" y="362"/>
      <point x="180" y="401"/>
      <point x="180" y="447" type="curve" smooth="yes"/>
      <point x="180" y="488"/>
      <point x="207" y="535"/>
      <point x="262" y="565" type="curve"/>
      <point x="249" y="584" type="line"/>
      <point x="185" y="551"/>
      <point x="154" y="496"/>
      <point x="154" y="447" type="curve" smooth="yes"/>
      <point x="154" y="389"/>
      <point x="197" y="338"/>
    </contour>
    <contour>
      <point x="386" y="288" type="line"/>
      <point x="412" y="288" type="line"/>
      <point x="412" y="536" type="line"/>
      <point x="386" y="536" type="line"/>
      <point x="386" y="398" type="line"/>
      <point x="386" y="387" type="line"/>
    </contour>
    <contour>
      <point x="493" y="372" type="line"/>
      <point x="550" y="414"/>
      <point x="583" y="478"/>
      <point x="583" y="547" type="curve" smooth="yes"/>
      <point x="583" y="690"/>
      <point x="439" y="759"/>
      <point x="299" y="759" type="curve" smooth="yes"/>
      <point x="163" y="759"/>
      <point x="38" y="693"/>
      <point x="38" y="573" type="curve" smooth="yes"/>
      <point x="38" y="498"/>
      <point x="87" y="444"/>
      <point x="171" y="420" type="curve"/>
      <point x="178" y="442" type="line"/>
      <point x="99" y="465"/>
      <point x="64" y="517"/>
      <point x="64" y="574" type="curve" smooth="yes"/>
      <point x="64" y="679"/>
      <point x="182" y="735"/>
      <point x="297" y="735" type="curve" smooth="yes"/>
      <point x="417" y="735"/>
      <point x="557" y="675"/>
      <point x="557" y="544" type="curve" smooth="yes"/>
      <point x="557" y="480"/>
      <point x="524" y="426"/>
      <point x="472" y="388" type="curve"/>
      <point x="462" y="447" type="line"/>
      <point x="555" y="375" type="line"/>
    </contour>
    <contour>
      <point x="239" y="-75" type="curve" smooth="yes"/>
      <point x="260" y="-75"/>
      <point x="278" y="-62"/>
      <point x="278" y="-39" type="curve" smooth="yes"/>
      <point x="278" y="-20"/>
      <point x="265" y="-4"/>
      <point x="240" y="-4" type="curve" smooth="yes"/>
      <point x="222" y="-4"/>
      <point x="211" y="-13"/>
      <point x="199" y="-25" type="curve"/>
      <point x="235" y="-57" type="line"/>
      <point x="221" y="-36"/>
      <point x="215" y="-24"/>
      <point x="215" y="-12" type="curve" smooth="yes"/>
      <point x="215" y="90"/>
      <point x="314" y="186"/>
      <point x="426" y="186" type="curve" smooth="yes"/>
      <point x="456" y="186"/>
      <point x="471" y="183"/>
      <point x="485" y="180" type="curve"/>
      <point x="462" y="197" type="line"/>
      <point x="462" y="-71" type="line"/>
      <point x="488" y="-71" type="line"/>
      <point x="488" y="205" type="line"/>
      <point x="474" y="207"/>
      <point x="452" y="209"/>
      <point x="426" y="209" type="curve" smooth="yes"/>
      <point x="291" y="209"/>
      <point x="190" y="103"/>
      <point x="190" y="-11" type="curve" smooth="yes"/>
      <point x="190" y="-42"/>
      <point x="202" y="-75"/>
    </contour>
  </outline>
</glyph>
<glyph name="ha_ra-oriya" format="2">
  <advance width="669"/>
  <guideline x="120" y="187" angle="90"/>
  <anchor x="323" y="751" name="top"/>
  <anchor x="566" y="751" name="topright"/>
  <outline>
    <contour>
      <point x="538" y="312" type="line"/>
      <point x="595" y="360"/>
      <point x="631" y="428"/>
      <point x="631" y="510" type="curve" smooth="yes"/>
      <point x="631" y="677"/>
      <point x="475" y="758"/>
      <point x="323" y="758" type="curve" smooth="yes"/>
      <point x="179" y="758"/>
      <point x="38" y="684"/>
      <point x="38" y="544" type="curve" smooth="yes"/>
      <point x="38" y="466"/>
      <point x="84" y="395"/>
      <point x="179" y="365" type="curve"/>
      <point x="185" y="389" type="line"/>
      <point x="104" y="415"/>
      <point x="64" y="477"/>
      <point x="64" y="546" type="curve" smooth="yes"/>
      <point x="64" y="668"/>
      <point x="191" y="734"/>
      <point x="322" y="734" type="curve" smooth="yes"/>
      <point x="461" y="734"/>
      <point x="605" y="660"/>
      <point x="605" y="507" type="curve" smooth="yes"/>
      <point x="605" y="432"/>
      <point x="570" y="370"/>
      <point x="518" y="327" type="curve"/>
      <point x="506" y="388" type="line"/>
      <point x="600" y="312" type="line"/>
    </contour>
    <contour>
      <point x="305" y="269" type="curve" smooth="yes"/>
      <point x="356" y="269"/>
      <point x="401" y="286"/>
      <point x="436" y="330" type="curve"/>
      <point x="431" y="357" type="line"/>
      <point x="400" y="313"/>
      <point x="355" y="293"/>
      <point x="305" y="293" type="curve" smooth="yes"/>
      <point x="226" y="293"/>
      <point x="191" y="341"/>
      <point x="191" y="395" type="curve" smooth="yes"/>
      <point x="191" y="446"/>
      <point x="222" y="505"/>
      <point x="279" y="535" type="curve"/>
      <point x="267" y="554" type="line"/>
      <point x="197" y="516"/>
      <point x="165" y="454"/>
      <point x="165" y="397" type="curve" smooth="yes"/>
      <point x="165" y="329"/>
      <point x="211" y="269"/>
    </contour>
    <contour>
      <point x="418" y="209" type="line"/>
      <point x="444" y="209" type="line"/>
      <point x="444" y="499" type="line"/>
      <point x="418" y="499" type="line"/>
      <point x="418" y="337" type="line"/>
      <point x="418" y="328" type="line"/>
    </contour>
    <contour>
      <point x="528" y="79" type="line"/>
      <point x="509" y="103" type="line"/>
      <point x="509" y="-23" type="line"/>
      <point x="115" y="-23" type="line"/>
      <point x="115" y="-47" type="line"/>
      <point x="535" y="-47" type="line"/>
      <point x="535" y="103" type="line"/>
      <point x="140" y="215" type="line"/>
      <point x="140" y="199" type="line"/>
      <point x="253" y="286" type="line"/>
      <point x="234" y="299" type="line"/>
      <point x="120" y="213" type="line"/>
      <point x="122" y="194" type="line"/>
    </contour>
  </outline>
</glyph>
<glyph name="ha_uu-oriya" format="2">
  <advance width="621"/>
  <note>
huuorya
</note>
  <guideline x="386" y="191" angle="90"/>
  <guideline x="412" y="191" angle="90"/>
  <anchor x="299" y="751" name="top"/>
  <anchor x="518" y="751" name="topright"/>
  <outline>
    <contour>
      <point x="412" y="137" type="curve"/>
      <point x="412" y="203" type="line"/>
      <point x="386" y="219" type="line"/>
      <point x="386" y="203" type="line"/>
      <point x="386" y="146" type="line"/>
      <point x="395" y="161" type="line"/>
      <point x="279" y="161"/>
      <point x="222" y="133"/>
      <point x="222" y="68" type="curve" smooth="yes"/>
      <point x="222" y="6"/>
      <point x="272" y="-19"/>
      <point x="329" y="-19" type="curve" smooth="yes"/>
      <point x="383" y="-19"/>
      <point x="431" y="3"/>
      <point x="466" y="31" type="curve"/>
      <point x="504" y="4"/>
      <point x="541" y="-19"/>
      <point x="587" y="-19" type="curve" smooth="yes"/>
      <point x="605" y="-19"/>
      <point x="624" y="-16"/>
      <point x="645" y="-10" type="curve"/>
      <point x="638" y="13" type="line"/>
      <point x="618" y="7"/>
      <point x="601" y="5"/>
      <point x="589" y="5" type="curve" smooth="yes"/>
      <point x="547" y="5"/>
      <point x="508" y="32"/>
      <point x="466" y="63" type="curve"/>
      <point x="430" y="29"/>
      <point x="382" y="5"/>
      <point x="327" y="5" type="curve" smooth="yes"/>
      <point x="283" y="5"/>
      <point x="248" y="25"/>
      <point x="248" y="68" type="curve" smooth="yes"/>
      <point x="248" y="121"/>
      <point x="304" y="137"/>
    </contour>
    <contour>
      <point x="490" y="178" type="line"/>
      <point x="497" y="202" type="line"/>
      <point x="138" y="296" type="line"/>
      <point x="138" y="281" type="line"/>
      <point x="244" y="357" type="line"/>
      <point x="222" y="366" type="line"/>
      <point x="119" y="293" type="line"/>
      <point x="121" y="275" type="line"/>
    </contour>
    <contour>
      <point x="279" y="338" type="curve" smooth="yes"/>
      <point x="323" y="338"/>
      <point x="374" y="356"/>
      <point x="399" y="386" type="curve"/>
      <point x="397" y="425" type="line"/>
      <point x="381" y="387"/>
      <point x="327" y="362"/>
      <point x="279" y="362" type="curve" smooth="yes"/>
      <point x="214" y="362"/>
      <point x="180" y="401"/>
      <point x="180" y="447" type="curve" smooth="yes"/>
      <point x="180" y="488"/>
      <point x="207" y="535"/>
      <point x="262" y="565" type="curve"/>
      <point x="249" y="584" type="line"/>
      <point x="185" y="551"/>
      <point x="154" y="496"/>
      <point x="154" y="447" type="curve" smooth="yes"/>
      <point x="154" y="389"/>
      <point x="197" y="338"/>
    </contour>
    <contour>
      <point x="386" y="288" type="line"/>
      <point x="412" y="288" type="line"/>
      <point x="412" y="536" type="line"/>
      <point x="386" y="536" type="line"/>
      <point x="386" y="398" type="line"/>
      <point x="386" y="387" type="line"/>
    </contour>
    <contour>
      <point x="493" y="372" type="line"/>
      <point x="550" y="414"/>
      <point x="583" y="478"/>
      <point x="583" y="547" type="curve" smooth="yes"/>
      <point x="583" y="690"/>
      <point x="439" y="759"/>
      <point x="299" y="759" type="curve" smooth="yes"/>
      <point x="163" y="759"/>
      <point x="38" y="693"/>
      <point x="38" y="573" type="curve" smooth="yes"/>
      <point x="38" y="498"/>
      <point x="87" y="444"/>
      <point x="171" y="420" type="curve"/>
      <point x="178" y="442" type="line"/>
      <point x="99" y="465"/>
      <point x="64" y="517"/>
      <point x="64" y="574" type="curve" smooth="yes"/>
      <point x="64" y="679"/>
      <point x="182" y="735"/>
      <point x="297" y="735" type="curve" smooth="yes"/>
      <point x="417" y="735"/>
      <point x="557" y="675"/>
      <point x="557" y="544" type="curve" smooth="yes"/>
      <point x="557" y="480"/>
      <point x="524" y="426"/>
      <point x="472" y="388" type="curve"/>
      <point x="462" y="447" type="line"/>
      <point x="555" y="375" type="line"/>
    </contour>
  </outline>
</glyph>
<glyph name="iMatra-oriya.wide" format="2">
  <note>
ivowelsignorya
</note>
  <anchor x="300" y="751" name="_top"/>
  <outline>
    <contour>
      <point x="22" y="807" type="line"/>
      <point x="88" y="870"/>
      <point x="192" y="905"/>
      <point x="301" y="905" type="curve" smooth="yes"/>
      <point x="410" y="905"/>
      <point x="514" y="870"/>
      <point x="581" y="807" type="curve"/>
      <point x="600" y="825" type="line"/>
      <point x="523" y="891"/>
      <point x="414" y="929"/>
      <point x="301" y="929" type="curve" smooth="yes"/>
      <point x="189" y="929"/>
      <point x="79" y="891"/>
      <point x="3" y="825" type="curve"/>
    </contour>
  </outline>
</glyph>
<glyph name="ja-oriya.base" format="2">
  <advance width="667"/>
  <anchor x="489" y="203" name="bottom"/>
  <anchor x="334" y="751" name="top"/>
  <anchor x="564" y="751" name="topright"/>
  <outline>
    <contour>
      <point x="265" y="183" type="curve" smooth="yes"/>
      <point x="309" y="183"/>
      <point x="348" y="194"/>
      <point x="386" y="218" type="curve"/>
      <point x="364" y="188" type="line"/>
      <point x="340" y="245"/>
      <point x="324" y="294"/>
      <point x="324" y="349" type="curve" smooth="yes"/>
      <point x="324" y="405"/>
      <point x="342" y="463"/>
      <point x="404" y="463" type="curve" smooth="yes"/>
      <point x="452" y="463"/>
      <point x="476" y="428"/>
      <point x="476" y="372" type="curve" smooth="yes"/>
      <point x="476" y="189" type="line"/>
      <point x="502" y="189" type="line"/>
      <point x="502" y="382" type="line" smooth="yes"/>
      <point x="502" y="440"/>
      <point x="468" y="487"/>
      <point x="403" y="487" type="curve" smooth="yes"/>
      <point x="328" y="487"/>
      <point x="298" y="424"/>
      <point x="298" y="349" type="curve" smooth="yes"/>
      <point x="298" y="305"/>
      <point x="308" y="258"/>
      <point x="332" y="197" type="curve"/>
      <point x="345" y="225" type="line"/>
      <point x="320" y="213"/>
      <point x="291" y="207"/>
      <point x="262" y="207" type="curve" smooth="yes"/>
      <point x="191" y="207"/>
      <point x="144" y="243"/>
      <point x="144" y="316" type="curve" smooth="yes"/>
      <point x="144" y="380"/>
      <point x="177" y="438"/>
      <point x="241" y="490" type="curve"/>
      <point x="226" y="508" type="line"/>
      <point x="158" y="455"/>
      <point x="118" y="393"/>
      <point x="118" y="317" type="curve" smooth="yes"/>
      <point x="118" y="232"/>
      <point x="171" y="183"/>
    </contour>
    <contour>
      <point x="136" y="372" type="curve"/>
      <point x="143" y="396" type="line"/>
      <point x="94" y="439"/>
      <point x="64" y="487"/>
      <point x="64" y="546" type="curve" smooth="yes"/>
      <point x="64" y="672"/>
      <point x="199" y="735"/>
      <point x="334" y="735" type="curve" smooth="yes"/>
      <point x="469" y="735"/>
      <point x="603" y="673"/>
      <point x="603" y="545" type="curve" smooth="yes"/>
      <point x="603" y="492"/>
      <point x="581" y="447"/>
      <point x="544" y="412" type="curve"/>
      <point x="541" y="426" type="line"/>
      <point x="576" y="394" type="line"/>
      <point x="561" y="397" type="line"/>
      <point x="603" y="435"/>
      <point x="629" y="485"/>
      <point x="629" y="546" type="curve" smooth="yes"/>
      <point x="629" y="690"/>
      <point x="481" y="759"/>
      <point x="334" y="759" type="curve" smooth="yes"/>
      <point x="186" y="759"/>
      <point x="38" y="689"/>
      <point x="38" y="548" type="curve" smooth="yes"/>
      <point x="38" y="480"/>
      <point x="72" y="421"/>
    </contour>
  </outline>
</glyph>
<glyph name="ja-oriya.below" format="2">
  <note>
jasubscriptorya
</note>
  <guideline x="210" y="124" angle="0"/>
  <guideline x="209" y="199" angle="90"/>
  <guideline x="89" y="113" angle="0"/>
  <anchor x="269" y="203" name="_bottom"/>
  <outline>
    <contour>
      <point x="158" y="-75" type="curve" smooth="yes"/>
      <point x="204" y="-75"/>
      <point x="254" y="-60"/>
      <point x="284" y="-43" type="curve"/>
      <point x="261" y="-67" type="line"/>
      <point x="241" y="-23"/>
      <point x="225" y="32"/>
      <point x="225" y="81" type="curve" smooth="yes"/>
      <point x="225" y="148"/>
      <point x="254" y="186"/>
      <point x="303" y="186" type="curve" smooth="yes"/>
      <point x="345" y="186"/>
      <point x="366" y="157"/>
      <point x="366" y="110" type="curve" smooth="yes"/>
      <point x="366" y="-71" type="line"/>
      <point x="392" y="-71" type="line"/>
      <point x="392" y="113" type="line" smooth="yes"/>
      <point x="392" y="171"/>
      <point x="361" y="209"/>
      <point x="302" y="209" type="curve" smooth="yes"/>
      <point x="236" y="209"/>
      <point x="200" y="162"/>
      <point x="200" y="80" type="curve" smooth="yes"/>
      <point x="200" y="37"/>
      <point x="210" y="-6"/>
      <point x="230" y="-58" type="curve"/>
      <point x="241" y="-35" type="line"/>
      <point x="221" y="-45"/>
      <point x="186" y="-52"/>
      <point x="161" y="-52" type="curve" smooth="yes"/>
      <point x="95" y="-52"/>
      <point x="53" y="-15"/>
      <point x="53" y="47" type="curve" smooth="yes"/>
      <point x="53" y="114"/>
      <point x="101" y="177"/>
      <point x="154" y="218" type="curve"/>
      <point x="131" y="181" type="line"/>
      <point x="97" y="213" type="line"/>
      <point x="138" y="235" type="line"/>
      <point x="77" y="187"/>
      <point x="28" y="125"/>
      <point x="28" y="48" type="curve" smooth="yes"/>
      <point x="28" y="-33"/>
      <point x="82" y="-75"/>
    </contour>
  </outline>
</glyph>
<glyph name="ja_ja-oriya" format="2">
  <advance width="667"/>
  <note>
jajaorya
</note>
  <guideline x="502" y="177" angle="90"/>
  <guideline x="578" y="177" angle="90"/>
  <anchor x="334" y="751" name="top"/>
  <anchor x="564" y="751" name="topright"/>
  <outline>
    <contour>
      <point x="136" y="372" type="curve"/>
      <point x="143" y="396" type="line"/>
      <point x="94" y="439"/>
      <point x="64" y="487"/>
      <point x="64" y="546" type="curve" smooth="yes"/>
      <point x="64" y="672"/>
      <point x="199" y="735"/>
      <point x="334" y="735" type="curve" smooth="yes"/>
      <point x="469" y="735"/>
      <point x="603" y="673"/>
      <point x="603" y="545" type="curve" smooth="yes"/>
      <point x="603" y="492"/>
      <point x="581" y="447"/>
      <point x="544" y="412" type="curve"/>
      <point x="541" y="426" type="line"/>
      <point x="576" y="394" type="line"/>
      <point x="561" y="397" type="line"/>
      <point x="603" y="435"/>
      <point x="629" y="485"/>
      <point x="629" y="546" type="curve" smooth="yes"/>
      <point x="629" y="690"/>
      <point x="481" y="759"/>
      <point x="334" y="759" type="curve" smooth="yes"/>
      <point x="186" y="759"/>
      <point x="38" y="689"/>
      <point x="38" y="548" type="curve" smooth="yes"/>
      <point x="38" y="480"/>
      <point x="72" y="421"/>
    </contour>
    <contour>
      <point x="344" y="-75" type="curve" smooth="yes"/>
      <point x="390" y="-75"/>
      <point x="440" y="-60"/>
      <point x="470" y="-43" type="curve"/>
      <point x="447" y="-67" type="line"/>
      <point x="427" y="-23"/>
      <point x="411" y="32"/>
      <point x="411" y="81" type="curve" smooth="yes"/>
      <point x="411" y="148"/>
      <point x="440" y="186"/>
      <point x="489" y="186" type="curve" smooth="yes"/>
      <point x="531" y="186"/>
      <point x="553" y="157"/>
      <point x="553" y="110" type="curve" smooth="yes"/>
      <point x="553" y="-71" type="line"/>
      <point x="578" y="-71" type="line"/>
      <point x="578" y="113" type="line" smooth="yes"/>
      <point x="578" y="171"/>
      <point x="547" y="209"/>
      <point x="488" y="209" type="curve" smooth="yes"/>
      <point x="422" y="209"/>
      <point x="386" y="162"/>
      <point x="386" y="80" type="curve" smooth="yes"/>
      <point x="386" y="37"/>
      <point x="396" y="-6"/>
      <point x="416" y="-58" type="curve"/>
      <point x="427" y="-35" type="line"/>
      <point x="407" y="-45"/>
      <point x="372" y="-52"/>
      <point x="347" y="-52" type="curve" smooth="yes"/>
      <point x="281" y="-52"/>
      <point x="239" y="-15"/>
      <point x="239" y="47" type="curve" smooth="yes"/>
      <point x="239" y="104"/>
      <point x="274" y="158"/>
      <point x="317" y="198" type="curve"/>
      <point x="286" y="202" type="line"/>
      <point x="244" y="159"/>
      <point x="214" y="108"/>
      <point x="214" y="48" type="curve" smooth="yes"/>
      <point x="214" y="-33"/>
      <point x="268" y="-75"/>
    </contour>
    <contour>
      <point x="265" y="183" type="curve" smooth="yes"/>
      <point x="309" y="183"/>
      <point x="348" y="194"/>
      <point x="386" y="218" type="curve"/>
      <point x="364" y="188" type="line"/>
      <point x="340" y="245"/>
      <point x="324" y="294"/>
      <point x="324" y="349" type="curve" smooth="yes"/>
      <point x="324" y="405"/>
      <point x="342" y="463"/>
      <point x="404" y="463" type="curve" smooth="yes"/>
      <point x="452" y="463"/>
      <point x="476" y="428"/>
      <point x="476" y="372" type="curve" smooth="yes"/>
      <point x="476" y="189" type="line"/>
      <point x="502" y="189" type="line"/>
      <point x="502" y="382" type="line" smooth="yes"/>
      <point x="502" y="440"/>
      <point x="468" y="487"/>
      <point x="403" y="487" type="curve" smooth="yes"/>
      <point x="328" y="487"/>
      <point x="298" y="424"/>
      <point x="298" y="349" type="curve" smooth="yes"/>
      <point x="298" y="305"/>
      <point x="308" y="258"/>
      <point x="332" y="197" type="curve"/>
      <point x="345" y="225" type="line"/>
      <point x="320" y="213"/>
      <point x="291" y="207"/>
      <point x="262" y="207" type="curve" smooth="yes"/>
      <point x="191" y="207"/>
      <point x="144" y="243"/>
      <point x="144" y="316" type="curve" smooth="yes"/>
      <point x="144" y="380"/>
      <point x="177" y="438"/>
      <point x="241" y="490" type="curve"/>
      <point x="226" y="508" type="line"/>
      <point x="158" y="455"/>
      <point x="118" y="393"/>
      <point x="118" y="317" type="curve" smooth="yes"/>
      <point x="118" y="232"/>
      <point x="171" y="183"/>
    </contour>
  </outline>
</glyph>
<glyph name="ja_ra-oriya" format="2">
  <advance width="717"/>
  <guideline x="121" y="128" angle="90"/>
  <anchor x="350" y="751" name="top"/>
  <anchor x="614" y="751" name="topright"/>
  <outline>
    <contour>
      <point x="147" y="305" type="curve"/>
      <point x="154" y="331" type="line"/>
      <point x="93" y="388"/>
      <point x="64" y="444"/>
      <point x="64" y="510" type="curve" smooth="yes"/>
      <point x="64" y="644"/>
      <point x="184" y="735"/>
      <point x="349" y="735" type="curve" smooth="yes"/>
      <point x="503" y="735"/>
      <point x="653" y="655"/>
      <point x="653" y="496" type="curve" smooth="yes"/>
      <point x="653" y="432"/>
      <point x="629" y="379"/>
      <point x="590" y="337" type="curve"/>
      <point x="586" y="350" type="line"/>
      <point x="624" y="320" type="line"/>
      <point x="610" y="321" type="line"/>
      <point x="653" y="367"/>
      <point x="679" y="426"/>
      <point x="679" y="496" type="curve" smooth="yes"/>
      <point x="679" y="671"/>
      <point x="517" y="759"/>
      <point x="350" y="759" type="curve" smooth="yes"/>
      <point x="168" y="759"/>
      <point x="38" y="655"/>
      <point x="38" y="510" type="curve" smooth="yes"/>
      <point x="38" y="434"/>
      <point x="73" y="368"/>
    </contour>
    <contour>
      <point x="123" y="-47" type="line"/>
      <point x="543" y="-47" type="line"/>
      <point x="543" y="321" type="line" smooth="yes"/>
      <point x="543" y="398"/>
      <point x="503" y="440"/>
      <point x="438" y="440" type="curve" smooth="yes"/>
      <point x="355" y="440"/>
      <point x="321" y="372"/>
      <point x="321" y="274" type="curve" smooth="yes"/>
      <point x="321" y="208"/>
      <point x="338" y="162"/>
      <point x="360" y="101" type="curve"/>
      <point x="373" y="130" type="line"/>
      <point x="347" y="115"/>
      <point x="318" y="109"/>
      <point x="289" y="109" type="curve" smooth="yes"/>
      <point x="203" y="109"/>
      <point x="148" y="154"/>
      <point x="148" y="239" type="curve" smooth="yes"/>
      <point x="148" y="321"/>
      <point x="194" y="395"/>
      <point x="264" y="456" type="curve"/>
      <point x="266" y="442" type="line"/>
      <point x="234" y="474" type="line"/>
      <point x="248" y="471" type="line"/>
      <point x="175" y="408"/>
      <point x="122" y="335"/>
      <point x="122" y="240" type="curve" smooth="yes"/>
      <point x="122" y="134"/>
      <point x="185" y="85"/>
      <point x="282" y="85" type="curve" smooth="yes"/>
      <point x="331" y="85"/>
      <point x="378" y="96"/>
      <point x="415" y="122" type="curve"/>
      <point x="392" y="90" type="line"/>
      <point x="368" y="142"/>
      <point x="347" y="205"/>
      <point x="347" y="276" type="curve" smooth="yes"/>
      <point x="347" y="364"/>
      <point x="377" y="416"/>
      <point x="438" y="416" type="curve" smooth="yes"/>
      <point x="484" y="416"/>
      <point x="517" y="386"/>
      <point x="517" y="317" type="curve" smooth="yes"/>
      <point x="517" y="-23" type="line"/>
      <point x="123" y="-23" type="line"/>
    </contour>
  </outline>
</glyph>
<glyph name="ja_va-oriya" format="2">
  <advance width="667"/>
  <anchor x="334" y="751" name="top"/>
  <anchor x="564" y="751" name="topright"/>
  <outline>
    <contour>
      <point x="136" y="372" type="curve"/>
      <point x="143" y="396" type="line"/>
      <point x="94" y="439"/>
      <point x="64" y="487"/>
      <point x="64" y="546" type="curve" smooth="yes"/>
      <point x="64" y="672"/>
      <point x="199" y="735"/>
      <point x="334" y="735" type="curve" smooth="yes"/>
      <point x="469" y="735"/>
      <point x="603" y="673"/>
      <point x="603" y="545" type="curve" smooth="yes"/>
      <point x="603" y="492"/>
      <point x="581" y="447"/>
      <point x="544" y="412" type="curve"/>
      <point x="541" y="426" type="line"/>
      <point x="576" y="394" type="line"/>
      <point x="561" y="397" type="line"/>
      <point x="603" y="435"/>
      <point x="629" y="485"/>
      <point x="629" y="546" type="curve" smooth="yes"/>
      <point x="629" y="690"/>
      <point x="481" y="759"/>
      <point x="334" y="759" type="curve" smooth="yes"/>
      <point x="186" y="759"/>
      <point x="38" y="689"/>
      <point x="38" y="548" type="curve" smooth="yes"/>
      <point x="38" y="480"/>
      <point x="72" y="421"/>
    </contour>
    <contour>
      <point x="383" y="-75" type="curve" smooth="yes"/>
      <point x="422" y="-75"/>
      <point x="463" y="-62"/>
      <point x="493" y="-32" type="curve"/>
      <point x="488" y="-5" type="line"/>
      <point x="462" y="-38"/>
      <point x="419" y="-51"/>
      <point x="384" y="-51" type="curve" smooth="yes"/>
      <point x="326" y="-51"/>
      <point x="298" y="-16"/>
      <point x="298" y="31" type="curve" smooth="yes"/>
      <point x="298" y="57"/>
      <point x="307" y="88"/>
      <point x="324" y="114" type="curve"/>
      <point x="328" y="97" type="line"/>
      <point x="288" y="118" type="line"/>
      <point x="304" y="126" type="line"/>
      <point x="283" y="95"/>
      <point x="272" y="58"/>
      <point x="272" y="28" type="curve" smooth="yes"/>
      <point x="272" y="-28"/>
      <point x="310" y="-75"/>
    </contour>
    <contour>
      <point x="502" y="-151" type="line"/>
      <point x="502" y="382" type="line" smooth="yes"/>
      <point x="502" y="440"/>
      <point x="468" y="487"/>
      <point x="403" y="487" type="curve" smooth="yes"/>
      <point x="328" y="487"/>
      <point x="298" y="424"/>
      <point x="298" y="349" type="curve" smooth="yes"/>
      <point x="298" y="305"/>
      <point x="308" y="258"/>
      <point x="332" y="197" type="curve"/>
      <point x="345" y="225" type="line"/>
      <point x="320" y="213"/>
      <point x="291" y="207"/>
      <point x="262" y="207" type="curve" smooth="yes"/>
      <point x="191" y="207"/>
      <point x="144" y="243"/>
      <point x="144" y="316" type="curve" smooth="yes"/>
      <point x="144" y="380"/>
      <point x="177" y="438"/>
      <point x="241" y="490" type="curve"/>
      <point x="226" y="508" type="line"/>
      <point x="158" y="455"/>
      <point x="118" y="393"/>
      <point x="118" y="317" type="curve" smooth="yes"/>
      <point x="118" y="232"/>
      <point x="171" y="183"/>
      <point x="265" y="183" type="curve" smooth="yes"/>
      <point x="309" y="183"/>
      <point x="348" y="194"/>
      <point x="386" y="218" type="curve"/>
      <point x="364" y="188" type="line"/>
      <point x="340" y="245"/>
      <point x="324" y="294"/>
      <point x="324" y="349" type="curve" smooth="yes"/>
      <point x="324" y="405"/>
      <point x="342" y="463"/>
      <point x="404" y="463" type="curve" smooth="yes"/>
      <point x="452" y="463"/>
      <point x="476" y="428"/>
      <point x="476" y="372" type="curve" smooth="yes"/>
      <point x="476" y="-25" type="line"/>
      <point x="476" y="-34" type="line"/>
      <point x="476" y="-151" type="line"/>
    </contour>
  </outline>
</glyph>
<glyph name="jha-oriya.base" format="2">
  <advance width="623"/>
  <guideline x="611" y="725" angle="90"/>
  <anchor x="426" y="203" name="bottom"/>
  <anchor x="340" y="751" name="top"/>
  <anchor x="556" y="751" name="topright"/>
  <outline>
    <contour>
      <point x="139" y="366" type="curve"/>
      <point x="150" y="390" type="line"/>
      <point x="88" y="432"/>
      <point x="64" y="490"/>
      <point x="64" y="545" type="curve" smooth="yes"/>
      <point x="64" y="643"/>
      <point x="149" y="735"/>
      <point x="340" y="735" type="curve" smooth="yes"/>
      <point x="352" y="735"/>
      <point x="348" y="735"/>
      <point x="371" y="735" type="curve"/>
      <point x="395" y="759" type="line"/>
      <point x="372" y="759"/>
      <point x="355" y="759"/>
      <point x="342" y="759" type="curve" smooth="yes"/>
      <point x="134" y="759"/>
      <point x="38" y="659"/>
      <point x="38" y="547" type="curve" smooth="yes"/>
      <point x="38" y="481"/>
      <point x="70" y="414"/>
    </contour>
    <contour>
      <point x="520" y="148" type="line"/>
      <point x="565" y="223" type="line"/>
      <point x="604" y="182" type="line"/>
      <point x="412" y="283" type="line"/>
      <point x="398" y="264" type="line"/>
      <point x="590" y="161" type="line"/>
    </contour>
    <contour>
      <point x="473" y="514" type="curve" smooth="yes"/>
      <point x="573" y="514"/>
      <point x="611" y="576"/>
      <point x="611" y="633" type="curve" smooth="yes"/>
      <point x="611" y="689"/>
      <point x="572" y="749"/>
      <point x="511" y="781" type="curve"/>
      <point x="568" y="786" type="line"/>
      <point x="523" y="734" type="line"/>
      <point x="491" y="765" type="line"/>
      <point x="547" y="743"/>
      <point x="585" y="684"/>
      <point x="585" y="635" type="curve" smooth="yes"/>
      <point x="585" y="588"/>
      <point x="556" y="538"/>
      <point x="473" y="538" type="curve" smooth="yes"/>
      <point x="391" y="538"/>
      <point x="353" y="588"/>
      <point x="353" y="638" type="curve" smooth="yes"/>
      <point x="353" y="671"/>
      <point x="366" y="712"/>
      <point x="404" y="742" type="curve"/>
      <point x="395" y="759" type="line"/>
      <point x="359" y="737"/>
      <point x="327" y="689"/>
      <point x="327" y="634" type="curve" smooth="yes"/>
      <point x="327" y="575"/>
      <point x="372" y="514"/>
    </contour>
    <contour>
      <point x="281" y="183" type="curve" smooth="yes"/>
      <point x="360" y="183"/>
      <point x="439" y="232"/>
      <point x="439" y="335" type="curve" smooth="yes"/>
      <point x="439" y="439"/>
      <point x="359" y="486"/>
      <point x="281" y="486" type="curve" smooth="yes"/>
      <point x="203" y="486"/>
      <point x="123" y="439"/>
      <point x="123" y="335" type="curve" smooth="yes"/>
      <point x="123" y="232"/>
      <point x="202" y="183"/>
    </contour>
    <contour>
      <point x="281" y="207" type="curve" smooth="yes"/>
      <point x="215" y="207"/>
      <point x="149" y="247"/>
      <point x="149" y="336" type="curve" smooth="yes"/>
      <point x="149" y="422"/>
      <point x="215" y="462"/>
      <point x="281" y="462" type="curve" smooth="yes"/>
      <point x="347" y="462"/>
      <point x="413" y="422"/>
      <point x="413" y="335" type="curve" smooth="yes"/>
      <point x="413" y="247"/>
      <point x="347" y="207"/>
    </contour>
  </outline>
</glyph>
<glyph name="jha-oriya.below" format="2">
  <note>
jhasubscriptorya
</note>
  <guideline x="209" y="152" angle="90"/>
  <anchor x="218" y="203" name="_bottom"/>
  <outline>
    <contour>
      <point x="89" y="-42" type="curve"/>
      <point x="102" y="-18" type="line"/>
      <point x="71" y="0"/>
      <point x="53" y="31"/>
      <point x="53" y="69" type="curve" smooth="yes"/>
      <point x="53" y="148"/>
      <point x="122" y="186"/>
      <point x="214" y="186" type="curve" smooth="yes"/>
      <point x="223" y="186"/>
      <point x="232" y="186"/>
      <point x="241" y="186" type="curve"/>
      <point x="251" y="209" type="line"/>
      <point x="240" y="209"/>
      <point x="229" y="209"/>
      <point x="218" y="209" type="curve" smooth="yes"/>
      <point x="111" y="209"/>
      <point x="28" y="163"/>
      <point x="28" y="70" type="curve" smooth="yes"/>
      <point x="28" y="17"/>
      <point x="55" y="-16"/>
    </contour>
    <contour>
      <point x="329" y="-176" type="line"/>
      <point x="360" y="-123" type="line"/>
      <point x="374" y="-146" type="line"/>
      <point x="274" y="-93" type="line"/>
      <point x="262" y="-113" type="line"/>
      <point x="362" y="-167" type="line"/>
    </contour>
    <contour>
      <point x="298" y="55" type="curve" smooth="yes"/>
      <point x="351" y="55"/>
      <point x="389" y="86"/>
      <point x="389" y="130" type="curve" smooth="yes"/>
      <point x="389" y="160"/>
      <point x="369" y="198"/>
      <point x="332" y="220" type="curve"/>
      <point x="361" y="222" type="line"/>
      <point x="327" y="189" type="line"/>
      <point x="309" y="209" type="line"/>
      <point x="342" y="194"/>
      <point x="364" y="164"/>
      <point x="364" y="134" type="curve" smooth="yes"/>
      <point x="364" y="96"/>
      <point x="333" y="78"/>
      <point x="299" y="78" type="curve" smooth="yes"/>
      <point x="264" y="78"/>
      <point x="234" y="97"/>
      <point x="234" y="133" type="curve" smooth="yes"/>
      <point x="234" y="154"/>
      <point x="243" y="174"/>
      <point x="265" y="194" type="curve"/>
      <point x="251" y="209" type="line"/>
      <point x="228" y="190"/>
      <point x="209" y="161"/>
      <point x="209" y="129" type="curve" smooth="yes"/>
      <point x="209" y="81"/>
      <point x="250" y="55"/>
    </contour>
    <contour>
      <point x="182" y="-155" type="curve" smooth="yes"/>
      <point x="244" y="-155"/>
      <point x="283" y="-114"/>
      <point x="283" y="-59" type="curve" smooth="yes"/>
      <point x="283" y="-5"/>
      <point x="244" y="36"/>
      <point x="182" y="36" type="curve" smooth="yes"/>
      <point x="121" y="36"/>
      <point x="82" y="-5"/>
      <point x="82" y="-59" type="curve" smooth="yes"/>
      <point x="82" y="-114"/>
      <point x="121" y="-155"/>
    </contour>
    <contour>
      <point x="182" y="-132" type="curve" smooth="yes"/>
      <point x="137" y="-132"/>
      <point x="107" y="-102"/>
      <point x="107" y="-59" type="curve" smooth="yes"/>
      <point x="107" y="-16"/>
      <point x="137" y="13"/>
      <point x="182" y="13" type="curve" smooth="yes"/>
      <point x="227" y="13"/>
      <point x="258" y="-16"/>
      <point x="258" y="-59" type="curve" smooth="yes"/>
      <point x="258" y="-102"/>
      <point x="227" y="-132"/>
    </contour>
  </outline>
</glyph>
<glyph name="jha_ra-oriya" format="2">
  <advance width="673"/>
  <guideline x="112" y="128" angle="90"/>
  <anchor x="370" y="751" name="top"/>
  <anchor x="591" y="751" name="topright"/>
  <outline>
    <contour>
      <point x="142" y="307" type="curve"/>
      <point x="152" y="331" type="line"/>
      <point x="100" y="370"/>
      <point x="64" y="436"/>
      <point x="64" y="509" type="curve" smooth="yes"/>
      <point x="64" y="619"/>
      <point x="145" y="735"/>
      <point x="368" y="735" type="curve" smooth="yes"/>
      <point x="384" y="735"/>
      <point x="385" y="735"/>
      <point x="406" y="735" type="curve"/>
      <point x="423" y="759" type="line"/>
      <point x="399" y="759"/>
      <point x="387" y="759"/>
      <point x="370" y="759" type="curve" smooth="yes"/>
      <point x="130" y="759"/>
      <point x="38" y="633"/>
      <point x="38" y="509" type="curve" smooth="yes"/>
      <point x="38" y="428"/>
      <point x="78" y="353"/>
    </contour>
    <contour>
      <point x="565" y="46" type="line"/>
      <point x="624" y="144" type="line"/>
      <point x="642" y="86" type="line"/>
      <point x="450" y="193" type="line"/>
      <point x="436" y="173" type="line"/>
      <point x="628" y="63" type="line"/>
    </contour>
    <contour>
      <point x="304" y="85" type="curve" smooth="yes"/>
      <point x="391" y="85"/>
      <point x="477" y="145"/>
      <point x="477" y="263" type="curve" smooth="yes"/>
      <point x="477" y="381"/>
      <point x="391" y="440"/>
      <point x="304" y="440" type="curve" smooth="yes"/>
      <point x="218" y="440"/>
      <point x="131" y="381"/>
      <point x="131" y="263" type="curve" smooth="yes"/>
      <point x="131" y="145"/>
      <point x="218" y="85"/>
    </contour>
    <contour>
      <point x="304" y="109" type="curve" smooth="yes"/>
      <point x="231" y="109"/>
      <point x="157" y="160"/>
      <point x="157" y="264" type="curve" smooth="yes"/>
      <point x="157" y="365"/>
      <point x="230" y="416"/>
      <point x="304" y="416" type="curve" smooth="yes"/>
      <point x="377" y="416"/>
      <point x="451" y="365"/>
      <point x="451" y="263" type="curve" smooth="yes"/>
      <point x="451" y="160"/>
      <point x="378" y="109"/>
    </contour>
    <contour>
      <point x="506" y="499" type="curve" smooth="yes"/>
      <point x="421" y="499"/>
      <point x="378" y="546"/>
      <point x="378" y="609" type="curve" smooth="yes"/>
      <point x="378" y="649"/>
      <point x="396" y="697"/>
      <point x="435" y="741" type="curve"/>
      <point x="423" y="759" type="line"/>
      <point x="375" y="711"/>
      <point x="352" y="655"/>
      <point x="352" y="607" type="curve" smooth="yes"/>
      <point x="352" y="534"/>
      <point x="404" y="475"/>
      <point x="507" y="475" type="curve" smooth="yes"/>
      <point x="609" y="475"/>
      <point x="661" y="534"/>
      <point x="661" y="607" type="curve" smooth="yes"/>
      <point x="661" y="655"/>
      <point x="638" y="711"/>
      <point x="590" y="759" type="curve"/>
      <point x="572" y="741" type="line"/>
      <point x="616" y="697"/>
      <point x="635" y="650"/>
      <point x="635" y="609" type="curve" smooth="yes"/>
      <point x="635" y="546"/>
      <point x="592" y="499"/>
    </contour>
    <contour>
      <point x="482" y="-47" type="line"/>
      <point x="482" y="103" type="line"/>
      <point x="456" y="103" type="line"/>
      <point x="456" y="-23" type="line"/>
      <point x="122" y="-23" type="line"/>
      <point x="122" y="-47" type="line"/>
    </contour>
  </outline>
</glyph>
<glyph name="ka-oriya.base" format="2">
  <advance width="667"/>
  <anchor x="489" y="203" name="bottom"/>
  <anchor x="502" y="189" name="bottom_ta"/>
  <anchor x="334" y="751" name="top"/>
  <anchor x="564" y="751" name="topright"/>
  <outline>
    <contour>
      <point x="136" y="372" type="curve"/>
      <point x="143" y="396" type="line"/>
      <point x="92" y="433"/>
      <point x="64" y="487"/>
      <point x="64" y="546" type="curve" smooth="yes"/>
      <point x="64" y="672"/>
      <point x="199" y="735"/>
      <point x="334" y="735" type="curve" smooth="yes"/>
      <point x="469" y="735"/>
      <point x="603" y="672"/>
      <point x="603" y="547" type="curve" smooth="yes"/>
      <point x="603" y="491"/>
      <point x="581" y="447"/>
      <point x="544" y="413" type="curve"/>
      <point x="541" y="426" type="line"/>
      <point x="576" y="394" type="line"/>
      <point x="561" y="397" type="line"/>
      <point x="603" y="435"/>
      <point x="629" y="485"/>
      <point x="629" y="549" type="curve" smooth="yes"/>
      <point x="629" y="689"/>
      <point x="482" y="759"/>
      <point x="334" y="759" type="curve" smooth="yes"/>
      <point x="186" y="759"/>
      <point x="38" y="689"/>
      <point x="38" y="548" type="curve" smooth="yes"/>
      <point x="38" y="480"/>
      <point x="72" y="416"/>
    </contour>
    <contour>
      <point x="222" y="261" type="curve" smooth="yes"/>
      <point x="287" y="261"/>
      <point x="330" y="306"/>
      <point x="330" y="374" type="curve" smooth="yes"/>
      <point x="330" y="442"/>
      <point x="287" y="487"/>
      <point x="224" y="487" type="curve" smooth="yes"/>
      <point x="160" y="487"/>
      <point x="118" y="442"/>
      <point x="118" y="374" type="curve" smooth="yes"/>
      <point x="118" y="306"/>
      <point x="160" y="261"/>
    </contour>
    <contour>
      <point x="224" y="285" type="curve" smooth="yes"/>
      <point x="176" y="285"/>
      <point x="144" y="320"/>
      <point x="144" y="373" type="curve" smooth="yes"/>
      <point x="144" y="427"/>
      <point x="176" y="463"/>
      <point x="224" y="463" type="curve" smooth="yes"/>
      <point x="272" y="463"/>
      <point x="304" y="427"/>
      <point x="304" y="374" type="curve" smooth="yes"/>
      <point x="304" y="321"/>
      <point x="272" y="285"/>
    </contour>
    <contour>
      <point x="304" y="189" type="line"/>
      <point x="330" y="189" type="line"/>
      <point x="330" y="375" type="line" smooth="yes"/>
      <point x="330" y="430"/>
      <point x="357" y="463"/>
      <point x="403" y="463" type="curve" smooth="yes"/>
      <point x="449" y="463"/>
      <point x="476" y="430"/>
      <point x="476" y="375" type="curve" smooth="yes"/>
      <point x="476" y="189" type="line"/>
      <point x="502" y="189" type="line"/>
      <point x="502" y="376" type="line" smooth="yes"/>
      <point x="502" y="446"/>
      <point x="466" y="487"/>
      <point x="405" y="487" type="curve" smooth="yes"/>
      <point x="344" y="487"/>
      <point x="308" y="446"/>
      <point x="308" y="376" type="curve"/>
      <point x="304" y="326" type="line"/>
    </contour>
  </outline>
</glyph>
<glyph name="ka_sa-oriya" format="2">
  <advance width="667"/>
  <note>
kasaorya
</note>
  <anchor x="334" y="751" name="top"/>
  <anchor x="564" y="751" name="topright"/>
  <outline>
    <contour>
      <point x="136" y="372" type="curve"/>
      <point x="143" y="396" type="line"/>
      <point x="92" y="433"/>
      <point x="64" y="487"/>
      <point x="64" y="546" type="curve" smooth="yes"/>
      <point x="64" y="672"/>
      <point x="199" y="735"/>
      <point x="334" y="735" type="curve" smooth="yes"/>
      <point x="469" y="735"/>
      <point x="603" y="672"/>
      <point x="603" y="547" type="curve" smooth="yes"/>
      <point x="603" y="491"/>
      <point x="581" y="447"/>
      <point x="544" y="413" type="curve"/>
      <point x="541" y="426" type="line"/>
      <point x="576" y="394" type="line"/>
      <point x="561" y="397" type="line"/>
      <point x="603" y="435"/>
      <point x="629" y="485"/>
      <point x="629" y="549" type="curve" smooth="yes"/>
      <point x="629" y="689"/>
      <point x="482" y="759"/>
      <point x="334" y="759" type="curve" smooth="yes"/>
      <point x="186" y="759"/>
      <point x="38" y="689"/>
      <point x="38" y="548" type="curve" smooth="yes"/>
      <point x="38" y="480"/>
      <point x="72" y="416"/>
    </contour>
    <contour>
      <point x="264" y="-37" type="curve" smooth="yes"/>
      <point x="280" y="-21" type="line" smooth="yes"/>
      <point x="229" y="2"/>
      <point x="197" y="42"/>
      <point x="197" y="89" type="curve"/>
      <point x="197" y="151"/>
      <point x="256" y="185"/>
      <point x="320" y="185" type="curve" smooth="yes"/>
      <point x="396" y="185"/>
      <point x="479" y="138"/>
      <point x="479" y="34" type="curve" smooth="yes"/>
      <point x="501" y="34" type="line" smooth="yes"/>
      <point x="501" y="153"/>
      <point x="408" y="209"/>
      <point x="320" y="209" type="curve" smooth="yes"/>
      <point x="244" y="209"/>
      <point x="172" y="166"/>
      <point x="172" y="86" type="curve"/>
      <point x="172" y="28"/>
      <point x="209" y="-11"/>
    </contour>
    <contour>
      <point x="488" y="-155" type="line"/>
      <point x="502" y="-155" type="line"/>
      <point x="502" y="376" type="line" smooth="yes"/>
      <point x="502" y="446"/>
      <point x="466" y="487"/>
      <point x="405" y="487" type="curve" smooth="yes"/>
      <point x="344" y="487"/>
      <point x="308" y="446"/>
      <point x="308" y="376" type="curve"/>
      <point x="304" y="326" type="line"/>
      <point x="304" y="189" type="line"/>
      <point x="330" y="189" type="line"/>
      <point x="330" y="375" type="line" smooth="yes"/>
      <point x="330" y="430"/>
      <point x="357" y="463"/>
      <point x="403" y="463" type="curve" smooth="yes"/>
      <point x="449" y="463"/>
      <point x="476" y="430"/>
      <point x="476" y="375" type="curve" smooth="yes"/>
      <point x="476" y="106" type="line"/>
      <point x="476" y="96" type="line"/>
      <point x="476" y="-138" type="line"/>
      <point x="491" y="-132" type="line"/>
      <point x="223" y="-60" type="line"/>
      <point x="244" y="-68" type="line"/>
      <point x="378" y="58" type="line"/>
      <point x="378" y="40" type="line"/>
      <point x="333" y="83" type="line"/>
      <point x="358" y="73" type="line"/>
      <point x="207" y="-69" type="line"/>
      <point x="211" y="-80" type="line"/>
    </contour>
    <contour>
      <point x="222" y="261" type="curve" smooth="yes"/>
      <point x="287" y="261"/>
      <point x="330" y="306"/>
      <point x="330" y="374" type="curve" smooth="yes"/>
      <point x="330" y="442"/>
      <point x="287" y="487"/>
      <point x="224" y="487" type="curve" smooth="yes"/>
      <point x="160" y="487"/>
      <point x="118" y="442"/>
      <point x="118" y="374" type="curve" smooth="yes"/>
      <point x="118" y="306"/>
      <point x="160" y="261"/>
    </contour>
    <contour>
      <point x="224" y="285" type="curve" smooth="yes"/>
      <point x="176" y="285"/>
      <point x="144" y="320"/>
      <point x="144" y="373" type="curve" smooth="yes"/>
      <point x="144" y="427"/>
      <point x="176" y="463"/>
      <point x="224" y="463" type="curve" smooth="yes"/>
      <point x="272" y="463"/>
      <point x="304" y="427"/>
      <point x="304" y="374" type="curve" smooth="yes"/>
      <point x="304" y="321"/>
      <point x="272" y="285"/>
    </contour>
  </outline>
</glyph>
<glyph name="ka_va-oriya" format="2">
  <advance width="733"/>
  <guideline x="557" y="96" angle="0"/>
  <anchor x="334" y="751" name="top"/>
  <anchor x="564" y="751" name="topright"/>
  <outline>
    <contour>
      <point x="136" y="372" type="curve"/>
      <point x="143" y="396" type="line"/>
      <point x="92" y="433"/>
      <point x="64" y="487"/>
      <point x="64" y="546" type="curve" smooth="yes"/>
      <point x="64" y="672"/>
      <point x="199" y="735"/>
      <point x="334" y="735" type="curve" smooth="yes"/>
      <point x="469" y="735"/>
      <point x="603" y="672"/>
      <point x="603" y="547" type="curve" smooth="yes"/>
      <point x="603" y="491"/>
      <point x="581" y="447"/>
      <point x="544" y="413" type="curve"/>
      <point x="541" y="426" type="line"/>
      <point x="576" y="394" type="line"/>
      <point x="561" y="397" type="line"/>
      <point x="603" y="435"/>
      <point x="629" y="485"/>
      <point x="629" y="549" type="curve" smooth="yes"/>
      <point x="629" y="689"/>
      <point x="482" y="759"/>
      <point x="334" y="759" type="curve" smooth="yes"/>
      <point x="186" y="759"/>
      <point x="38" y="689"/>
      <point x="38" y="548" type="curve" smooth="yes"/>
      <point x="38" y="480"/>
      <point x="72" y="416"/>
    </contour>
    <contour>
      <point x="222" y="261" type="curve" smooth="yes"/>
      <point x="287" y="261"/>
      <point x="330" y="306"/>
      <point x="330" y="374" type="curve" smooth="yes"/>
      <point x="330" y="442"/>
      <point x="287" y="487"/>
      <point x="224" y="487" type="curve" smooth="yes"/>
      <point x="160" y="487"/>
      <point x="118" y="442"/>
      <point x="118" y="374" type="curve" smooth="yes"/>
      <point x="118" y="306"/>
      <point x="160" y="261"/>
    </contour>
    <contour>
      <point x="224" y="285" type="curve" smooth="yes"/>
      <point x="176" y="285"/>
      <point x="144" y="320"/>
      <point x="144" y="373" type="curve" smooth="yes"/>
      <point x="144" y="427"/>
      <point x="176" y="463"/>
      <point x="224" y="463" type="curve" smooth="yes"/>
      <point x="272" y="463"/>
      <point x="304" y="427"/>
      <point x="304" y="374" type="curve" smooth="yes"/>
      <point x="304" y="321"/>
      <point x="272" y="285"/>
    </contour>
    <contour>
      <point x="304" y="189" type="line"/>
      <point x="330" y="189" type="line"/>
      <point x="330" y="375" type="line" smooth="yes"/>
      <point x="330" y="430"/>
      <point x="357" y="463"/>
      <point x="403" y="463" type="curve" smooth="yes"/>
      <point x="449" y="463"/>
      <point x="476" y="430"/>
      <point x="476" y="375" type="curve" smooth="yes"/>
      <point x="476" y="189" type="line"/>
      <point x="502" y="189" type="line"/>
      <point x="502" y="376" type="line" smooth="yes"/>
      <point x="502" y="446"/>
      <point x="466" y="487"/>
      <point x="405" y="487" type="curve" smooth="yes"/>
      <point x="344" y="487"/>
      <point x="308" y="446"/>
      <point x="308" y="376" type="curve"/>
      <point x="304" y="326" type="line"/>
    </contour>
    <contour>
      <point x="657" y="-71" type="line"/>
      <point x="683" y="-71" type="line"/>
      <point x="683" y="205" type="line"/>
      <point x="657" y="205" type="line"/>
      <point x="657" y="51" type="line"/>
      <point x="657" y="42" type="line"/>
    </contour>
    <contour>
      <point x="564" y="5" type="curve" smooth="yes"/>
      <point x="603" y="5"/>
      <point x="644" y="18"/>
      <point x="674" y="48" type="curve"/>
      <point x="669" y="75" type="line"/>
      <point x="643" y="42"/>
      <point x="600" y="29"/>
      <point x="565" y="29" type="curve" smooth="yes"/>
      <point x="507" y="29"/>
      <point x="479" y="64"/>
      <point x="479" y="111" type="curve" smooth="yes"/>
      <point x="479" y="135"/>
      <point x="487" y="164"/>
      <point x="502" y="189" type="curve"/>
      <point x="481" y="200" type="line"/>
      <point x="462" y="170"/>
      <point x="453" y="136"/>
      <point x="453" y="108" type="curve" smooth="yes"/>
      <point x="453" y="52"/>
      <point x="491" y="5"/>
    </contour>
  </outline>
</glyph>
<glyph name="la_ga-oriya" format="2">
  <advance width="709"/>
  <note>
lagaorya
</note>
  <guideline x="121" y="205" angle="90"/>
  <guideline x="95" y="205" angle="90"/>
  <anchor x="333" y="751" name="top"/>
  <anchor x="606" y="751" name="topright"/>
  <outline>
    <contour>
      <point x="38" y="546" type="curve" smooth="yes"/>
      <point x="38" y="483"/>
      <point x="69" y="418"/>
      <point x="136" y="372" type="curve"/>
      <point x="143" y="396" type="line"/>
      <point x="88" y="436"/>
      <point x="64" y="491"/>
      <point x="64" y="546" type="curve" smooth="yes"/>
      <point x="64" y="659"/>
      <point x="171" y="734"/>
      <point x="331" y="734" type="curve" smooth="yes"/>
      <point x="519" y="734"/>
      <point x="645" y="644"/>
      <point x="645" y="494" type="curve" smooth="yes"/>
      <point x="645" y="435"/>
      <point x="616" y="380"/>
      <point x="550" y="321" type="curve"/>
      <point x="696" y="146" type="line"/>
      <point x="639" y="161" type="line"/>
      <point x="726" y="232" type="line"/>
      <point x="723" y="153" type="line"/>
      <point x="576" y="327" type="line"/>
      <point x="570" y="307" type="line"/>
      <point x="639" y="371"/>
      <point x="671" y="434"/>
      <point x="671" y="499" type="curve" smooth="yes"/>
      <point x="671" y="661"/>
      <point x="536" y="759"/>
      <point x="333" y="759" type="curve" smooth="yes"/>
      <point x="156" y="759"/>
      <point x="38" y="674"/>
    </contour>
    <contour>
      <point x="214" y="-42" type="curve"/>
      <point x="227" y="-18" type="line"/>
      <point x="197" y="-1"/>
      <point x="178" y="30"/>
      <point x="178" y="69" type="curve" smooth="yes"/>
      <point x="178" y="145"/>
      <point x="246" y="186"/>
      <point x="314" y="186" type="curve" smooth="yes"/>
      <point x="385" y="186"/>
      <point x="479" y="141"/>
      <point x="479" y="53" type="curve"/>
      <point x="501" y="53" type="line"/>
      <point x="501" y="157"/>
      <point x="404" y="209"/>
      <point x="317" y="209" type="curve" smooth="yes"/>
      <point x="233" y="209"/>
      <point x="153" y="161"/>
      <point x="153" y="68" type="curve" smooth="yes"/>
      <point x="153" y="18"/>
      <point x="178" y="-15"/>
    </contour>
    <contour>
      <point x="307" y="-155" type="curve" smooth="yes"/>
      <point x="369" y="-155"/>
      <point x="408" y="-114"/>
      <point x="408" y="-59" type="curve" smooth="yes"/>
      <point x="408" y="-5"/>
      <point x="369" y="36"/>
      <point x="307" y="36" type="curve" smooth="yes"/>
      <point x="246" y="36"/>
      <point x="207" y="-5"/>
      <point x="207" y="-59" type="curve" smooth="yes"/>
      <point x="207" y="-114"/>
      <point x="246" y="-155"/>
    </contour>
    <contour>
      <point x="307" y="-132" type="curve" smooth="yes"/>
      <point x="262" y="-132"/>
      <point x="232" y="-102"/>
      <point x="232" y="-59" type="curve" smooth="yes"/>
      <point x="232" y="-16"/>
      <point x="262" y="13"/>
      <point x="307" y="13" type="curve" smooth="yes"/>
      <point x="352" y="13"/>
      <point x="383" y="-16"/>
      <point x="383" y="-59" type="curve" smooth="yes"/>
      <point x="383" y="-102"/>
      <point x="352" y="-132"/>
    </contour>
    <contour>
      <point x="476" y="-151" type="line"/>
      <point x="502" y="-151" type="line"/>
      <point x="502" y="416" type="line" smooth="yes"/>
      <point x="502" y="504"/>
      <point x="450" y="527"/>
      <point x="406" y="527" type="curve" smooth="yes"/>
      <point x="363" y="527"/>
      <point x="308" y="505"/>
      <point x="308" y="406" type="curve"/>
      <point x="328" y="406" type="line"/>
      <point x="328" y="476"/>
      <point x="296" y="527"/>
      <point x="230" y="527" type="curve" smooth="yes"/>
      <point x="155" y="527"/>
      <point x="122" y="467"/>
      <point x="122" y="386" type="curve" smooth="yes"/>
      <point x="122" y="338"/>
      <point x="135" y="275"/>
      <point x="156" y="217" type="curve"/>
      <point x="142" y="231" type="line"/>
      <point x="189" y="247" type="line"/>
      <point x="181" y="226" type="line"/>
      <point x="162" y="275"/>
      <point x="148" y="340"/>
      <point x="148" y="384" type="curve" smooth="yes"/>
      <point x="148" y="470"/>
      <point x="188" y="503"/>
      <point x="233" y="503" type="curve" smooth="yes"/>
      <point x="276" y="503"/>
      <point x="304" y="471"/>
      <point x="304" y="408" type="curve" smooth="yes"/>
      <point x="304" y="249" type="line"/>
      <point x="330" y="249" type="line"/>
      <point x="330" y="408" type="line" smooth="yes"/>
      <point x="330" y="478"/>
      <point x="367" y="503"/>
      <point x="405" y="503" type="curve" smooth="yes"/>
      <point x="440" y="503"/>
      <point x="476" y="481"/>
      <point x="476" y="417" type="curve" smooth="yes"/>
      <point x="476" y="109" type="line"/>
      <point x="476" y="93" type="line"/>
    </contour>
  </outline>
</glyph>
<glyph name="la_ma-oriya" format="2">
  <advance width="709"/>
  <guideline x="502" y="75" angle="90"/>
  <anchor x="333" y="751" name="top"/>
  <anchor x="606" y="751" name="topright"/>
  <outline>
    <contour>
      <point x="696" y="146" type="line"/>
      <point x="639" y="161" type="line"/>
      <point x="726" y="232" type="line"/>
      <point x="723" y="153" type="line"/>
      <point x="576" y="327" type="line"/>
      <point x="570" y="307" type="line"/>
      <point x="639" y="371"/>
      <point x="671" y="434"/>
      <point x="671" y="499" type="curve" smooth="yes"/>
      <point x="671" y="661"/>
      <point x="536" y="759"/>
      <point x="333" y="759" type="curve" smooth="yes"/>
      <point x="156" y="759"/>
      <point x="38" y="674"/>
      <point x="38" y="546" type="curve" smooth="yes"/>
      <point x="38" y="483"/>
      <point x="69" y="418"/>
      <point x="136" y="372" type="curve"/>
      <point x="143" y="396" type="line"/>
      <point x="88" y="436"/>
      <point x="64" y="491"/>
      <point x="64" y="546" type="curve" smooth="yes"/>
      <point x="64" y="659"/>
      <point x="171" y="734"/>
      <point x="331" y="734" type="curve" smooth="yes"/>
      <point x="519" y="734"/>
      <point x="645" y="644"/>
      <point x="645" y="494" type="curve" smooth="yes"/>
      <point x="645" y="435"/>
      <point x="616" y="380"/>
      <point x="550" y="321" type="curve"/>
    </contour>
    <contour>
      <point x="308" y="-155" type="curve" smooth="yes"/>
      <point x="358" y="-155"/>
      <point x="409" y="-123"/>
      <point x="409" y="-52" type="curve" smooth="yes"/>
      <point x="409" y="13"/>
      <point x="367" y="98"/>
      <point x="194" y="129" type="curve"/>
      <point x="189" y="106" type="line"/>
      <point x="350" y="78"/>
      <point x="384" y="8"/>
      <point x="384" y="-48" type="curve" smooth="yes"/>
      <point x="384" y="-107"/>
      <point x="345" y="-132"/>
      <point x="309" y="-132" type="curve" smooth="yes"/>
      <point x="271" y="-132"/>
      <point x="233" y="-105"/>
      <point x="233" y="-53" type="curve" smooth="yes"/>
      <point x="233" y="34"/>
      <point x="339" y="106"/>
      <point x="452" y="106" type="curve" smooth="yes"/>
      <point x="462" y="106"/>
      <point x="482" y="105"/>
      <point x="495" y="103" type="curve"/>
      <point x="502" y="127" type="line"/>
      <point x="488" y="128"/>
      <point x="476" y="129"/>
      <point x="467" y="129" type="curve" smooth="yes"/>
      <point x="296" y="129"/>
      <point x="208" y="31"/>
      <point x="208" y="-57" type="curve" smooth="yes"/>
      <point x="208" y="-122"/>
      <point x="258" y="-155"/>
    </contour>
    <contour>
      <point x="476" y="-151" type="line"/>
      <point x="502" y="-151" type="line"/>
      <point x="502" y="376" type="line" smooth="yes"/>
      <point x="502" y="464"/>
      <point x="450" y="487"/>
      <point x="406" y="487" type="curve" smooth="yes"/>
      <point x="363" y="487"/>
      <point x="308" y="465"/>
      <point x="308" y="366" type="curve"/>
      <point x="328" y="366" type="line"/>
      <point x="328" y="436"/>
      <point x="296" y="487"/>
      <point x="230" y="487" type="curve" smooth="yes"/>
      <point x="155" y="487"/>
      <point x="122" y="427"/>
      <point x="122" y="346" type="curve" smooth="yes"/>
      <point x="122" y="300"/>
      <point x="134" y="241"/>
      <point x="153" y="185" type="curve"/>
      <point x="178" y="193" type="line"/>
      <point x="161" y="241"/>
      <point x="148" y="302"/>
      <point x="148" y="344" type="curve" smooth="yes"/>
      <point x="148" y="430"/>
      <point x="188" y="463"/>
      <point x="233" y="463" type="curve" smooth="yes"/>
      <point x="276" y="463"/>
      <point x="304" y="431"/>
      <point x="304" y="368" type="curve" smooth="yes"/>
      <point x="304" y="189" type="line"/>
      <point x="330" y="189" type="line"/>
      <point x="330" y="368" type="line" smooth="yes"/>
      <point x="330" y="438"/>
      <point x="367" y="463"/>
      <point x="405" y="463" type="curve" smooth="yes"/>
      <point x="440" y="463"/>
      <point x="476" y="441"/>
      <point x="476" y="377" type="curve" smooth="yes"/>
    </contour>
  </outline>
</glyph>
<glyph name="la_pa-oriya" format="2">
  <advance width="709"/>
  <guideline x="592" y="6" angle="0"/>
  <anchor x="333" y="751" name="top"/>
  <anchor x="606" y="751" name="topright"/>
  <outline>
    <contour>
      <point x="696" y="146" type="line"/>
      <point x="639" y="161" type="line"/>
      <point x="726" y="232" type="line"/>
      <point x="723" y="153" type="line"/>
      <point x="576" y="327" type="line"/>
      <point x="570" y="307" type="line"/>
      <point x="639" y="371"/>
      <point x="671" y="434"/>
      <point x="671" y="499" type="curve" smooth="yes"/>
      <point x="671" y="661"/>
      <point x="536" y="759"/>
      <point x="333" y="759" type="curve" smooth="yes"/>
      <point x="156" y="759"/>
      <point x="38" y="674"/>
      <point x="38" y="546" type="curve" smooth="yes"/>
      <point x="38" y="483"/>
      <point x="69" y="418"/>
      <point x="136" y="372" type="curve"/>
      <point x="143" y="396" type="line"/>
      <point x="88" y="436"/>
      <point x="64" y="491"/>
      <point x="64" y="546" type="curve" smooth="yes"/>
      <point x="64" y="659"/>
      <point x="171" y="734"/>
      <point x="331" y="734" type="curve" smooth="yes"/>
      <point x="519" y="734"/>
      <point x="645" y="644"/>
      <point x="645" y="494" type="curve" smooth="yes"/>
      <point x="645" y="435"/>
      <point x="616" y="380"/>
      <point x="550" y="321" type="curve"/>
    </contour>
    <contour>
      <point x="341" y="-155" type="curve" smooth="yes"/>
      <point x="405" y="-155"/>
      <point x="472" y="-123"/>
      <point x="496" y="-55" type="curve"/>
      <point x="479" y="-37" type="line"/>
      <point x="459" y="-101"/>
      <point x="398" y="-132"/>
      <point x="340" y="-132" type="curve" smooth="yes"/>
      <point x="290" y="-132"/>
      <point x="246" y="-100"/>
      <point x="246" y="-54" type="curve" smooth="yes"/>
      <point x="246" y="-14"/>
      <point x="278" y="20"/>
      <point x="325" y="35" type="curve"/>
      <point x="318" y="56" type="line"/>
      <point x="256" y="39"/>
      <point x="220" y="-5"/>
      <point x="220" y="-52" type="curve" smooth="yes"/>
      <point x="220" y="-123"/>
      <point x="284" y="-155"/>
    </contour>
    <contour>
      <point x="224" y="-50" type="curve"/>
      <point x="232" y="-28" type="line"/>
      <point x="194" y="-4"/>
      <point x="168" y="24"/>
      <point x="168" y="72" type="curve" smooth="yes"/>
      <point x="168" y="144"/>
      <point x="234" y="185"/>
      <point x="312" y="185" type="curve" smooth="yes"/>
      <point x="408" y="185"/>
      <point x="479" y="122"/>
      <point x="479" y="34" type="curve"/>
      <point x="501" y="34" type="line"/>
      <point x="501" y="138"/>
      <point x="419" y="209"/>
      <point x="310" y="209" type="curve" smooth="yes"/>
      <point x="210" y="209"/>
      <point x="143" y="153"/>
      <point x="143" y="72" type="curve" smooth="yes"/>
      <point x="143" y="15"/>
      <point x="178" y="-21"/>
    </contour>
    <contour>
      <point x="476" y="-151" type="line"/>
      <point x="502" y="-151" type="line"/>
      <point x="502" y="416" type="line" smooth="yes"/>
      <point x="502" y="504"/>
      <point x="450" y="527"/>
      <point x="406" y="527" type="curve" smooth="yes"/>
      <point x="363" y="527"/>
      <point x="308" y="505"/>
      <point x="308" y="406" type="curve"/>
      <point x="328" y="406" type="line"/>
      <point x="328" y="476"/>
      <point x="296" y="527"/>
      <point x="230" y="527" type="curve" smooth="yes"/>
      <point x="155" y="527"/>
      <point x="122" y="467"/>
      <point x="122" y="386" type="curve" smooth="yes"/>
      <point x="122" y="338"/>
      <point x="135" y="275"/>
      <point x="156" y="217" type="curve"/>
      <point x="142" y="231" type="line"/>
      <point x="189" y="247" type="line"/>
      <point x="181" y="226" type="line"/>
      <point x="162" y="275"/>
      <point x="148" y="340"/>
      <point x="148" y="384" type="curve" smooth="yes"/>
      <point x="148" y="470"/>
      <point x="188" y="503"/>
      <point x="233" y="503" type="curve" smooth="yes"/>
      <point x="276" y="503"/>
      <point x="304" y="471"/>
      <point x="304" y="408" type="curve" smooth="yes"/>
      <point x="304" y="249" type="line"/>
      <point x="330" y="249" type="line"/>
      <point x="330" y="408" type="line" smooth="yes"/>
      <point x="330" y="478"/>
      <point x="367" y="503"/>
      <point x="405" y="503" type="curve" smooth="yes"/>
      <point x="440" y="503"/>
      <point x="476" y="481"/>
      <point x="476" y="417" type="curve" smooth="yes"/>
      <point x="476" y="109" type="line"/>
      <point x="476" y="93" type="line"/>
    </contour>
  </outline>
</glyph>
<glyph name="la_ra-oriya" format="2">
  <advance width="760"/>
  <guideline x="123" y="170" angle="90"/>
  <anchor x="384" y="751" name="top"/>
  <anchor x="636" y="751" name="topright"/>
  <outline>
    <contour>
      <point x="741" y="50" type="line"/>
      <point x="684" y="59" type="line"/>
      <point x="771" y="131" type="line"/>
      <point x="768" y="61" type="line"/>
      <point x="621" y="251" type="line"/>
      <point x="615" y="229" type="line"/>
      <point x="684" y="298"/>
      <point x="716" y="375"/>
      <point x="716" y="463" type="curve" smooth="yes"/>
      <point x="716" y="664"/>
      <point x="535" y="759"/>
      <point x="361" y="759" type="curve" smooth="yes"/>
      <point x="197" y="759"/>
      <point x="38" y="675"/>
      <point x="38" y="510" type="curve" smooth="yes"/>
      <point x="38" y="445"/>
      <point x="64" y="377"/>
      <point x="140" y="311" type="curve"/>
      <point x="147" y="337" type="line"/>
      <point x="88" y="393"/>
      <point x="64" y="454"/>
      <point x="64" y="511" type="curve" smooth="yes"/>
      <point x="64" y="658"/>
      <point x="208" y="735"/>
      <point x="358" y="735" type="curve" smooth="yes"/>
      <point x="520" y="735"/>
      <point x="690" y="646"/>
      <point x="690" y="455" type="curve" smooth="yes"/>
      <point x="690" y="376"/>
      <point x="661" y="308"/>
      <point x="595" y="245" type="curve"/>
    </contour>
    <contour>
      <point x="517" y="320" type="curve" smooth="yes"/>
      <point x="517" y="-23" type="line"/>
      <point x="123" y="-23" type="line"/>
      <point x="123" y="-47" type="line"/>
      <point x="543" y="-47" type="line"/>
      <point x="543" y="320" type="line" smooth="yes"/>
      <point x="543" y="396"/>
      <point x="502" y="440"/>
      <point x="436" y="440" type="curve" smooth="yes"/>
      <point x="384" y="440"/>
      <point x="332" y="412"/>
      <point x="332" y="311" type="curve"/>
      <point x="353" y="311" type="line"/>
      <point x="353" y="395"/>
      <point x="310" y="440"/>
      <point x="245" y="440" type="curve" smooth="yes"/>
      <point x="179" y="440"/>
      <point x="131" y="387"/>
      <point x="131" y="279" type="curve" smooth="yes"/>
      <point x="131" y="221"/>
      <point x="144" y="153"/>
      <point x="165" y="87" type="curve"/>
      <point x="189" y="96" type="line"/>
      <point x="169" y="153"/>
      <point x="157" y="222"/>
      <point x="157" y="277" type="curve" smooth="yes"/>
      <point x="157" y="370"/>
      <point x="192" y="416"/>
      <point x="247" y="416" type="curve" smooth="yes"/>
      <point x="297" y="416"/>
      <point x="329" y="379"/>
      <point x="329" y="306" type="curve" smooth="yes"/>
      <point x="329" y="93" type="line"/>
      <point x="355" y="93" type="line"/>
      <point x="355" y="311" type="line" smooth="yes"/>
      <point x="355" y="377"/>
      <point x="385" y="416"/>
      <point x="437" y="416" type="curve" smooth="yes"/>
      <point x="513" y="416"/>
      <point x="517" y="334"/>
    </contour>
  </outline>
</glyph>
<glyph name="lla_pa-oriya" format="2">
  <advance width="667"/>
  <note>
llapaorya
</note>
  <guideline x="95" y="277" angle="90"/>
  <guideline x="121" y="288" angle="90"/>
  <guideline x="170" y="436" angle="0"/>
  <anchor x="334" y="751" name="top"/>
  <anchor x="564" y="751" name="topright"/>
  <outline>
    <contour>
      <point x="476" y="-151" type="line"/>
      <point x="502" y="-151" type="line"/>
      <point x="502" y="416" type="line" smooth="yes"/>
      <point x="502" y="504"/>
      <point x="450" y="527"/>
      <point x="406" y="527" type="curve" smooth="yes"/>
      <point x="363" y="527"/>
      <point x="308" y="505"/>
      <point x="308" y="406" type="curve"/>
      <point x="328" y="406" type="line"/>
      <point x="328" y="476"/>
      <point x="296" y="527"/>
      <point x="230" y="527" type="curve" smooth="yes"/>
      <point x="155" y="527"/>
      <point x="122" y="467"/>
      <point x="122" y="386" type="curve" smooth="yes"/>
      <point x="122" y="338"/>
      <point x="135" y="275"/>
      <point x="156" y="217" type="curve"/>
      <point x="142" y="231" type="line"/>
      <point x="189" y="247" type="line"/>
      <point x="181" y="226" type="line"/>
      <point x="162" y="275"/>
      <point x="148" y="340"/>
      <point x="148" y="384" type="curve" smooth="yes"/>
      <point x="148" y="470"/>
      <point x="188" y="503"/>
      <point x="233" y="503" type="curve" smooth="yes"/>
      <point x="276" y="503"/>
      <point x="304" y="471"/>
      <point x="304" y="408" type="curve" smooth="yes"/>
      <point x="304" y="249" type="line"/>
      <point x="330" y="249" type="line"/>
      <point x="330" y="408" type="line" smooth="yes"/>
      <point x="330" y="478"/>
      <point x="367" y="503"/>
      <point x="405" y="503" type="curve" smooth="yes"/>
      <point x="440" y="503"/>
      <point x="476" y="481"/>
      <point x="476" y="417" type="curve" smooth="yes"/>
      <point x="476" y="106" type="line"/>
      <point x="476" y="93" type="line"/>
      <point x="476" y="-71" type="line"/>
      <point x="476" y="-80" type="line"/>
    </contour>
    <contour>
      <point x="341" y="-155" type="curve" smooth="yes"/>
      <point x="405" y="-155"/>
      <point x="472" y="-123"/>
      <point x="496" y="-55" type="curve"/>
      <point x="479" y="-37" type="line"/>
      <point x="459" y="-101"/>
      <point x="398" y="-132"/>
      <point x="340" y="-132" type="curve" smooth="yes"/>
      <point x="290" y="-132"/>
      <point x="246" y="-100"/>
      <point x="246" y="-54" type="curve" smooth="yes"/>
      <point x="246" y="-14"/>
      <point x="278" y="20"/>
      <point x="325" y="35" type="curve"/>
      <point x="318" y="56" type="line"/>
      <point x="256" y="39"/>
      <point x="220" y="-5"/>
      <point x="220" y="-52" type="curve" smooth="yes"/>
      <point x="220" y="-123"/>
      <point x="284" y="-155"/>
    </contour>
    <contour>
      <point x="224" y="-50" type="curve"/>
      <point x="232" y="-28" type="line"/>
      <point x="194" y="-4"/>
      <point x="168" y="24"/>
      <point x="168" y="72" type="curve" smooth="yes"/>
      <point x="168" y="144"/>
      <point x="234" y="185"/>
      <point x="312" y="185" type="curve" smooth="yes"/>
      <point x="408" y="185"/>
      <point x="479" y="122"/>
      <point x="479" y="34" type="curve"/>
      <point x="501" y="34" type="line"/>
      <point x="501" y="138"/>
      <point x="419" y="209"/>
      <point x="310" y="209" type="curve" smooth="yes"/>
      <point x="210" y="209"/>
      <point x="143" y="153"/>
      <point x="143" y="72" type="curve" smooth="yes"/>
      <point x="143" y="15"/>
      <point x="178" y="-21"/>
    </contour>
    <contour>
      <point x="136" y="372" type="curve"/>
      <point x="143" y="396" type="line"/>
      <point x="92" y="433"/>
      <point x="64" y="487"/>
      <point x="64" y="546" type="curve" smooth="yes"/>
      <point x="64" y="672"/>
      <point x="199" y="735"/>
      <point x="334" y="735" type="curve" smooth="yes"/>
      <point x="469" y="735"/>
      <point x="603" y="672"/>
      <point x="603" y="547" type="curve" smooth="yes"/>
      <point x="603" y="494"/>
      <point x="583" y="452"/>
      <point x="550" y="418" type="curve"/>
      <point x="567" y="402" type="line"/>
      <point x="605" y="440"/>
      <point x="629" y="488"/>
      <point x="629" y="549" type="curve" smooth="yes"/>
      <point x="629" y="689"/>
      <point x="482" y="759"/>
      <point x="334" y="759" type="curve" smooth="yes"/>
      <point x="186" y="759"/>
      <point x="38" y="689"/>
      <point x="38" y="548" type="curve" smooth="yes"/>
      <point x="38" y="480"/>
      <point x="72" y="416"/>
    </contour>
  </outline>
</glyph>
<glyph name="ma_ba-oriya" format="2">
  <advance width="657"/>
  <guideline x="453" y="49" angle="0"/>
  <anchor x="313" y="751" name="top"/>
  <anchor x="574" y="751" name="topright"/>
  <outline>
    <contour>
      <point x="163" y="355" type="curve"/>
      <point x="175" y="379" type="line"/>
      <point x="104" y="411"/>
      <point x="64" y="482"/>
      <point x="64" y="552" type="curve" smooth="yes"/>
      <point x="64" y="644"/>
      <point x="135" y="736"/>
      <point x="299" y="736" type="curve" smooth="yes"/>
      <point x="429" y="736"/>
      <point x="563" y="662"/>
      <point x="563" y="511" type="curve"/>
      <point x="587" y="512" type="line"/>
      <point x="587" y="675"/>
      <point x="441" y="760"/>
      <point x="299" y="760" type="curve" smooth="yes"/>
      <point x="117" y="760"/>
      <point x="38" y="657"/>
      <point x="38" y="553" type="curve" smooth="yes"/>
      <point x="38" y="473"/>
      <point x="84" y="393"/>
    </contour>
    <contour>
      <point x="175" y="184" type="curve" smooth="yes"/>
      <point x="202" y="184"/>
      <point x="216" y="203"/>
      <point x="216" y="223" type="curve" smooth="yes"/>
      <point x="216" y="242"/>
      <point x="202" y="261"/>
      <point x="176" y="261" type="curve" smooth="yes"/>
      <point x="153" y="261"/>
      <point x="130" y="249"/>
      <point x="130" y="226" type="curve"/>
      <point x="146" y="228" type="line"/>
      <point x="144" y="236"/>
      <point x="143" y="244"/>
      <point x="143" y="253" type="curve" smooth="yes"/>
      <point x="143" y="365"/>
      <point x="273" y="465"/>
      <point x="449" y="482" type="curve"/>
      <point x="410" y="463" type="line"/>
      <point x="397" y="521" type="line"/>
      <point x="445" y="506" type="line"/>
      <point x="266" y="494"/>
      <point x="118" y="380"/>
      <point x="118" y="257" type="curve" smooth="yes"/>
      <point x="118" y="221"/>
      <point x="131" y="184"/>
    </contour>
    <contour>
      <point x="468" y="1" type="curve" smooth="yes"/>
      <point x="507" y="1"/>
      <point x="548" y="14"/>
      <point x="578" y="44" type="curve"/>
      <point x="573" y="71" type="line"/>
      <point x="547" y="38"/>
      <point x="504" y="25"/>
      <point x="469" y="25" type="curve" smooth="yes"/>
      <point x="411" y="25"/>
      <point x="383" y="60"/>
      <point x="383" y="107" type="curve" smooth="yes"/>
      <point x="383" y="139"/>
      <point x="396" y="179"/>
      <point x="422" y="210" type="curve"/>
      <point x="426" y="197" type="line"/>
      <point x="391" y="223" type="line"/>
      <point x="405" y="225" type="line"/>
      <point x="373" y="189"/>
      <point x="357" y="142"/>
      <point x="357" y="104" type="curve" smooth="yes"/>
      <point x="357" y="48"/>
      <point x="395" y="1"/>
    </contour>
    <contour>
      <point x="587" y="-75" type="line"/>
      <point x="587" y="751" type="line"/>
      <point x="561" y="751" type="line"/>
      <point x="561" y="608" type="line"/>
      <point x="561" y="595" type="line"/>
      <point x="561" y="51" type="line"/>
      <point x="561" y="42" type="line"/>
      <point x="561" y="-75" type="line"/>
    </contour>
  </outline>
</glyph>
